<svg xmlns="http://www.w3.org/2000/svg" viewBox="0 0 356.2 283.2"  xmlns:v="https://vecta.io/nano"><style><![CDATA[.B{fill:#e97a9e}.C{fill:#ca417d}.D{fill:#eea886}.E{fill:#609a3e}.F{fill:#f7f7f7}.G{fill:#922968}.H{fill:#fee2e9}.I{fill:#285173}.J{stroke-miterlimit:10}.K{stroke-width:.562}]]></style><path fill="#163342" d="M88.7 264.8s-1.7 5-1.6 6.1 6.3 1.1 6.3 1.1l2-2.9-6.7-4.3z"/><path fill="#1c4154" d="M86.8 269.7s-1.5 1.7-1.6 2.8-1.9 5.7-1.2 6.8 6 1.3 8.6.9c2.7-.4 8.4.5 9-.7.6-1.1.9-2.8-.8-3.4s-5.7-2.3-6.4-4.1-7.6-2.3-7.6-2.3z"/><path d="M55.8 80.8c-7.5 9.8-.1 39.8 1 44.2.1.4.1.5.1.5s-.6-.3-1.6-1c-6.5-4.1-30.9-21.1-25.5-40.5 6.3-22.4-6.6-18-15.7-39s11.6-34 11.6-34c24.1 18.4 38.2 59.2 30.1 69.8z" class="E"/><linearGradient id="A" gradientUnits="userSpaceOnUse" x1="52.135" y1="125.809" x2="41.285" y2="66.988"><stop offset=".005" stop-color="#3c6127"/><stop offset="1" stop-color="#639c38"/></linearGradient><path fill="url(#A)" d="M56.9 125.5s-.6-.3-1.6-1c-.3-.4-.5-.8-.8-1.2-5-7.9-11.1-18.7-11.7-25.1-.4-3.9-.2-8.3 0-12.6.4-9 .8-18.3-3.7-23.5-6.8-7.9-7-21.2-7-21.8h1c0 .1.2 13.5 6.8 21.1 4.7 5.5 4.3 15 3.9 24.2-.2 4.3-.4 8.7 0 12.5.6 6.3 7 17.6 12.9 26.8.2.4.2.6.2.6z"/><path d="M57.5 105.3c-2.7 10.7 3 17.1 4.9 18.9.3.3.6.5.6.5-.5 0-1 0-1.7-.1-8.1-1.1-29-10.7-31.4-24.3-2.6-14.7-14.7-6.6-24.7-18.8C-8.4 64.8 9 51.2 9 51.2c-3.7 7 7.6 24.3 21.9 27.7 14.3 3.5 29.8 13.8 26.6 26.4z" class="E"/><linearGradient id="B" gradientUnits="userSpaceOnUse" x1="63.798" y1="125.056" x2="30.173" y2="91.753"><stop offset=".005" stop-color="#3c6127"/><stop offset="1" stop-color="#639c38"/></linearGradient><path fill="url(#B)" d="M43.3 104.4c1.7 5.2 3.2 10.1 7.5 12.2 3.8 1.9 7.9 4.8 11.5 7.6.3.3.6.5.6.5-.5 0-1 0-1.7-.1-3.5-2.7-7.3-5.4-10.9-7.1-4.7-2.3-6.3-7.4-8-12.8-2-6.1-4-12.4-10.7-15.2-12.8-5.4-19.3-12.8-19.4-12.8l.7-.7c.1.1 6.5 7.3 19 12.6 7.3 3 9.4 9.5 11.4 15.8z"/><path d="M286.9 74.8h-42.4V32.4h42.4v42.4zm-41.1-1.3h39.8V33.7h-39.8v39.8z" class="B"/><path d="M264.7 156c-20.4 4-40.3 16.9-43.7 19.1-.3.2-.5.3-.5.3s-.2-.3-.6-.8c-2-2.6-8-11.8-6.4-26.2 1.9-17.1 11.5-23.7 43.9-27.3 23.5-2.6 23.9-28.2 23.9-28.6 17.8 34.8.9 60.1-16.6 63.5z" class="E"/><linearGradient id="C" gradientUnits="userSpaceOnUse" x1="230.321" y1="144.46" x2="254.121" y2="158.564"><stop offset=".005" stop-color="#3c6127"/><stop offset="1" stop-color="#639c38"/></linearGradient><path fill="url(#C)" d="M229.2 150.6c-9.8 8.5-8.5 22.5-8.2 24.5-.3.2-.5.3-.5.3s-.2-.3-.6-.8c-.3-3.4-.9-16.6 8.6-24.9 5.7-5 15.1-8.1 23.4-10.8 7.6-2.5 14.7-4.8 17.4-8.1l.8.7c-2.8 3.5-9.8 5.8-17.8 8.4-8.2 2.8-17.5 5.9-23.1 10.7z"/><path d="M235 137.3c-5.7 5.3-11.5 9-15.1 7.7l-.6-.3c-2.1-1.3-3.2-4.7-2.8-11.2 1.1-17.4 11.4-21.6 20.7-28 9.2-6.4 4-16.6 3.8-16.8 16.8 22.2 3.7 39.7-6 48.6z" class="E"/><linearGradient id="D" gradientUnits="userSpaceOnUse" x1="216.824" y1="149.542" x2="234.736" y2="119.314"><stop offset=".005" stop-color="#3c6127"/><stop offset="1" stop-color="#639c38"/></linearGradient><path fill="url(#D)" d="M219.9 145l-.6-.3c.8-3.5 2.7-10.2 6-14.2 1.6-1.9 3.4-3.6 5.4-5.5 3.7-3.5 7.6-7.1 9.9-12l.6.3c-2.3 5-6.3 8.7-10.1 12.2-2 1.8-3.8 3.6-5.4 5.4-3.1 3.9-5 10.7-5.8 14.1z"/><linearGradient id="E" gradientUnits="userSpaceOnUse" x1="6.743" y1="133.35" x2="54.414" y2="133.35"><stop offset="0" stop-color="#c2c2c2"/><stop offset="1" stop-color="#dedede"/></linearGradient><path fill="url(#E)" d="M56.6 246.4h157.9c5.7 0 10.3-4.6 10.3-10.3V30.6c0-5.7-4.6-10.3-10.3-10.3H56.6c-5.7 0-10.3 4.6-10.3 10.3v205.5c0 5.7 4.6 10.3 10.3 10.3z"/><path fill="#fff" d="M56.6 6.3h157.9v218H56.6z"/><path d="M56.6 0v21.2s4.2 6 9.3 0h9.3s4.2 6 9.3 0h9.3s4.2 6 9.3 0h9.3s4.2 6 9.3 0h9.3s4.2 6 9.3 0h9.3s4.2 6 9.3 0h9.3s4.2 6 9.3 0h9.3s4.2 6 9.3 0h9.3s4.2 6 9.3 0V0H56.6z" class="C"/><path d="M65.9 21.2s4.2 6 9.3 0V0h-9.3v21.2zm18.6 0s4.2 6 9.3 0V0h-9.3v21.2zm18.5 0s4.2 6 9.3 0V0H103v21.2zm18.6 0s4.2 6 9.3 0V0h-9.3v21.2zm18.6 0s4.2 6 9.3 0V0h-9.3v21.2zm18.6 0s4.2 6 9.3 0V0h-9.3v21.2zm18.5 0s4.2 6 9.3 0V0h-9.3v21.2zM195.9 0v21.2s4.2 6 9.3 0V0h-9.3z" class="G"/><path fill="#a1a1a1" d="M141.3 234.7c0 3.2-2.6 5.8-5.8 5.8s-5.8-2.6-5.8-5.8 2.6-5.8 5.8-5.8 5.8 2.6 5.8 5.8z"/><path d="M66 192.4v.6h8.3l1.3 5.9 2.3 10.8v.4h12.2l-.3 1.1H79.1v.6h.6c-.5.2-.9.7-.9 1.3 0 .8.6 1.4 1.4 1.4s1.4-.6 1.4-1.4c0-.6-.4-1.1-.9-1.3h8.1c-.5.2-.9.7-.9 1.3 0 .8.6 1.4 1.4 1.4s1.4-.6 1.4-1.4c0-.6-.4-1.1-.9-1.3h.6l.4-1.7h1.6v-.4l2.8-13.2v-.8H75.5l-.8-3.4-8.7.1zm23.3 20c.5 0 .8.4.8.8 0 .5-.4.8-.8.8s-.8-.4-.8-.8c0-.5.3-.8.8-.8zm-9.1 0c.5 0 .8.4.8.8 0 .5-.4.8-.8.8s-.8-.4-.8-.8c0-.5.3-.8.8-.8zm7.3-7.6h-4.6l-.3-3.7h5.2l-.3 3.7zm.9-3.7h5.1l-.8 3.7h-4.6l.3-3.7zm-6.1-4.5h5.8l-.3 3.7h-5.3l-.2-3.7zm-.4 3.7h-5.3l-.8-3.7h5.8l.3 3.7zm5.5 5.3l-.3 3.7h-4l-.3-3.7h4.6zm-4.9 3.8h-4l-.8-3.7h4.5l.3 3.7zm-4.9-4.6l-.8-3.7h5.1l.3 3.7h-4.6zm16.9-8.2l-.8 3.7h-5.3l.3-3.7h5.8zm-2.7 12.8h-4l.3-3.7h4.5l-.8 3.7z" class="B"/><path fill="#ff8080" d="M99.7 195.7c0 2.5-2.1 4.6-4.6 4.6s-4.6-2.1-4.6-4.6 2.1-4.6 4.6-4.6 4.6 2.1 4.6 4.6z"/><linearGradient id="F" gradientUnits="userSpaceOnUse" x1="239.5" y1="236.45" x2="299.2" y2="236.45"><stop offset="0" stop-color="#ff9340"/><stop offset="1" stop-color="#ffce45"/></linearGradient><path fill="url(#F)" d="M239.5 232.8h59.7v7.3h-59.7z"/><linearGradient id="G" gradientUnits="userSpaceOnUse" x1="241.6" y1="229.15" x2="301.3" y2="229.15"><stop offset="0" stop-color="#f58631"/><stop offset="1" stop-color="#f2c23f"/></linearGradient><path fill="url(#G)" d="M241.6 225.5h59.7v7.3h-59.7z"/><linearGradient id="H" gradientUnits="userSpaceOnUse" x1="240.4" y1="221.95" x2="300.1" y2="221.95"><stop offset="0" stop-color="#ff9340"/><stop offset="1" stop-color="#ffce45"/></linearGradient><path fill="url(#H)" d="M240.4 218.3h59.7v7.3h-59.7z"/><linearGradient id="I" gradientUnits="userSpaceOnUse" x1="241.6" y1="214.65" x2="301.3" y2="214.65"><stop offset="0" stop-color="#f58631"/><stop offset="1" stop-color="#f2c23f"/></linearGradient><path fill="url(#I)" d="M241.6 211h59.7v7.3h-59.7z"/><linearGradient id="J" gradientUnits="userSpaceOnUse" x1="242.7" y1="207.45" x2="302.4" y2="207.45"><stop offset="0" stop-color="#ff9340"/><stop offset="1" stop-color="#ffce45"/></linearGradient><path fill="url(#J)" d="M242.7 203.8h59.7v7.3h-59.7z"/><linearGradient id="K" gradientUnits="userSpaceOnUse" x1="240.8" y1="200.15" x2="300.5" y2="200.15"><stop offset="0" stop-color="#f58631"/><stop offset="1" stop-color="#f2c23f"/></linearGradient><path fill="url(#K)" d="M240.8 196.5h59.7v7.3h-59.7z"/><linearGradient id="L" gradientUnits="userSpaceOnUse" x1="239.5" y1="192.95" x2="299.2" y2="192.95"><stop offset="0" stop-color="#ff9340"/><stop offset="1" stop-color="#ffce45"/></linearGradient><path fill="url(#L)" d="M239.5 189.3h59.7v7.3h-59.7z"/><linearGradient id="M" gradientUnits="userSpaceOnUse" x1="241.9" y1="185.65" x2="301.6" y2="185.65"><stop offset="0" stop-color="#f58631"/><stop offset="1" stop-color="#f2c23f"/></linearGradient><path fill="url(#M)" d="M241.9 182h59.7v7.3h-59.7z"/><linearGradient id="N" gradientUnits="userSpaceOnUse" x1="244.2" y1="243.35" x2="303.9" y2="243.35"><stop offset="0" stop-color="#f58631"/><stop offset="1" stop-color="#f2c23f"/></linearGradient><path fill="url(#N)" d="M244.2 239.7h59.7v7.3h-59.7z"/><linearGradient id="O" gradientUnits="userSpaceOnUse" x1="247.999" y1="172.09" x2="306.479" y2="185.305"><stop offset="0" stop-color="#ff9340"/><stop offset="1" stop-color="#ffce45"/></linearGradient><path fill="url(#O)" d="M307 183l-59.7-1.4.2-7.3 59.7 1.5z"/><path d="M39.8 191.3h-.1v-.6h.2zm.27 80.916l.099-.011.064.597-.099.011z" fill="#eddad3"/><path opacity=".73" d="M223.7 254.6H114.3c-3.6 0-6.6-3-6.6-6.6v-82.1c0-3.6 3-6.6 6.6-6.6h109.5c3.6 0 6.6 3 6.6 6.6V248c-.1 3.6-3 6.6-6.7 6.6z" class="H"/><path d="M165.1 172.3h53.8v24.5h-53.8z" class="C"/><path d="M116.3 172.3h41.4v3.5h-41.4zm0 8.1h30.9v3.5h-30.9zm0 8.2h35.1v3.5h-35.1zm103.6 59.5H115.3v-44.2h104.6v44.2zm-102.6-2h100.6v-40.2H117.3v40.2z" class="B"/><path d="M166.8 150.2s7 1.2 7.1 7.2c.1 5.9-5.4 14.5-8.9 13.9s-7.5-3.8-7.4-7.4 1.1-8.3 2.8-10.9c1.5-2.6 4.4-2.9 6.4-2.8z" class="D"/><path fill="#e8734d" d="M157.8 161.2s0 1.2 2.4 2.2 6.8-.4 7.9-.2 1.4-.3 1.4-.3l.1 1.2.9.6s.7-3.1 2.6-3.4c2-.3 3.6-9.3-4.9-11 0 0-6.3-1.7-7.9 1.5-1.5 3.1-2.8 7.1-2.5 9.4z"/><g class="D"><path d="M179.8 196.7s.7-.1 1.1-.5c.7-.7.8-2.2 2.1-2.3 1.4-.1 2.7 4.1 2.4 5-.2.9-2.1 1.6-5 1.4-2.8-.2-.6-3.6-.6-3.6z"/><path d="M182.6 194s1.9-1 4.1-1.8c1.9-.7 4.3-1.2 4.6-.9.6.7-1.7 1.3-3.6 2.1l-1.4.7s-.1 0 1.9-.5c2.2-.5 4.5-.9 4.7-.5.1.2.4.9-.5.9.5-.1.4-.2.4 0 .2 1-2.9 2.3-4.1 2.8 1-.4 1.7-.6 1.4.2s-4.8 2.4-6.3 3.2c-1.7.6-1.2-6.2-1.2-6.2z"/></g><path d="M149.4 167.7s-4.4-.3-7.5 0-7.4 2.8-9.9 3.6c-2.6.7-8.8 4.9-8.6 5.5s2.6 7.4 7 12.9c3.8 4.7 19-22 19-22z" class="I"/><path fill="#193247" d="M140 170.4s-4.7 3.5-6.4 6.7c-1.6 3.2-2.2 7-2.2 7l8.6-13.7z"/><path fill="#1c4154" d="M143.5 274.4s1.3 1.4 2.1 1.8 10.1 2 10.7 2.7c.6.8.6 3.7-1.8 3.7h-11.7c-1.3 0-7 1.2-7.6 0s-.5-6.7.5-8c1.1-1.3 7.8-.2 7.8-.2z"/><path fill="#2a617d" d="M143.3 272.7l.3 1.7s-2.5 1.1-7.8.3V273l7.5-.3z"/><path d="M157.5 164.4s-4.2 3.6-5.4 3.3 4.2 7.6 4.2 7.6 5.1-5 6.3-5.2c1.1-.1-5.1-5.7-5.1-5.7z" class="D"/><path d="M157.8 178.7c-1.4.9-1.7 1.2-1.5 5.3s1.9 7.4 2 8.6c.1 1.1 2.4 12.4 3 13s8.2-.8 9.7-1.3c2.3-.7 12-4 12-4l-2.1-4.4s-12.2 2.7-12.6 1.8c-.4-1-1.3-9-1.7-10.7-.3-1.7.2-4.5-1.8-8.6-1.9-3.8-7 .3-7 .3z" class="I"/><g fill="#ec4c6b"><path d="M143.5 209.7l3.3 3.6c5 6.1 11.7 17.4 12.5 19.3.8 2-4.2 15.9-6.2 20.7-1.1 2.5-8.2 20.1-8 20.5s-7.6.7-11-1.1l6.1-17.7c1.6-4.4 7.1-16.5 7.3-17.7s-8.9-10.9-12-12.7c-3-1.9-10.4-8.4-11.3-9.3s-5.6-3.1-5.2-7.4 3.6-7.6 3.6-7.6l20.9 9.4z"/><path d="M129.9 220.2l-1.1 3-4.1 10.8c-.6 1.4-3.4 7.5-4.7 8.6-1.3 1.2-23.5 27.8-23.6 28s-10.6-1.4-11.1-3.1l16.2-20.6c1.9-2.3 5.7-5.7 7-11.2 1.3-5.4 10.5-26.4 10.6-27.2 0 0 1.5-6.5 3.6-8.4 2.2-2 10 .3 11.3 4.4 1.2 4.3-4.1 15.7-4.1 15.7z"/></g><path fill="#d4d8e8" d="M151.7 167.7l1.8-.7s4.5 1 7.1 4.7l-.2 1.1c0-.1-6.9-1.5-8.7-5.1z"/><path fill="#a9adba" d="M158.6 194.1l-.8 1c-.1.1-.3.2-.5.4h0l-.2-6.8 1 3 .5 2.4z"/><path fill="#ec4c6b" d="M129.9 220.2l-1.1 3c-1.5-1.7-5-8.3-5-8.3l1.1 1c.2.2 5 4.3 5 4.3z"/><path d="M168.5 162.6c.2-.5-.2-2.5-1.5-1.4s-1.2 3.6-.5 3.8c.7.3 1.6-1.1 2-2.4z" class="D"/><path fill="#e8734d" d="M163.8 151.6s-6.1-4.3-6.1 10.4l6.1-10.4z"/><path d="M158.6 194.1l-.8 1c-.1.1-.3.2-.5.4h0c-1.7 1.4-5.6 4-7.3 5-2 1.1-5.7 10.1-5.7 10.1s-17.6-1.2-21.6-10.3c0 0 2.9-6.4 5.5-10.2s8.3-17.4 11.4-19.4c3-1.9 5.6-3.2 11.6-3s9.3 4.9 9.3 4.9 4.5 4.9 5 7.5c.3 2.2-4.6 10.8-6.9 14z" class="I"/><path d="M170.9 185l1.8-.3v.5c0 .2 0 .3.1.4 0 .2.1.3.1.4s.1.2.2.3.2.1.3.1c.4 0 .5-.2.5-.7 0-.6-.3-1.2-1-1.8l-.6-.5c-.2-.1-.3-.3-.4-.4l-.4-.4c-.2-.2-.3-.3-.3-.5-.1-.2-.1-.3-.2-.6s-.1-.4-.1-.7c0-.7.2-1.3.7-1.7s1.1-.6 1.8-.6c.6 0 1.2.2 1.6.7s.7 1 .7 1.6v.2l-1.8.3v-.7c0-.1 0-.2-.1-.3s-.1-.2-.2-.3-.2-.1-.3-.1c-.2 0-.3.1-.4.2s-.1.3-.1.5 0 .4.1.5.1.3.3.4c.1.1.2.3.3.3s.2.2.4.3.3.2.3.3c.3.2.5.4.6.6.2.2.3.4.5.7s.3.5.3.8.1.6.1.9c0 .6-.2 1.1-.7 1.5-.4.4-1 .6-1.6.6-.4 0-.8-.1-1.1-.2s-.6-.4-.8-.6-.3-.5-.4-.9l-.2-.8zm5.5 2.5v-8.8h1.8v3.6h1.3v-3.6h1.8v8.8h-1.8v-3.9h-1.3v3.9h-1.8zm5.8-2.9v-3c0-2.1.9-3.1 2.6-3.1s2.6 1 2.6 3.1v2.9c0 .4 0 .7-.1 1s-.1.6-.3.8-.3.5-.5.7-.4.3-.7.4-.6.2-1 .2-.7-.1-1-.2-.5-.2-.7-.4-.4-.4-.5-.7l-.3-.8c-.1-.3-.1-.5-.1-.9zm3.3.4v-3.8c0-.9-.3-1.3-.8-1.3-.2 0-.3 0-.4.1s-.2.2-.2.3c-.1.1-.1.3-.1.4v4.2c0 .9.3 1.3.8 1.3.5.1.7-.3.7-1.2zm2.7 2.5v-8.8h2.1c.8 0 1.3.2 1.7.6.3.4.5 1 .5 1.9 0 .4 0 .7-.1 1s-.2.5-.3.7-.3.3-.5.5c-.2.1-.4.2-.7.2s-.5.1-.9.1v3.8h-1.8zm1.8-5h.5c.1 0 .1 0 .1-.1s.1-.1.1-.1l.1-.1v-1.7s-.1-.1-.1-.2-.1-.1-.1-.1-.1-.1-.2-.1h-.3v2.4h-.1zm5.2 5v-8.8h1.3l1.9 4.6v-4.6h1.5v8.8h-1.2l-1.9-4.9v4.9h-1.6zm5.6-2.9v-3c0-2.1.9-3.1 2.6-3.1s2.6 1 2.6 3.1v2.9c0 .4 0 .7-.1 1s-.1.6-.3.8c-.1.3-.3.5-.5.7s-.4.3-.7.4-.6.2-1 .2-.7-.1-1-.2-.5-.2-.7-.4-.4-.4-.5-.7l-.3-.8c0-.2-.1-.5-.1-.9zm3.4.4v-3.8c0-.9-.3-1.3-.8-1.3-.2 0-.3 0-.4.1s-.2.2-.2.3c-.1.1-.1.3-.1.4v4.2c0 .9.3 1.3.8 1.3.4.1.7-.3.7-1.2zm3.5 2.5l-1.2-8.8h1.5l.5 5.8.8-5.8h1.3l.7 5.8.6-5.8h1.5l-1.2 8.8h-1.5l-.7-5.8-.7 5.8h-1.6z" class="F"/><path opacity=".73" stroke="#e97a9e" d="M124.7 118.6H78.1c-2.9 0-5.2-2.3-5.2-5.2V55.9c0-2.9 2.3-5.2 5.2-5.2h46.6c2.9 0 5.2 2.3 5.2 5.2v57.5c0 2.8-2.3 5.2-5.2 5.2z" class="H J K"/><path opacity=".5" d="M129.9 87.9h-57v-32c0-2.9 2.3-5.2 5.2-5.2h46.6c2.9 0 5.2 2.3 5.2 5.2v32z" class="B"/><path d="M84.6 76.2h-.3v1.5s18.9 1.4 26.3.1 7.9-3.8 7.9-3.8v-1.6h-.3l-33.6 3.8z" class="C"/><path d="M118.2 73.2c-1.9 2.6-7.8 3.3-15.2 3.4-3 0-6.3 0-9.7-.1l-8.7-.3c-.3-2.2.5-6.2 1.1-8.4.2-.7.4-1.2.5-1.5h.1c1 1.4 3.4 2.2 4.8 2.2 2.3 0 5-1.7 4.2-3.7-.1-.3-.2-.5-.3-.7-.6-2 1-2 3.5-.4 4.4 2.8 8.2 3.8 11.4 4.3l1.8.3c4.5.5 6.9.5 6.5 4.9z" class="B"/><path d="M118 73.2c-1.9 2.6-7.8 3.3-15.2 3.4-.2-1.1-.4-3.9 3.4-4.6 2.9-.5 4.5-2.4 5.4-3.8 4.3.6 6.8.6 6.4 5zm-8.1-5.3c-.6.9-1.4.9-2.3.9-7.5-.5-11.3-3.5-12.6-4.8-.6-2 1-2 3.5-.4 4.4 2.8 8.3 3.8 11.4 4.3z" class="C"/><path d="M101 76.9c-3.8 0-7.7-.2-10.8-.4-2.8-.2-4.9-.3-5.8-.2h-.1V76h.1c.9-.1 3.1 0 5.9.2 8.8.5 25.1 1.4 27.9-3.8l.1-.1.3.1-.1.1c-2 3.6-9.7 4.4-17.5 4.4z" class="F"/><path d="M115.1 96.4H87.5c-1.1 0-2 .9-2 2v9.2c0 1.1.9 2 2 2h27.6c1.1 0 2-.9 2-2v-9.2c0-1.1-.9-2-2-2z" class="C"/><path d="M90.2 104.4l.9-.2v.4c0 .1 0 .1.1.2 0 .1.1.1.1.1s.1.1.2.1c.2 0 .3-.1.3-.3 0-.3-.2-.6-.5-.9l-.3-.2c-.1-.1-.2-.1-.2-.2s-.1-.1-.2-.2-.1-.2-.2-.2c0-.1-.1-.2-.1-.3v-.3c0-.4.1-.6.3-.8s.5-.3.9-.3c.3 0 .6.1.8.3s.3.5.3.8h0v.1l-.9.1v-.6c0-.1 0-.1-.1-.1h-.1c-.1 0-.2 0-.2.1s-.1.2-.1.3v.3c0 .1.1.2.1.2l.4.4c.1.1.1.1.2.1l.3.3c.1.1.2.2.2.3.1.1.1.3.2.4 0 .1.1.3.1.5 0 .3-.1.6-.3.8s-.5.3-.8.3c-.2 0-.4 0-.5-.1-.2-.1-.3-.2-.4-.3a.76.76 0 0 1-.2-.4c0-.1-.3-.5-.3-.7zm2.8 1.3v-4.4h.9v1.8h.6v-1.8h.9v4.4h-.9v-2h-.6v2H93zm3-1.5v-1.5c0-1 .4-1.6 1.3-1.6s1.3.5 1.3 1.6v2c0 .1-.1.3-.1.4-.1.1-.1.2-.2.3s-.2.2-.4.2-.3.1-.5.1-.4 0-.5-.1-.3-.1-.4-.2-.2-.2-.2-.3c-.1-.1-.1-.3-.1-.4-.1-.1-.2-.3-.2-.5zm1.7.2v-1.9c0-.4-.1-.6-.4-.6-.1 0-.1 0-.2.1s-.1 0-.1.1 0 .1-.1.2v2.1c0 .4.1.6.4.6.3.1.4-.1.4-.6zm1.5 1.3v-4.4h1.1c.4 0 .7.1.8.3.2.2.3.5.3.9 0 .2 0 .4-.1.5a.76.76 0 0 1-.2.4c-.1.1-.2.2-.3.2s-.2.1-.3.1h-.4v1.9l-.9.1zm.9-2.5h.3l.1-.1v-.9s0-.1-.1-.1h-.3v1.1zm2.9 2.5v-4.4h.6l1 2.3v-2.3h.7v4.4h-.6l-1-2.4v2.4h-.7zm2.9-1.5v-1.5c0-1 .4-1.6 1.3-1.6s1.3.5 1.3 1.6v2c0 .1-.1.3-.1.4-.1.1-.1.2-.2.3s-.2.2-.4.2-.3.1-.5.1-.4 0-.5-.1-.3-.1-.4-.2-.2-.2-.2-.3c-.1-.1-.1-.3-.1-.4-.2-.1-.2-.3-.2-.5zm1.7.2v-1.9c0-.4-.1-.6-.4-.6-.1 0-.1 0-.2.1s-.1.1-.1.2 0 .1-.1.2v2.1c0 .4.1.6.4.6.2 0 .4-.2.4-.7zm1.8 1.3l-.6-4.4h.8l.3 2.9.4-2.9h.7l.4 2.9.3-2.9h.8l-.6 4.4h-.8l-.4-2.9-.4 2.9h-.9z" class="F"/><path opacity=".73" stroke="#e97a9e" d="M192.8 118h-46.6c-2.9 0-5.2-2.3-5.2-5.2V55.3c0-2.9 2.3-5.2 5.2-5.2h46.6c2.9 0 5.2 2.3 5.2 5.2v57.5c0 2.8-2.3 5.2-5.2 5.2z" class="H J K"/><path opacity=".5" d="M198 87.2h-57V55.3c0-2.9 2.3-5.2 5.2-5.2h46.6c2.9 0 5.2 2.3 5.2 5.2v31.9z" class="B"/><path d="M183.2 95.8h-27.6c-1.1 0-2 .9-2 2v9.2c0 1.1.9 2 2 2h27.6c1.1 0 2-.9 2-2v-9.2c0-1.1-.9-2-2-2z" class="C"/><path d="M158.3 103.8l.9-.2v.4c0 .1 0 .1.1.2 0 .1.1.1.1.1s.1.1.2.1c.2 0 .3-.1.3-.3 0-.3-.2-.6-.5-.9l-.4-.2c-.1-.1-.2-.1-.2-.2s-.1-.1-.2-.2-.1-.2-.2-.2c0-.1-.1-.2-.1-.3v-.3c0-.4.1-.6.3-.8s.5-.3.9-.3c.3 0 .6.1.8.3s.3.5.3.8h0v.1l-.9.1v-.6c0-.1 0-.1-.1-.1h-.1c-.1 0-.2 0-.2.1s-.1.2-.1.3v.3c0 .1.1.2.1.2l.4.4c.1.1.1.1.2.1l.3.3c.1.1.2.2.2.3.1.1.1.3.2.4 0 .1.1.3.1.5 0 .3-.1.6-.3.8s-.5.3-.8.3c-.2 0-.4 0-.5-.1a1.38 1.38 0 0 1-.4-.3.76.76 0 0 1-.2-.4c0-.1-.2-.5-.2-.7zm2.9 1.3v-4.4h.9v1.8h.6v-1.8h.9v4.4h-.9v-2h-.6v2h-.9zm3-1.5v-1.5c0-1 .4-1.6 1.3-1.6s1.3.5 1.3 1.6v2c0 .1-.1.3-.1.4-.1.1-.1.2-.2.3s-.2.2-.4.2-.3.1-.5.1-.4 0-.5-.1-.3-.1-.4-.2-.2-.2-.2-.3c-.1-.1-.1-.3-.1-.4-.2-.2-.2-.3-.2-.5zm1.7.2v-1.9c0-.4-.1-.6-.4-.6-.1 0-.1 0-.2.1s-.1.1-.1.2 0 .1-.1.2v2.1c0 .4.1.6.4.6.2 0 .4-.3.4-.7zm1.5 1.3v-4.4h1.1c.4 0 .7.1.8.3.2.2.3.5.3.9 0 .2 0 .4-.1.5a.76.76 0 0 1-.2.4c-.1.1-.2.2-.3.2s-.2.1-.3.1h-.4v1.9l-.9.1zm.9-2.6h.3l.1-.1v-.9s0-.1-.1-.1h-.3v1.1zm2.8 2.6v-4.4h.6l1 2.3v-2.3h.7v4.4h-.6l-1-2.4v2.4h-.7zm2.9-1.5v-1.5c0-1 .4-1.6 1.3-1.6s1.3.5 1.3 1.6v2c0 .1-.1.3-.1.4-.1.1-.1.2-.2.3s-.2.2-.4.2-.3.1-.5.1-.4 0-.5-.1-.3-.1-.4-.2-.2-.2-.2-.3c-.1-.1-.1-.3-.1-.4-.1-.2-.2-.3-.2-.5zm1.7.2v-1.9c0-.4-.1-.6-.4-.6-.1 0-.1 0-.2.1s-.1.1-.1.2 0 .1-.1.2v2.1c0 .4.1.6.4.6s.4-.3.4-.7zm1.9 1.3l-.6-4.4h.8l.3 2.9.4-2.9h.7l.4 2.9.3-2.9h.8l-.6 4.4h-.8l-.4-2.9-.4 2.9h-.9z" class="F"/><g class="C"><path d="M274.2 50.9c.4.6 1.3.7 1.9.3s.7-1.3.3-1.9l-6.5-8.9c-.4-.6-1.3-.7-1.9-.3s-.7 1.3-.3 1.9l6.5 8.9zm-19.1.3c.6.4 1.5.3 1.9-.3l6.5-8.9c.4-.6.3-1.5-.3-1.9s-1.5-.3-1.9.3l-6.5 8.9c-.4.6-.3 1.5.3 1.9z"/><path d="M279.2 53H252c-1.3 0-2.4-1.1-2.4-2.4h0c0-1.3 1.1-2.4 2.4-2.4h27.3c1.3 0 2.4 1.1 2.4 2.4h0c-.1 1.3-1.2 2.4-2.5 2.4z"/><path d="M252.1 53l3.5 12.9c.2.9 1 1.4 1.8 1.4h16.4c.8 0 1.6-.6 1.8-1.4L279 53h-26.9zm15.5 7.5c0 .2-.2.4-.4.4h-6.1c-.2 0-.4-.2-.4-.4v-5.4c0-.2.2-.5.4-.5h6.1c.2 0 .4.2.4.5v5.4zm2.9 0c0 .2-.2.4-.4.4h-1.6v-6.3h1.6c.2 0 .4.2.4.5v5.4zm-253 101.8c.3.4.8.4 1.2.2.4-.3.4-.8.2-1.2l-4.1-5.6c-.3-.4-.8-.4-1.2-.2-.4.3-.4.8-.2 1.2l4.1 5.6zm-12.1.2c.4.3.9.2 1.2-.2l4.1-5.6c.3-.4.2-.9-.2-1.2s-.9-.2-1.2.2l-4.1 5.6c-.3.4-.2 1 .2 1.2z"/><path d="M20.6 163.7H3.4a1.54 1.54 0 0 1-1.5-1.5h0a1.54 1.54 0 0 1 1.5-1.5h17.3a1.54 1.54 0 0 1 1.5 1.5h0c0 .8-.7 1.5-1.6 1.5z"/><path d="M3.5 163.7l2.2 8.2c.1.6.6.9 1.1.9h10.4c.5 0 1-.4 1.1-.9l2.2-8.2h-17zm9.8 4.7c0 .1-.1.3-.3.3H9.2c-.1 0-.3-.1-.3-.3V165c0-.1.1-.3.3-.3H13c.1 0 .3.1.3.3v3.4zm1.8 0c0 .1-.1.3-.3.3h-1v-4h1c.1 0 .3.1.3.3v3.4zm6.8-6.2v-.5c.1 0 8-.6 10.7-7.8.6-1.7 1-3.5 1.4-5.4 1.3-6.3 2.5-12.8 14.8-17.3 7.8-2.8 13.6-2.3 18.3-2 7.2.6 11.9 1 18-11l.4.2c-6.2 12.3-11.1 11.9-18.4 11.3-4.6-.4-10.4-.9-18.1 1.9-12 4.4-13.3 10.7-14.5 16.9-.4 1.9-.7 3.7-1.4 5.5-3 7.6-11.2 8.2-11.2 8.2zm139.3-90.1l.9 4.9c.1.5.6.9 1.1.9l-1.3-7c-.4.2-.8.7-.7 1.2z"/><path d="M163.4 77.9l1.9-.4-1.3-7-1.9.4h-.1l1.4 7c-.1 0-.1 0 0 0z"/></g><path d="M165.8 78.2h0c-.6.1-1.2-.3-1.3-.9l-1.2-6.3c-.1-.6.3-1.2.9-1.3h0c.6-.1 1.2.3 1.3.9l1.2 6.3c.1.6-.3 1.2-.9 1.3z" class="B"/><g class="C"><path d="M177.7 75.7l-.7-.2 1.3-7c.1-2.3-.6-4.3-2-5.9-1.7-1.8-4.2-2.8-6.9-2.8s-5 .9-6.6 2.6c-1.4 1.5-2.1 3.6-2 6.1.1 1.9 1.1 6.8 1.1 6.8l-.7.1c0-.2-1-5-1.1-6.9-.1-2.6.6-4.9 2.2-6.6 1.7-1.8 4.2-2.8 7.1-2.8s5.6 1.1 7.4 3c1.6 1.7 2.4 3.9 2.2 6.4-.1 2.1-1.3 7-1.3 7.2z"/><path d="M177.7 72.3l-1 4.9c-.1.5-.6.9-1.1.8l1.4-6.9c.5.1.8.7.7 1.2z"/><path d="M175.5 78l-1.9-.4 1.5-6.9 1.9.4h.1l-1.4 6.9h-.2z"/></g><path d="M173 78.2h0c.6.1 1.2-.2 1.3-.9l1.3-6.3c.1-.6-.3-1.2-.8-1.3h0c-.6-.1-1.2.2-1.3.9l-1.3 6.3c-.2.6.2 1.2.8 1.3z" class="B"/><path fill="#eea987" d="M293.3 153.9s-1.4-1.6-.8-2.7c.4-.9.2-2.2.1-2.7 0-.6.7-2-.1-2s-1.2 2.6-1.5 3.2c-.2.6-1.8-1.9-2.4-2.1s-4.7 2.6-3.4 4.2 3.4 2.6 3.6 2.9l.9 1.3 3.6-2.1z"/><path d="M288.1 271.6s-3.4 3.4-6.2 3.7c-2.9.4-6.2 1.4-6.6 3.6s8.6 4.5 12.1 2.8c5.3-2.5 6.8-1.5 7.6-3.1s.7-6.9.8-7.5c0-.5-7.7.5-7.7.5zm59.3-9.5s-1 4.6-3.1 6.4-4.3 4.4-3.5 6.5 8.4 1.8 11.2-3.7c1.7-3.5 3.7-4.1 3.6-5.8-.2-1.8-2.8-5.5-3-6-.2-.7-5.2 2.6-5.2 2.6z" fill="#202338"/><path fill="#1c4054" d="M310.8 196l-14.2 30.1c-2.4 5.6-4.9 15.8-5.2 19.7-.4 5-5.2 25.2-5.5 26.7s10.1.6 10.1.6 9-34.5 11.4-39.4c1.6-3.3 13.6-25 14.7-23.6 1.1 1.3 7.5 17.6 8.3 21.5s15.6 32.8 15.6 32.8 6.9-.5 8.3-3.1c0 0-11-29.3-12.3-34.7-.6-2.7-2.9-19.8-5.8-33-1.5-6.8-25.4 2.4-25.4 2.4z"/><path fill="#f89829" stroke="#f7bb66" stroke-width="4.5" d="M261.3 128.1c.3-12.9 11-23 23.9-22.7s23 11 22.7 23.9-11 23-23.9 22.7c-12.8-.3-23-11-22.7-23.9z" class="J"/><path fill="#f8c681" d="M294.3 123.7c-.1-.3-.3-.6-.7-1-.3-.4-.7-.7-1.1-1.1s-.9-.7-1.5-1.1c-.5-.3-1.1-.6-1.8-.9l-2 6.8.6.3c1.1.6 2.1 1.3 2.9 1.9s1.5 1.3 2 2 .8 1.5 1 2.3c.1.8.1 1.8-.3 2.8-.3 1.2-.8 2.1-1.5 2.8s-1.4 1.2-2.3 1.5-1.9.5-2.9.5-2.1-.2-3.2-.5l-1 3.4-1.7-.5 1-3.5c-1.5-.6-2.9-1.3-4.2-2.3-1.3-.9-2.3-2-3.2-3.3l2.6-2.6c.2.3.4.7.8 1.2l1.3 1.4c.5.5 1.1.9 1.8 1.4l2.1 1.1 2-6.8c-.1-.1-.2-.2-.4-.2a.76.76 0 0 0-.4-.2l-2.7-1.9c-.8-.6-1.3-1.2-1.8-1.9-.4-.6-.7-1.3-.8-2.1-.1-.7 0-1.6.3-2.5.3-1.1.8-2 1.4-2.7s1.4-1.3 2.2-1.7c.9-.4 1.8-.6 2.8-.7s2.1 0 3.2.3l1-3.3 1.7.5-1 3.3c1.4.5 2.6 1.2 3.7 2s1.9 1.7 2.6 2.7l-2.5 2.6zm-11.1-2.4c-.3.9-.2 1.7.3 2.3s1.4 1.3 2.6 2.1l1.9-6.4c-1.3-.3-2.4-.3-3.2 0-.7.4-1.3 1.1-1.6 2zm6.2 13.7c.3-1 .1-1.8-.5-2.5s-1.5-1.5-2.8-2.3l-1.9 6.5c1.4.4 2.5.5 3.4.2.9-.4 1.5-1 1.8-1.9z"/><path fill="#822950" d="M340.1 159.5s-4 12-3.9 14.8-2.2-13.9 3.9-14.8z"/><g class="G"><path d="M311.8 163.9s-.5 1.7-1.4 3.6h0c-.3.7-.7 1.5-1.2 2.2a.76.76 0 0 0-.2.4c-.3.5-.7 1-1.1 1.5-1.2 1.4-2.6 2.5-4.3 2.7-3.4.2-15.6-18.4-15.6-18.4l5.8-2.7s7.7 11.2 8.9 10.5c1.2-.6 2.4-5.1 2.4-5.1 1.4-.8 3.6 1.4 5.1 3.2l.3.3c.8 1 1.3 1.8 1.3 1.8z"/><path d="M336.9 195.5c-6.6 5.9-27.7 4-27.7 4 .3-.7 2.4-22.8 1.7-27.7-.7-5-.3-9.2-1-9.4s-5.2-1.8-5.2-1.8 2.4-7.7 3.4-9.3c1-1.7 8.2-4.1 8.2-4.1s5.6-2 11.6-1.3c10 1.2 11.2 4.1 11.2 4.1-2.7 17.6-2.3 13.8-2.4 17.3l-.6 17.4c-.1 3.7.8 10.8.8 10.8z"/></g><path fill="#eea987" d="M329.5 146a9.86 9.86 0 0 1-1.3 2c-3.1 4-6.7 3.9-6.7 3.9-2.2-.2-3.4-1.6-4-2.9-.5-1.1-.6-2.1-.6-2.1l1.3-.5a4.44 4.44 0 0 0 .2-1.3v-2c0-1.1-.1-2-.1-2s9.4-5.1 8.7-1.5a8.67 8.67 0 0 0-.1 3.9c.3 1.1.8 1.8 1.2 2l1.4.5z"/><g class="D"><path d="M302.4 153.3s-.5-.5-.6-1c-.1-1 .9-2.2-.2-3.1s-5.1 1.8-5.5 2.6.7 2.4 3.2 4c2.6 1.5 3.1-2.5 3.1-2.5z"/><path d="M301.9 149.5s-.9-1.9-2.2-3.8c-1.1-1.7-2.7-3.5-3.2-3.2-.6.4.8 1.7 1.8 3.4.9 1.6.5 1.5.5 1.5s.1 0-1.2-1.5c-1.5-1.7-3.3-3.5-3.7-3.1-.3.2-.3.2.1.9-.3-.3-.5-.3-.7-.2-.9.7.9 3.5 1.6 4.6-.5-.9-1-1.4-1.3-.7-.3.8 2.4 4.7 3.2 6.2.8 1.7 5.1-4.1 5.1-4.1z"/></g><path d="M339.9 161.2c4.3-5.2-1.2-11.8-1.2-11.8-3.1-2.7-9.8 8.7-10.7 9.8s-7.4 6.9-9.2 8.9c-.9 1-4.9-3.3-6.6-5-1.1-1-9.5-10.9-9.5-10.9l-5.3 3.8c.5-.4 17.2 21.5 20.2 21.6 0 .1 11.9-3.8 22.3-16.4z" class="G"/><path d="M309.2 169.8a.76.76 0 0 0-.2.4c-.3.5-.7 1-1.1 1.5-.8-1-3.8-7.8-3.9-7.9l5.2 6zm26-3.5s-5.4 4.8-8.3 6.6-7.8 4.2-8.3 4.4c0 0 12.9-2.5 16.6-11z" fill="#822950"/><path d="M313.3 127.8s-2 3.8-1 4.4c.8.5-1 4.2-1.2 4.8s1.5 1.1 1.9 1.4c.4.4 1.5 5.2 2.9 5.4 1.4.1 8-2.1 9.7-4 1.8-1.8 3.2-10.2 2-13.7-1.1-3.5-10.7-4.9-14.3 1.7z" class="D"/><path fill="#252e3b" d="M312.9 128.7s-2.1-4.1 1.7-7.1 10.8 2.3 11.6 2.5 5.3.5 3 8.4l-2.2 7s-1.5-3.9-2.3-4.5c-1.3-.9-4.1-.7-4.1-.7s1.3-3.6-.8-4.1c-2.1-.6-4.8-2.3-6.9-1.5z"/><path d="M322.8 132.2c.2-.5.8-2.6 2.6-1.4s-1.1 5.2-1.4 5.2c-.3.1-2.7.3-1.2-3.8z" class="D"/><path fill="#a77860" d="M325.4 140.1s-1.5 3-7 5v-1.7c0 0 4.2-1.2 7-3.3z"/><linearGradient id="P" gradientUnits="userSpaceOnUse" x1="34.542" y1="203.248" x2="53.321" y2="181.452"><stop offset="0" stop-color="#fbf33f"/><stop offset="1" stop-color="#d73c65"/></linearGradient><circle fill="url(#P)" cx="53.7" cy="181" r="14"/><linearGradient id="Q" gradientUnits="userSpaceOnUse" x1="63.932" y1="165.554" x2="8.404" y2="249.442"><stop offset="0" stop-color="#fbf33f"/><stop offset="1" stop-color="#d73c65"/></linearGradient><circle fill="url(#Q)" cx="53.7" cy="181" r="13.5"/><g fill="#fff"><path d="M42.5 175.7h-.1c-.2-.1-.2-.3-.1-.4 2.2-4.3 6.6-7 11.4-7 .8 0 1.6.1 2.3.2.2 0 .3.2.2.4 0 .2-.2.3-.4.2-.7-.1-1.5-.2-2.2-.2-4.6 0-8.8 2.6-10.9 6.7.1 0 0 .1-.2.1z"/><circle transform="matrix(.9951 -.098537 .098537 .9951 -17.6027 6.2029)" opacity=".78" cx="54" cy="181.3" r="11.5"/></g><linearGradient id="R" gradientUnits="userSpaceOnUse" x1="62.275" y1="167.958" x2="32.708" y2="217.597"><stop offset="0" stop-color="#fbf33f"/><stop offset="1" stop-color="#d73c65"/></linearGradient><path fill="url(#R)" d="M52.9 189.8v-1.2c-1.3-.1-2.6-.4-3.5-.8-.3-.1-.5-.5-.4-.9l.3-1.2c.1-.4.6-.6 1-.5.9.4 2 .7 3.2.7 1.3 0 2.2-.4 2.2-1.3 0-.8-.7-1.3-2.5-1.7-2.5-.7-4.3-1.8-4.3-3.9 0-2 1.4-3.5 3.9-3.9v-1.2a.68.68 0 0 1 .7-.7h.7a.68.68 0 0 1 .7.7v1.1c1.2 0 2.1.3 2.8.5.4.1.6.5.5.9l-.3 1.1c-.1.4-.6.6-1 .5-.6-.2-1.5-.5-2.7-.5-1.5 0-1.9.6-1.9 1.2 0 .7.9 1.1 2.8 1.7 2.8.8 3.9 2 3.9 4 0 1.9-1.4 3.6-4.1 4v1.4a.68.68 0 0 1-.7.7h-.7c-.3 0-.6-.3-.6-.7z"/></svg>