<svg xmlns="http://www.w3.org/2000/svg" viewBox="0 0 128 128"  xmlns:v="https://vecta.io/nano"><linearGradient id="A" gradientUnits="userSpaceOnUse" x1="2.379" y1="125.621" x2="125.621" y2="2.379"><stop offset="0" stop-color="#912968"/><stop offset="1" stop-color="#cc2b5e"/></linearGradient><path fill="url(#A)" d="M119.9 128H8.1c-4.5 0-8.1-3.6-8.1-8.1V8.1C0 3.6 3.6 0 8.1 0h111.8c4.5 0 8.1 3.6 8.1 8.1v111.8c0 4.5-3.6 8.1-8.1 8.1z"/><g opacity=".85" fill="#fff"><path d="M90.7 56.1c1.3 1.9 4 2.3 5.9 1s2.3-4 1-5.9L77.3 23.4c-1.3-1.9-4-2.3-5.9-1s-2.3 4-1 5.9l20.3 27.8zm-59.3 1c1.9 1.3 4.6 1 5.9-1l20.1-27.7c1.3-1.9 1-4.6-1-5.9-1.9-1.3-4.6-1-5.9 1L30.4 51.1c-1.3 1.9-.9 4.6 1 6z"/><path d="M106.7 62.6H21.3c-3.9 0-7-3.1-7-7v-.7c0-3.9 3.1-7 7-7h85.4c3.9 0 7 3.1 7 7v.7c0 3.9-3.2 7-7 7z"/><path d="M22.3 61.9l10.6 40c.7 2.7 3 4.4 5.7 4.4h51c2.6 0 4.9-1.7 5.7-4.4l10.4-40H22.3zm48 23.3c0 .8-.6 1.4-1.2 1.4h-19c-.7 0-1.2-.6-1.2-1.4V68.4c0-.8.6-1.4 1.2-1.4h19c.7 0 1.2.7 1.2 1.4v16.8zm8.9 0c0 .8-.6 1.4-1.3 1.4h-5.1V66.9h5.1c.7 0 1.3.7 1.3 1.4v16.9z"/></g></svg>