<svg xmlns="http://www.w3.org/2000/svg" width="150" height="150" viewBox="0 0 144 144"  fill="#fff" xmlns:v="https://vecta.io/nano"><path d="M108.6 60.7c1.8 2.6 5.5 3.1 8.1 1.3s3.1-5.5 1.3-8.1l-27.8-38c-1.8-2.6-5.5-3.1-8.1-1.3s-3.1 5.5-1.3 8.1l27.8 38zm-81.4 1.4c2.6 1.8 6.3 1.3 8.1-1.3l27.5-38c1.8-2.6 1.3-6.3-1.3-8.1s-6.3-1.3-8.1 1.3L25.9 54c-1.8 2.5-1.3 6.2 1.3 8.1z"/><path d="M130.1 69.7H13.9A10.07 10.07 0 0 1 3.8 59.6h0a10.07 10.07 0 0 1 10.1-10.1h116.2a10.07 10.07 0 0 1 10.1 10.1h0a10.07 10.07 0 0 1-10.1 10.1z"/><path d="M14.7 69.7l14.6 54.9c1 3.7 4.1 6 7.8 6h70.1c3.6 0 6.7-2.3 7.8-6l14.3-54.9H14.7zm66 31.9c0 1.1-.8 1.9-1.7 1.9H52.9c-.9 0-1.7-.9-1.7-1.9v-23c0-1.1.8-2 1.7-2H79c.9 0 1.7.9 1.7 2v23zm12.2 0c0 1.1-.8 1.9-1.7 1.9h-6.9V76.6h6.9c.9 0 1.7.9 1.7 2v23z"/></svg>