<svg xmlns="http://www.w3.org/2000/svg" xmlns:xlink="http://www.w3.org/1999/xlink" width="223.134" height="37.202" viewBox="0 0 181.7 27.5" xmlns:v="https://vecta.io/nano"><g fill="#333"><path d="M54.9 4.8L52 21.6c-.4 0-.8.1-1.2.1h-1.2c-.4 0-.7-.1-.9-.4s-.4-.6-.5-1.1l-.6-2.7-.8-6.2-.7 6.2-.7 4c-.8.1-1.6.1-2.5.1-.3 0-.6-.1-.8-.4s-.4-.6-.5-1.1l-1.4-7.7-1.2-7v-.3c0-.1 0-.2.1-.3s.3-.1.5-.1H42l1.2 7.9.7 6.2h.2c0-2 .2-4 .6-6.2l1-6.4c0-.3.1-.5.2-.6s.2-.2.5-.2h1.9l1.2 7.2c.3 1.6.5 3.6.7 6.2h.2l.6-6.2 1-7.2c0-.1 0-.3.1-.4s.2-.2.5-.2h2.3z"/><use xlink:href="#A"/><use xlink:href="#A" x="8.8"/><path d="M77.3 21.2c-.6-.4-1-1.2-1.3-2.4s-.4-2.8-.4-5.1c0-6.1 1.6-9.2 4.8-9.2.9 0 1.5.1 1.8.4.3.2.4.6.4 1 0 .5-.1 1.1-.4 1.6a1.92 1.92 0 0 0-1.2-.4c-.8 0-1.4.5-1.9 1.4s-.7 2.6-.7 5c0 1.4.1 2.5.2 3.2.1.8.3 1.3.6 1.6s.6.5 1.1.5c.8 0 1.4-.1 1.9-.4.2.5.4 1 .4 1.6s-.3 1-.8 1.3-1.2.5-2.1.5c-1.1 0-1.9-.2-2.4-.6zm7.8.4c-.5-.2-.9-.5-1.2-1.1s-.5-1.3-.5-2.4c0-1.5.3-2.5.8-3.1s1.2-.9 2-.9c.2 0 .5 0 .8.1s.5.1.7.3v-1.7c0-.3-.1-.6-.2-.7-.2-.1-.4-.2-.8-.2s-.9 0-1.5.1c-.5.1-1 .2-1.4.4-.2-.5-.4-1-.4-1.5 0-.2 0-.3.1-.5s.1-.3.2-.4c.2-.2.6-.3 1.3-.5s1.4-.2 2.3-.2c1.1 0 1.9.2 2.3.7.5.4.7 1.2.7 2.3v1.1l-.1 7.7c-.9.5-2 .8-3.5.8-.5-.1-1.1-.1-1.6-.3zm2.6-2.2v-3.1c-.2-.1-.4-.2-.6-.2-.3 0-.5.1-.6.4s-.2.8-.2 1.5c0 .6.1 1 .2 1.3.1.2.3.4.6.4s.5-.1.6-.3zm5.9 2.1c-.4-.3-.6-.6-.7-1.1s-.2-1.1-.2-1.9v-6.6h-1.5v-1.5c0-.3.1-.5.1-.6.1-.1.2-.1.4-.1h.9V6.1c0-.3.1-.5.2-.6s.4-.2.7-.2h1.7v4.3h2v1.5c0 .3-.1.5-.1.6-.1.1-.2.1-.4.1h-1.4v6.6c0 .4 0 .7.1.9s.2.3.5.3c.4 0 .8-.1 1.2-.3l.2 1.3c0 .9-.7 1.3-2.2 1.3-.6-.1-1.2-.2-1.5-.4z"/><use xlink:href="#B"/><path d="M114.7 11.6c-.2.2-.4.2-.6.2-.1 0-.3 0-.5-.1.4.6.6 1.3.6 2.2 0 1.3-.3 2.3-.9 3-.6.6-1.6 1-3 1h-.6c-.2.3-.3.5-.3.7 0 .1.1.2.3.3.2 0 .5.1.9.1l.9.1c1.1.2 1.9.5 2.4.9s.8 1.1.8 2c0 1.2-.4 2.3-1.1 3.1s-1.9 1.2-3.4 1.2c-2.6 0-3.9-.9-3.9-2.7 0-1.1.5-2 1.6-2.7-.8-.3-1.3-.7-1.3-1.3 0-.4.1-.7.4-1.1.2-.4.6-.8 1.2-1.2-1-.6-1.4-1.8-1.4-3.5 0-1.6.3-2.8 1-3.5s1.7-1 3-1c.4 0 .8.1 1.2.2h2.9c.2.4.3.8.3 1.3-.3.4-.4.7-.5.8zm-3 10.2c-.1-.2-.3-.3-.6-.4s-.7-.2-1.4-.2c-.3.2-.5.5-.7.8s-.3.6-.3.9.1.6.3.7c.2.2.6.2 1.1.2s.9-.2 1.2-.5.4-.6.4-1c.1-.1.1-.4 0-.5zm-.5-6.4c.2-.4.3-1.1.3-2.1 0-.8-.1-1.3-.2-1.6-.2-.3-.4-.5-.8-.5s-.6.2-.8.6-.3 1-.3 1.9c0 .8.1 1.4.2 1.8.1.3.4.5.8.5.4-.1.6-.2.8-.6zm5.8 6c-.5-.3-.9-.9-1.2-1.8s-.4-2.2-.4-4c0-4.1 1.3-6.2 4-6.2.9 0 1.6.2 2.1.5.5.4.9 1 1.2 1.9s.4 2.1.4 3.7c0 2.3-.3 3.9-1 4.9-.6 1-1.6 1.5-3 1.5-.9-.1-1.6-.2-2.1-.5zm2.7-2c.1-.2.2-.6.3-1.2s.1-1.5.1-2.6L120 13c-.1-.6-.1-.9-.3-1.1-.1-.2-.3-.3-.6-.3s-.5.3-.7.8-.3 1.6-.3 3.2l.1 2.7c.1.6.2 1 .3 1.1a.55.55 0 0 0 .5.3c.4-.1.6-.2.7-.3zm4.8-9c1.1-.7 2.2-1.1 3.3-1.1.6 0 1 .1 1.3.3.2.2.3.5.3.9 0 .5-.1 1-.3 1.5-.3-.1-.6-.2-.9-.2a.9.9 0 0 0-.5.1c-.2.1-.4.2-.5.3V21c0 .2 0 .3-.1.3-.1.1-.3.1-.8.1h-1.8v-11zm5.5 15.5c-.3-.2-.5-.5-.5-.9 0-.2 0-.5.1-.8s.1-.5.2-.7c.1.1.4.2.7.3s.6.1 1 .1c.3 0 .6-.1.8-.4s.3-.8.4-1.6l-2.6-11.7v-.3c0-.1.1-.2.2-.3.1 0 .4-.1.8-.1h1.6l.7 4.2.4 2.8.2 2c0-.3.1-1 .2-2l.3-2.8.5-3.5c0-.3.1-.5.2-.5.1-.1.3-.1.6-.2h2l-2.7 12.6c-.2 1.1-.5 1.9-.8 2.5s-.6 1-1 1.2-1 .4-1.6.4c-.8 0-1.4-.1-1.7-.3zm12.8-4.5c-.5-.3-.8-.7-.8-1.1 0-.3.1-.6.2-.9s.3-.7.4-1l1 .6c.4.1.8.2 1.2.2.6 0 1.1-.2 1.4-.5s.4-.8.4-1.4c0-.4-.1-.8-.2-1.2s-.4-.8-.9-1.4l-2.2-2.9c-.5-.7-.9-1.3-1.1-1.8s-.3-1.1-.3-1.7a3.69 3.69 0 0 1 1.1-2.7c.7-.7 1.8-1 3.2-1 1.2 0 2 .1 2.5.3s.8.6.8 1c0 .5-.2 1-.6 1.5-.1-.1-.4-.2-.8-.3s-.8-.2-1.2-.2c-.6 0-1.1.1-1.4.3s-.5.5-.5.9.1.7.2 1 .4.7.7 1.1l2.3 3c.6.7.9 1.4 1.1 2s.3 1.2.3 2c0 1.4-.3 2.5-1 3.4s-1.8 1.3-3.4 1.3c-1.1-.1-1.9-.2-2.4-.5zm8-16.3c0-.4.1-.7.2-.8.1-.2.4-.2.7-.3.3 0 .9-.1 1.7-.1v17.2c0 .2 0 .3-.1.3-.1.1-.3.1-.8.1h-1.8V5.1h.1zm4.7 3c-.2-.3-.3-.8-.3-1.5 0-.6.1-1 .4-1.4s.6-.5 1.1-.5.8.1 1 .4.3.7.3 1.4c0 .6-.1 1.1-.4 1.5-.2.4-.6.5-1.1.5s-.8-.1-1-.4zm-.3 2.7c0-.4.1-.7.2-.8.1-.2.4-.2.7-.3.3 0 .9-.1 1.8-.1v11.5c0 .2 0 .3-.1.3-.1.1-.3.1-.8.1h-1.8V10.8zm6 10.7c-.6-.3-1-.8-1.3-1.6s-.5-2-.5-3.6c0-2.3.3-4.1.9-5.1.6-1.1 1.4-1.6 2.4-1.6.6 0 1.1.1 1.4.4V5.1c0-.4.1-.7.2-.8.1-.2.4-.2.7-.3.3 0 .9-.1 1.8-.1v17.2c-1.1.5-2.3.7-3.5.7-.9 0-1.6-.1-2.1-.3zm2.8-2.2v-7.5c-.1-.1-.3-.1-.5-.1s-.4.1-.6.3-.3.6-.4 1.2-.2 1.5-.2 2.7c0 1.4.1 2.4.2 2.9s.4.8.7.8l.8-.3z"/><use xlink:href="#B" x="70.1"/><path d="M176.7 10.4c1.1-.7 2.2-1.1 3.3-1.1.6 0 1 .1 1.3.3.2.2.3.5.3.9 0 .5-.1 1-.3 1.5-.3-.1-.6-.2-.9-.2-.2 0-.3 0-.5.1s-.4.2-.5.3V21c0 .2 0 .3-.1.3-.1.1-.3.1-.8.1h-1.8v-11z"/></g><g fill="#ca417d"><path d="M24.6 11.1c.4.6 1.3.7 1.9.3s.7-1.3.3-1.9L20.3.6C19.9 0 19-.1 18.4.3s-.7 1.3-.3 1.9l6.5 8.9zm-19.1.3c.6.4 1.5.3 1.9-.3l6.5-8.9c.4-.6.3-1.5-.3-1.9s-1.5-.3-1.9.3L5.2 9.5c-.4.6-.3 1.5.3 1.9z"/><path d="M29.6 13.2H2.4c-1.3 0-2.4-1.1-2.4-2.4h0c0-1.3 1.1-2.4 2.4-2.4h27.3c1.3 0 2.4 1.1 2.4 2.4h0c-.1 1.3-1.2 2.4-2.5 2.4z"/><path d="M2.5 13.2L6 26.1c.2.9 1 1.4 1.8 1.4h16.4c.8 0 1.6-.6 1.8-1.4l3.4-12.9H2.5zM18 20.7c0 .2-.2.4-.4.4h-6.1c-.2 0-.4-.2-.4-.4v-5.4c0-.2.2-.5.4-.5h6.1c.2 0 .4.2.4.5v5.4zm2.9 0c0 .2-.2.4-.4.4h-1.6v-6.3h1.6c.2 0 .4.2.4.5v5.4z"/></g><defs><path id="A" d="M56 21.4c-.5-.3-.9-.9-1.2-1.8s-.4-2.2-.4-4c0-4.1 1.3-6.2 4-6.2.9 0 1.6.2 2.1.5.5.4.9 1 1.2 1.9s.4 2.1.4 3.7c0 2.3-.3 3.9-1 4.9-.6 1-1.6 1.5-3 1.5-.8-.1-1.6-.2-2.1-.5zm2.8-2c.1-.2.2-.6.3-1.2s.1-1.5.1-2.6l-.1-2.6c-.1-.6-.1-.9-.3-1.1-.1-.2-.3-.3-.6-.3s-.5.3-.7.8-.3 1.6-.3 3.2l.1 2.7c.1.6.2 1 .3 1.1s.3.3.5.3c.4-.1.5-.2.7-.3z"/><path id="B" d="M104.8 18.6c.1.5.2 1.1.2 1.8 0 .5-.3.8-1 1.1-.6.3-1.5.4-2.4.4-1.2 0-2.1-.4-2.8-1.2-.6-.8-1-2.3-1-4.4 0-1.8.2-3.2.6-4.2s.9-1.7 1.5-2c.6-.4 1.3-.5 2.2-.5 2 0 3.1 1.3 3.1 3.9 0 1.4-.1 2.5-.3 3.4-.9.2-2.3.3-4.2.3 0 .8.2 1.4.4 1.7s.6.5 1.2.5c.8-.1 1.6-.4 2.5-.8zm-3.8-6.1c-.2.5-.3 1.4-.3 2.5.9 0 1.5-.1 1.8-.2.1-.2.1-.7.1-1.2 0-.7-.1-1.2-.2-1.5-.1-.2-.3-.3-.6-.3-.3-.1-.6.1-.8.7z"/></defs></svg>