<?xml version="1.0" encoding="utf-8"?>
<!-- Generator: Adobe Illustrator 17.0.0, SVG Export Plug-In . SVG Version: 6.00 Build 0)  -->
<!DOCTYPE svg PUBLIC "-//W3C//DTD SVG 1.1//EN" "http://www.w3.org/Graphics/SVG/1.1/DTD/svg11.dtd">
<svg version="1.1" id="Layer_1" xmlns="http://www.w3.org/2000/svg" xmlns:xlink="http://www.w3.org/1999/xlink" x="0px" y="0px"
	 width="612px" height="792px" viewBox="0 0 612 792" enable-background="new 0 0 612 792" xml:space="preserve">
<title></title>
<g id="folder_filter_file_folder_document_format">
	<path fill="#CC2B5E" d="M551.071,192.607H274.66l-75.255-75.459c-3.838-3.807-9.034-5.93-14.441-5.898H62.929
		c-33.699,0-61.018,27.319-61.018,61.018v447.464c0,33.699,27.319,61.018,61.018,61.018h488.143
		c33.699,0,61.018-27.319,61.018-61.018V253.625C612.089,219.926,584.77,192.607,551.071,192.607z M82.268,233.286v406.786H61.929
		c-11.233,0-20.339-9.107-20.339-20.339V172.268c0-11.233,9.107-20.339,20.339-20.339h113.697l40.679,40.679h-93.358
		C100.48,192.607,82.268,210.819,82.268,233.286z M509.393,314.643h-20.339v61.018c-0.027,4.588-1.604,9.032-4.474,12.61
		l-76.883,96.205v53.899c-0.023,7.659-4.346,14.656-11.187,18.102l-81.357,40.679c-10.032,5.055-22.261,1.021-27.316-9.011
		c-1.421-2.82-2.166-5.933-2.176-9.091v-94.577l-76.882-96.205c-2.871-3.579-4.448-8.023-4.475-12.611v-61.017h-20.339
		c-11.233,0-20.339-9.107-20.339-20.339s9.107-20.339,20.339-20.339h325.429c11.233,0,20.339,9.107,20.339,20.339
		S520.625,314.643,509.393,314.643z"/>
</g>
<path fill="#CC2B5E" d="M672.5,203.5"/>
</svg>
