<svg xmlns="http://www.w3.org/2000/svg" viewBox="0 0 82.5 90.6"  xmlns:v="https://vecta.io/nano"><path fill="#fff" stroke="#e2e2e2" stroke-width=".562" stroke-miterlimit="10" d="M.3.3h81.9v90H.3z"/><path d="M25.5 14.7h-.7c-.1 0-.1 0-.2-.1l-.1-.1-.3-.8h-1.7l-.3.8-.1.1s-.1.1-.2.1h-.7l1.7-4.4h.9l1.7 4.4zM24 13l-.5-1.3c0-.1-.1-.2-.1-.2 0-.1-.1-.2-.1-.3 0 .1-.1.2-.1.3s-.1.2-.1.2l-.4 1.3H24zm4.8.6s.1 0 .1.1l.4.4c-.2.2-.4.4-.7.5s-.6.2-.9.2-.6-.1-.9-.2-.5-.3-.7-.5-.3-.4-.4-.7-.1-.6-.1-.9c0-.2 0-.4.1-.6 0-.2.1-.4.2-.5s.2-.3.3-.4.3-.2.4-.3.3-.2.5-.2.4-.1.6-.1h.5c.1 0 .3.1.4.1s.2.1.3.2.2.1.3.2l-.2.4-.1.1h-.1s-.1 0-.1-.1-.1-.1-.2-.1-.2-.1-.3-.1-.2-.1-.4-.1-.3 0-.5.1a1.38 1.38 0 0 0-.4.3c-.1.1-.2.3-.3.5s-.1.4-.1.6 0 .4.1.6.2.3.3.5a1.38 1.38 0 0 0 .4.3c.2.1.3.1.5.1h.3c.1 0 .2 0 .2-.1.1 0 .1-.1.2-.1s.1-.1.2-.1c0-.1 0-.1.1-.1zm4 0s.1 0 .1.1l.4.4c-.2.2-.4.4-.7.5s-.6.2-.9.2-.6-.1-.9-.2-.5-.3-.7-.5-.3-.4-.4-.7-.1-.6-.1-.9c0-.2 0-.4.1-.6 0-.2.1-.4.2-.5s.2-.3.3-.4.3-.2.4-.3.3-.2.5-.2.4-.1.6-.1h.5c.1 0 .3.1.4.1s.2.1.3.2.2.1.3.2l-.3.4-.1.1h-.1s-.1 0-.1-.1-.1-.1-.2-.1-.2-.1-.3-.1c-.1-.1-.2-.1-.4-.1a.9.9 0 0 0-.5.1 1.38 1.38 0 0 0-.4.3c-.1.1-.2.3-.3.5s-.1.4-.1.6 0 .4.1.6.2.3.3.5c.1.1.2.2.4.3a.9.9 0 0 0 .5.1h.3c.1 0 .2 0 .2-.1.1 0 .1-.1.2-.1s.1-.1.2-.1c0-.1.1-.1.2-.1-.1 0-.1 0 0 0zm1.9-2.6v1.1h1.5v.7h-1.5V14h1.9v.7h-2.8v-4.4h2.8v.7h-1.9zm5 .2c-.1 0-.1 0 0 0-.1.1-.2.1-.2.1h-.1s-.1-.1-.2-.1-.1-.1-.2-.1h-.3c-.2 0-.4 0-.5.1-.2 0-.2.1-.2.3 0 .1 0 .2.1.2l.2.2c.1 0 .2.1.3.1s.2.1.4.1.2.1.4.2c.1.1.2.1.3.2s.2.2.2.3c.1.1.1.3.1.5s0 .4-.1.6-.2.3-.3.5-.3.2-.5.3-.4.1-.6.1h-.4c-.1 0-.3-.1-.4-.1s-.2-.1-.4-.2-.3-.3-.3-.4l.3-.4.1-.1h.1c.1 0 .1 0 .2.1.1 0 .1.1.2.1s.2.1.3.1.2.1.4.1.4 0 .5-.1.2-.2.2-.4c0-.1 0-.2-.1-.3-.2-.1-.3-.2-.4-.2s-.2-.1-.3-.1-.2-.1-.4-.1-.2-.1-.4-.1c-.1-.1-.2-.1-.3-.2s-.2-.2-.2-.3c-.1-.1-.1-.3-.1-.5s0-.3.1-.5.2-.3.3-.4.3-.2.5-.3.4-.1.6-.1c.3 0 .5 0 .7.1l.6.3-.2.4zm3.3 0c-.1.1-.2.1-.2.1h-.1s-.1-.1-.2-.1-.1-.1-.2-.1H42c-.2 0-.4 0-.5.1s-.2.2-.2.4c0 .1 0 .2.1.2l.2.2c.1 0 .2.1.3.1s.2.1.4.1.2.1.4.2c.1.1.2.1.3.2s.2.2.2.3c.1.1.1.3.1.5s0 .4-.1.6-.2.3-.3.5-.3.2-.5.3-.4.1-.6.1h-.4c-.1 0-.3-.1-.4-.1s-.2-.1-.4-.2-.2-.1-.3-.2l.3-.4.1-.1h.1c.1 0 .1 0 .2.1.1 0 .1.1.2.1s.2.1.3.1.2.1.4.1.4 0 .5-.1.2-.2.2-.4c0-.1 0-.2-.1-.3l-.2-.2c-.1 0-.2-.1-.3-.1s-.2-.1-.4-.1-.2-.1-.4-.1c-.1-.1-.2-.1-.3-.2s-.2-.2-.2-.3c-.1-.1-.1-.3-.1-.5s0-.3.1-.5.2-.3.3-.4.3-.2.5-.3.4-.1.6-.1c.3 0 .5 0 .7.1l.6.3-.4.1zm5.2 1.3c0 .3-.1.6-.2.9s-.3.5-.5.7-.4.4-.7.5-.6.2-.9.2-.6-.1-.9-.2-.5-.3-.7-.5-.3-.4-.5-.7c-.1-.3-.2-.6-.2-.9s.1-.6.2-.9.3-.5.5-.7.4-.4.7-.5.6-.2.9-.2.6.1.9.2.5.3.7.5.3.4.5.7.2.6.2.9zm-.9 0c0-.2 0-.4-.1-.6s-.1-.3-.3-.5a1.38 1.38 0 0 0-.4-.3c-.1 0-.3-.1-.5-.1s-.4 0-.5.1c-.2.1-.3.2-.4.3s-.2.3-.3.5-.1.4-.1.6 0 .4.1.6.1.3.3.5a1.38 1.38 0 0 0 .4.3.9.9 0 0 0 .5.1c.2 0 .4 0 .5-.1s.3-.2.4-.3.2-.3.3-.5.1-.4.1-.6zm5.1 2.2h-.8c-.2 0-.3-.1-.3-.2l-.8-1.3c0-.1-.1-.1-.1-.1h-.5v1.7H49v-4.4h1.4c.3 0 .6 0 .8.1s.4.2.5.3a1.38 1.38 0 0 1 .3.4c.1.2.1.3.1.5 0 .1 0 .3-.1.4s-.1.2-.2.4l-.3.3c-.1.1-.2.1-.4.2.1 0 .1.1.2.1s.1.1.1.2l1 1.4zm-2.1-2.3c.1 0 .3 0 .4-.1.1 0 .2-.1.3-.2l.2-.2v-.3c0-.2-.1-.4-.2-.5s-.3-.2-.6-.2h-.5v1.4h.4zm3.5 2.3h-.9v-4.4h.9v4.4zm1.9-3.7v1.1h1.5v.7h-1.5V14h1.9v.7h-2.8v-4.4h2.8v.7h-1.9zm5 .2c-.1 0-.1 0 0 0-.1.1-.2.1-.2.1h-.1s-.1-.1-.2-.1-.1-.1-.2-.1h-.3c-.2 0-.4 0-.5.1-.2 0-.2.1-.2.3 0 .1 0 .2.1.2l.2.2c.1 0 .2.1.3.1s.2.1.4.1.2.1.4.2c.1.1.2.1.3.2s.2.2.2.3c.1.1.1.3.1.5s0 .4-.1.6-.2.3-.3.5-.3.2-.5.3-.4.1-.6.1h-.4c-.1 0-.3-.1-.4-.1s-.2-.1-.4-.2-.3-.3-.3-.4l.3-.4.1-.1h.1c.1 0 .1 0 .2.1.1 0 .1.1.2.1s.2.1.3.1.2.1.4.1.4 0 .5-.1.2-.2.2-.4c0-.1 0-.2-.1-.3-.2-.1-.3-.2-.4-.2s-.2-.1-.3-.1-.2-.1-.4-.1-.2-.1-.4-.1c-.1-.1-.2-.1-.3-.2s-.2-.2-.2-.3c-.1-.1-.1-.3-.1-.5s0-.3.1-.5a1.38 1.38 0 0 1 .3-.4c.1-.1.3-.2.5-.3s.4-.1.6-.1c.3 0 .5 0 .7.1l.6.3-.2.4z" fill="#444"/><path fill="#b33d74" d="M49.5,29.3H32.9c-2.5,0-4.5-2-4.5-4.5v0c0-2.5,2-4.5,4.5-4.5h16.6c2.5,0,4.5,2,4.5,4.5v0   C54,27.3,52,29.3,49.5,29.3z"/><path d="M32.7 26.2c-.1-.1-.2-.1-.2-.2v-.2c0-.1.1-.1.1-.2.1 0 .1.1.2.1h.3c.1 0 .2 0 .3-.1s.1-.2.1-.3v-.2c0-.1-.1-.2-.2-.3l-.5-.6a.76.76 0 0 1-.2-.4c0-.1-.1-.2-.1-.4s.1-.4.2-.6c.2-.1.4-.2.7-.2.2 0 .4 0 .5.1.1 0 .2.1.2.2s0 .2-.1.3c0 0-.1 0-.2-.1s-.2 0-.3 0-.2 0-.3.1c-.1 0-.1.1-.1.2v.2c0 .1.1.1.1.2l.5.6c.1.2.2.3.2.4s.1.3.1.4c0 .3-.1.5-.2.7s-.4.3-.7.3c-.1.1-.3.1-.4 0zm3.4 0h-.6v-1.6H35v1.6h-.6v-3.5h.6v1.4h.5v-1.4h.6v3.5zm.9 0c-.1-.1-.2-.3-.3-.5-.1-.3-.1-.6-.1-1.1 0-.4 0-.8.1-1.1s.2-.4.3-.6c.1-.1.3-.2.5-.2s.4.1.5.2.2.3.3.5c.1.3.1.6.1 1.1s0 .8-.1 1.1-.2.5-.3.6-.3.2-.5.2c-.2-.1-.3-.1-.5-.2zm.8-.6c0-.1.1-.2.1-.4v-1.4c0-.1 0-.3-.1-.4 0-.1-.1-.1-.2-.1s-.1 0-.2.1-.1.2-.1.4v1.5c0 .2 0 .3.1.3 0 .1.1.1.2.1s.1 0 .2-.1zm2.3-2.7l.3.3c.1.1.1.4.1.6 0 .4-.1.7-.3.9s-.4.2-.7.2h0v1.3h-.6v-3.5h.6c.3.1.5.1.6.2zm-.2 1.4c0-.1.1-.3.1-.5s0-.3-.1-.4-.1-.1-.2-.1h-.1v1.2h.1c.1-.1.1-.2.2-.2zm3.4-1.5h.6v3.5h-.5l-.5-1.3c-.1-.2-.2-.6-.3-1.1 0 .4.1.8.1 1.2v1.3h-.6V23c0-.1 0-.1.1-.1h.4l.5 1.3c.1.2.2.6.3 1.1 0-.4-.1-.8-.1-1.1v-1.4zm1.4 3.4c-.1-.1-.2-.3-.3-.5-.1-.3-.1-.6-.1-1.1 0-.4 0-.8.1-1.1s.2-.4.3-.6c.1-.1.3-.2.5-.2s.4.1.5.2.2.3.3.5c.1.3.1.6.1 1.1s0 .8-.1 1.1-.2.5-.3.6-.3.2-.5.2c-.2-.1-.4-.1-.5-.2zm.7-.6c0-.1.1-.2.1-.4v-1.4c0-.1 0-.3-.1-.4 0-.1-.1-.1-.2-.1s-.1 0-.2.1 0 .2 0 .4v1.5c0 .2 0 .3.1.3s.1.1.2.1.1 0 .1-.1zm4.4-2.8l-.6 3.5h-.4c-.1 0-.1 0-.2-.1 0-.1-.1-.1-.1-.2l-.1-.6c0-.2-.1-.7-.2-1.3-.1.6-.1 1-.2 1.3l-.1.8h-.5c-.1 0-.1 0-.2-.1 0-.1-.1-.1-.1-.2-.1-.3-.2-.9-.3-1.6l-.2-1.5v-.2h.6l.2 1.6c.1.5.1.9.1 1.3h0c0-.4.1-.8.1-1.3l.2-1.3v-.1h.5l.3 1.5c.1.3.1.8.1 1.3h0c0-.4.1-.9.1-1.3l.2-1.5v-.1h.8z" fill="#fff"/><path fill="#f2f2f2" d="M.6 37.5H82V90H.6z"/><path fill="#fff2db" d="M60.5 68.1c0-.2-.1-.4-.2-.5s-.2-.1-.3-.1c0-.1.1-.3.1-.5l.1-.1c0-.1 0-.1.1-.2v-.3c0-.1 0-.2.1-.2.2-.7.1-1.5 0-2.2 0-.4-.2-.8-.4-1.2.1-.2.2-.5.3-.7.2-.3 0-.7-.4-.8-.2 0-.3-.1-.5-.1-.1-.3-.3-.5-.7-.7-.4-.3-1.1-.5-1.7-.6-.1-.1-.2-.1-.3-.2-.2-.2-.4-.2-.6 0s-.2.3-.3.5c-.2.2-.3.4-.3.7h-.1c-.1 0-.1 0-.2-.1-1-.2-2.2.4-2.9 1-1.7 1.5-2.2 4.4-1.3 6.4.1.2.2.4.4.6-.1.2-.2.3-.3.5-.1.3 0 .6.3.7.6.1 1.2.4 1.7.7.4.3.8.8 1.3.8.5.1 1-.4 1.3-1 .5 0 .9-.1 1.3-.2 1-.3 1.7-1 2.2-1.8.1.1.2.1.3.2.6.2 1.1-.2 1-.6zm-3.1-6.8c.1.1.2.2.3.2h-.1c-.2-.1-.5-.3-.8-.4.3 0 .4.1.6.2z"/><path d="M57.3 59.9c.4.3.8.5 1.2.7s1 .6 1.5.7c.1 0 .3 0 .3-.1.4-.6.7-1.3.9-2 .1-.2.2-.5.3-.8.2-.4.4-.8.5-1.2.4-.2.5-.7.4-1.1-.2-.5-1-.9-1.5-1.1h-.1c-.4-.3-1-.5-1.4-.2l-.3.3c-.1 0-.2.1-.2.2l-2 3.6c-.1.1-.1.3-.1.4l-.2.2c-.2.1 0 .4.2.4.2-.1.3 0 .5 0zm-3.1 11.6c-.3-.1-.6-.3-1-.4h-.1c-.1-.2-.3-.4-.6-.4h-.1c-.1-.1-.2-.2-.3-.2h-.3c-.1-.3-.4-.3-.7-.1-.3.3-.5.8-.7 1.2-.3.6-.6 1.1-.8 1.7-.3.6-.9 1.4-.7 2.1.1.4.5.7 1 .8.1.2.2.3.4.3.1.1.2.2.4.2.4 0 .7.1 1.1-.1s.6-.8.9-1.1c.6-1 1.2-2.1 1.7-3.2.1-.4 0-.7-.2-.8z" fill="#e6971c"/><path fill="#deceb7" d="M59.7 67.9c0-.1.1-.1.1-.2 0 0 .1 0 .1-.1l.3-.8c0-.1 0-.2-.1-.2.1-.3.1-.5.2-.8 0 0 .1-.1.1-.2.2-.8-.1-1.8-.7-2.6l.1-.1c.2-.6.7-1.2 0-1.6-1.1-.6-2.4-1.3-3.6-1.7 0-.1-.1-.1-.2 0-.1 0-.1 0-.1.1-.1.1-.1.2-.2.2a.78.78 0 0 1-.4.4c-.1.1-.1.2 0 .3-.4 0-1 .1-1.3.3-.8.3-1.5.8-2.1 1.4-1 1.1-1.8 3.3-.9 4.7.1.4.3.8.5 1.2-.2.4-.5.8-.6 1.3 0 .1 0 .2.1.2.4.3.9.5 1.3.7l1.8 1c.7.4 1-.3 1.5-.8l.1-.1v-.1c1.5-.1 3.2-.9 3.6-2.1.3-.1.4-.2.4-.4zM56.3 60c.6.4 1.3.7 1.9 1a4.67 4.67 0 0 1 1 .5c.6.4.5.7.3 1.2a5.73 5.73 0 0 0-1.1-1.1c-.6-.4-1.6-.9-2.5-1 .2 0 .4-.3.4-.6zm-.9 1.3c.3 0 .6 0 .9.1.6.1 1.2.4 1.7.8 1 .7 1.7 1.9 1.8 3.2 0 .4-.1.7-.2 1.1-.1 0-.1.1-.2.2-.1.4-.2.7-.4 1v.2c-.2.2-.4.5-.6.7-.8.6-1.7 1-2.6 1.4-.4 0-.9-.1-1.4-.1-.4-.5-1.1-.6-1.6-1-.1-.1-.2-.2-.2-.3-.2-.3-.3-.5-.4-.8-.2-.3-.4-.5-.5-.8 0-.2-.1-.4-.1-.6-.1-1.3.3-2.5 1-3.5.8-1.1 1.8-1.4 2.8-1.6zm-.8 9.9c-.2 0-1.1-.6-1.3-.7-.4-.2-.9-.4-1.3-.7-.2-.1-.5-.2-.5-.6 0-.2.2-.5.2-.8.2.2.4.5.7.6.3.9 1.8 1.3 2.9 1.3-.1.4-.4.9-.7.9z"/><path fill="#fffffa" d="M59.1 65.5c-.1-.3-.1-.5-.3-.7 0-.1-.1 0-.1.1.3.4.2.9 0 1.3 0-.1-.1-.3-.1-.4.1-.4.1-.8 0-1.2 0-.1-.2-.1-.2 0v.9l-.1-.1c0-.3 0-.5-.1-.8 0-.1-.1-.1-.1 0v.6c-.1-.1-.2-.1-.2-.2v-.7c0-.1-.1-.1-.1 0 0 .2 0 .4-.1.6-.1 0-.2-.1-.3-.1 0-.2.1-.4 0-.6 0 0-.1-.1-.1 0v.2h-.1c0 .1-.1.3-.1.4-.1 0-.2 0-.3.1.1-.3.1-.5.2-.7 0-.1-.1-.1-.1 0-.1.3-.2.7-.4 1a1.38 1.38 0 0 0-.3.4c-.4.1-1 .3-1.3-.1 0 0-.1-.1-.1-.2 0-.2 0-.5.1-.7.1-.1.3-.2.5-.3h.2v-.1h-.4c.1-.1.2-.1.3-.1s.1-.1 0-.1c-.2 0-.4.1-.6.3-.1 0-.2.1-.3.2 0 .1-.1.1-.1.2 0 0 0 .1-.1.1 0-.2.1-.4.2-.6a4.44 4.44 0 0 1 1.1-.8c.1 0 0-.2-.1-.1-.3.1-.6.3-.9.5 0-.1 0-.2.1-.2v-.1c.3-.2.5-.3.7-.4V63c-.3.1-.5.2-.7.3 0-.1-.1-.2-.1-.2a.76.76 0 0 1 .4-.2c.1 0 0-.1-.1-.1-.1.1-.3.1-.5.2a.76.76 0 0 0-.4-.2 2.47 2.47 0 0 1 .9-.4v-.1c-.4.1-.8.3-1.1.5-.9.3-1.4 1.2-1.6 2-.3 1.1 0 2.2.7 3 .9.9 2.2 1.2 3.3.8.6.1 1.3-.5 1.6-.9.8-.5 1.1-1.3 1.2-2.2zm-3 .4c-.1 0-.1.1-.2.2h-.2s0-.1-.1 0h-.3c-.1 0-.2-.1-.3-.2.3.2.7.1 1.1 0zm-1.5-.5h0v.3c.1-.1 0-.2 0-.3z"/><path d="M60.1 66.4c0-.2-.2-.2-.3-.1-.1.4-.3.7-.4 1.1 0 .1.1.1.1 0 .4-.2.5-.6.6-1zm-.9 1.8c0-.1-.1-.1-.1-.1l-.3.3c-.1.1-.2.2-.2.3 0 0 0 .1.1.1.2-.1.4-.4.5-.6zm-7.7-1.9c0-.1 0-.1 0 0 0-.1-.1-.2-.2-.2s-.1.1-.1.2.1.1.2.1l.1-.1zm.2.8c0-.1-.1-.2-.1-.3-.1-.1-.2 0-.2.1s0 .3.1.4c0 .1.1.2.2.2.1-.2 0-.3 0-.4z" fill="#fffdf4"/><path d="M52 76.1a.55.55 0 0 0-.3-.5c-.5-.2-.9-.4-1.3-.7-.4-.2-.7-.6-1.1-.5-.2 0-.4.2-.4.4 0 .5.4.8.8 1 .5.3.9.6 1.5.8.2.1.5.1.7-.1 0-.1.1-.2.1-.4zm10.1-19.9c-.4-.3-.9-.7-1.3-.9s-.8-.5-1.2-.4c-.8 0-.8 1.3 0 1.3.1 0 .4.2.4.3.2.1.3.2.5.3l.9.6c.5.3 1.3-.8.7-1.2z" fill="#c67c08"/><path fill="#fcab2c" d="M57.5 59.6c-.2.2-.5-.1-.4-.3.1-.6.6-1.1.8-1.6l.9-1.6c.1-.2.4 0 .4.2-.1.6-.5 1.3-.7 1.8-.3.6-.5 1.1-1 1.5zm-6.3 12.7c.3-.5.7-1.1.5-1.7 0-.1-.1-.1-.2-.1-.6.2-.7.9-1 1.4-.3.7-.7 1.4-.9 2.1 0 .2.3.4.4.2.6-.5.9-1.3 1.2-1.9z"/><path d="M62.1 57.4l.3-.8c.1-.3.2-.4-.1-.7-.4-.4-.9-.8-1.5-1-.4-.2-1.1-.5-1.4-.3-.2.1-.3.3-.4.5l-.5.8-2.1 3.7c0 .1.1.1.1.1l1.7-3c.3-.5.5-1 .8-1.4.1-.1.1-.3.2-.3.2-.3.4-.3.7-.2l1 .3c.4.2 1.5.8 1.4 1.3 0 .3-.2.6-.3.9l-.3.8-1.7 3.3c-.1.1.1.2.2.1.8-1.4 1.4-2.7 1.9-4.1zm-9.7 18.4c-.2.2-.3.5-.5.7-.2.3-.2.4-.6.3-.6-.1-1.1-.3-1.6-.6-.3-.2-.9-.6-1-1 0-.2.1-.4.2-.6l.4-.8 1.9-3.7c0-.1.1 0 .1 0l-1.5 3c-.2.5-.5 1-.7 1.4-.1.1-.1.2-.2.4-.1.4 0 .4.2.6s.5.4.8.6c.4.2 1.4.8 1.8.4.2-.2.4-.5.6-.8.2-.2.3-.5.5-.7.6-1 1.2-2.1 1.7-3.2 0-.1.2 0 .2.1-.7 1.4-1.5 2.7-2.3 3.9z" fill="#804b00"/><g fill="#3c2a12"><path d="M55.6 65.4l-.2-3.1c-.1 1 0 2.1.1 3.2 0-.1.1-.1.1-.1z"/><path d="M55.9 65.7c0-.1 0-.3-.2-.3s-.4.1-.4.3c0 .1 0 .1.1.2h.4c0-.1 0-.2.1-.2z"/><path d="M55.2 66.8c.1-.3.3-.6.3-.9-.2.2-.4.6-.5 1-.1.3-.3.7-.4 1h.1c.2-.4.3-.8.5-1.1zm3.6-3.3c-.2 0-.3.1-.4.2-.2.1-.3.2-.5.3 0 0 0 .1.1.1.2-.1.3-.2.5-.3.1 0 .3-.1.3-.3.1.1.1 0 0 0zm.5 1.8c-.1-.1-.3 0-.5 0s-.3.1-.5.1v.1h.5c.2 0 .4 0 .5-.2 0 .1 0 .1 0 0zm-.5 1.9c-.1-.1-.2-.1-.3-.2a.76.76 0 0 0-.4-.2c-.1 0-.1.1 0 .1.1.1.2.2.4.3 0 0 .1.1.3 0zm-1.3 1.5c-.1-.1-.1-.3-.2-.4s-.1-.3-.2-.4a.76.76 0 0 0 .2.4c.1.2.2.3.2.5-.1 0 0 0 0-.1zm-1.7.6v-1h-.1v.5c0 .2 0 .3.1.5-.1 0 0 0 0 0zm-1.5-1.2c0-.1 0-.1 0 0-.2.1-.2.2-.3.4 0 .1-.1.1-.1.2s-.1.2-.1.2h-.1v.1h.1c.3-.3.5-.6.5-.9zm-1-1c-.3.1-.6.3-.9.6 0 0 0 .1 0 0 .4-.1.7-.3.9-.6.1.1.1 0 0 0zm-.4-1.4h-.5c-.2 0-.4 0-.5.1.2.1.4 0 .6 0 .1.1.3.1.4-.1.1.1.1 0 0 0zm.5-1.4c-.1-.1-.3-.2-.5-.3s-.3-.2-.5-.2c-.1 0-.1.1 0 .1.2.1.3.2.5.3.1 0 .3.1.5.1 0 .1 0 0 0 0zm.9-.9l-.3-.6c-.1-.1-.1-.3-.2-.4 0 .1.1.3.1.5.1.2.2.4.2.6.1 0 .2 0 .2-.1zm2.8-.3c.1-.3.2-.6.4-.8 0-.1-.1-.1-.1-.1-.2.3-.3.6-.4.9-.1.1 0 .1.1 0 0 .1 0 0 0 0zm-1-3.5c0-.1-.1-.1-.1 0a4.67 4.67 0 0 0-.5 1c0 .1.1.1.1.1l.5-1.1zm4.1 2.8l.3-.6s0-.1-.1-.1l-.3.6c-.1.2-.2.4-.2.5 0 0 .1.1.1 0 .1 0 .1-.2.2-.4z"/><path d="M56.1 59.6z"/><path d="M60.5 61.8c0-.3-.5-.5-.8-.6l-1.4-.8c-.5-.2-1-.5-1.5-.7-.2-.1-.6-.4-.8-.2 0 0 0 .1.1.1.1-.1.5.1.6.2.2.1.4.2.5.2.4.2.7.3 1 .5s.7.3 1 .5c.2.1.3.2.5.3.1.1.6.2.6.4s.2.2.2.1z"/><path d="M60 61.8c-.6-.4-1.2-.7-1.8-1l-1.8-.8c-.1 0-.1.1 0 .1l1.8.9c.6.3 1.2.6 1.7 1 .1 0 .2-.2.1-.2zm-6.2-.6c.8-.4 1.7-.5 2.6-.4-1.8-.4-3.8.7-4.7 2.2-.5.8-.8 1.9-.8 2.9 0 .6.1 1.1.3 1.6.1.5.3 1 .6 1.3 0 0 .1 0 .1-.1-.6-.8-.9-1.9-.9-2.9s.2-2 .8-2.8c.5-.8 1.2-1.4 2-1.8z"/><path d="M57.7 69.9l-.8.3c-.3.1-.5.1-.8.2-.5.1-1.1 0-1.6-.1-1.2-.3-2.1-1-2.9-1.9 0 0-.1 0 0 0 .6 1 1.7 1.7 2.9 2 .5.1 1.1.2 1.7.1.5-.1 1.1-.2 1.5-.6.1.1 0 0 0 0z"/><path d="M60.2 67.2c.1-.4.3-.8.3-1.2h-.1l-.3 1.3c-.1.4-.3.8-.6 1.1a5.51 5.51 0 0 1-2 1.7v.1c.8-.3 1.5-.9 2-1.6.3-.5.6-.9.7-1.4zm.1-2.9c0-.5-.3-1-.6-1.4-.3-.5-.7-.8-1.1-1.1-.8-.6-1.8-1.1-2.8-1v.1c1 0 2 .4 2.8 1.1a5.73 5.73 0 0 1 1.1 1.1c.2.3.3.8.6 1.2z"/><path d="M60.5 65c0-.4-.1-.8-.3-1.1h-.1c.1.4.2.8.2 1.2v1.1c.3-.4.2-.8.2-1.2zm0 2.7c-.1-.1-.3-.2-.5-.2 0 0-.1 0 0 .1s.3.2.4.3c.1-.1.2-.2.1-.2z"/><path d="M60.1 68.6c-.2-.1-.4-.2-.6-.2l.6.3c0 .1.1-.1 0-.1zm.5-.3c.1-.2.2-.5 0-.6 0 0-.1 0-.1.1.1.2-.1.7-.3.8 0 0-.1.1 0 .1.1.1.3-.3.4-.4zm-.3-.4s-.1-.1-.2-.1h-.2v.1c.1 0 .1.1.2.1.1-.1.2 0 .2-.1.1.1.1 0 0 0z"/><path d="M60.2 68.1c0-.1-.1-.1-.1-.1-.1 0-.1-.1-.2-.1 0 0-.1 0 0 .1 0 0 .1.1.2.1h.1zm-8.6.2c0-.1 0-.1 0 0-.4.4-.6.9-.8 1.5 0 .1.1.2.1.1.3-.6.5-1.1.7-1.6z"/><path d="M54.9 71.8l-2-1.1c-.6-.3-1.3-.7-2-.9 0 0-.1.1 0 .1.6.4 1.4.7 2 1 .7.3 1.3.7 2 1.1 0 0 .1-.1 0-.2z"/><path d="M55.8 70.5c-.2.2-.4.5-.6.7s-.3.4-.4.7c0 .1.1.1.1.1a3.04 3.04 0 0 0 .5-.7c.2-.4.4-.6.4-.8.1 0 .1-.1 0 0zm-.9.9c-.6-.4-1.2-.7-1.8-1l-1.8-.8c-.1 0-.1.1 0 .1l1.8.9c.6.3 1.2.7 1.7 1 .1 0 .2-.2.1-.2z"/><path d="M53.9 71.4zm-.2-.1c0-.1-.1 0 0 0z"/></g><path fill="#e6971c" d="M54.8 61.6c-1.4.3-2.5 1.2-3 2.5-.2.7-.3 1.5-.2 2.2s.4 1.3.8 1.9c0 0 0 .1-.1 0-.9-1.2-1.1-2.9-.6-4.3.6-1.2 1.8-2.2 3.1-2.3.1-.1.1-.1 0 0zm4.4 5.9c-.6 1.1-1.5 1.8-2.7 2.1-.7.2-1.3.2-1.9 0s-1.1-.5-1.6-.9c.5.4 1.1.8 1.7.9.7.2 1.3.1 2-.1 1-.2 2.2-.9 2.5-2 0 0 0-.1 0 0zm-.1-4.1c-.7-1-1.6-1.8-2.9-2a4.97 4.97 0 0 1 2.9 2c.6 1 .7 2.1.4 3.3 0 0 .1.1.1 0 .5-1.1.2-2.4-.5-3.3z"/><path fill="#e4251d" d="M38.7 69.8c0 .2.7.4.7.5-.1 2.6-.7 4.6-1.3 4.6s-7.2-2.3-7.2-5.1 6.8-5.1 7.4-5.1.9 2 1 4.6c.1.1-.6.3-.6.5z"/><path fill="#d81613" d="M39 73.2c-.3.4-.8.8-1.3.8-.8 0-1.6-.4-2.3-.8-.6-.4-1.3-.8-1.8-1.4-.1-.2-.7-.9-.3-1 .3-.1.7 0 1-.1.1 0 .4-.3.2-.4-.1-.1-.2-.1-.3-.2-.5-.2-1-.2-1.4-.3v-.1c.1-.3.4-.5.7-.6l.6-.3c.3-.2.2-.5-.1-.4-.3 0-1.3.4-1.4 0-.1-.6.8-1.1 1.1-1.4l1-.7c.1-.1.4-.3 0-.2h-.1c-1.8.9-3.6 2.2-3.6 3.7 0 2.8 6.5 5.1 7.2 5.1.4 0 .7-.7 1-1.9l-.2.2z"/><path fill="#e63b1d" d="M38.7 69.8c0-.2.7-.4.7-.5-.1-2.6-.4-4.6-1-4.6-.2 0-.8.2-1.7.5.5-.1 1.1-.2 1.6.1.4.3.5.8.6 1.2.1.6.1 1.3 0 1.9-.1.4-.1.9-.5 1.2h-.1c0 .2 0 .3.1.4.2.3.6.6.7 1 .1.3.1.6.1.8v.3c.1-.6.1-1.2.1-1.8.1-.2-.6-.4-.6-.5z"/><path d="M37.7 67.1c-.6.3-1.3.3-1.9.6-.3.1-1.2.3-1.2.8 0 .1.1.2.2.1.2-.1.3-.3.5-.4.3-.2.6-.3.9-.4.5-.3 1.1-.4 1.5-.7h0zm-.9 1.7l-1.6.3c-.3.1-.9.1-1.1.4 0 0 0 .1.1.1.2 0 .3-.1.5-.1.2-.1.5-.1.8-.2.5 0 .9-.2 1.3-.5.1.1.1 0 0 0zm.9 1.8c-.7-.1-1.6-.3-2.4-.2-.1 0-.1.1 0 .2.4.1.7.1 1.1.1s.8 0 1.2.1c.1-.1.2-.2.1-.2zm-.1 1.6c-1.1-.2-2.2-.7-3.2-1.1-.1 0-.2.1-.1.2 1 .6 2.1.9 3.3.9 0 .1 0 0 0 0zm-.8-6.2c-.6.1-1.2.3-1.8.5-.3.1-.6.3-.9.4-.2.1-.5.2-.6.5v.1c.2 0 .4-.2.6-.3.3-.2.5-.3.8-.4l1.9-.8z" fill="#d81613"/><path fill="#e4251d" d="M21 69.8c0 .2-.7.4-.7.5.1 2.6.7 4.6 1.3 4.6s7.2-2.3 7.2-5.1-6.8-5.1-7.4-5.1-.9 2-1 4.6c-.1.1.6.3.6.5z"/><path fill="#d81613" d="M20.7 73.2c.3.4.8.8 1.3.8.8 0 1.6-.4 2.3-.8.6-.4 1.3-.8 1.8-1.4.1-.2.7-.9.3-1-.3-.1-.7 0-1-.1-.1 0-.4-.3-.2-.4.1-.1.2-.1.3-.2.5-.2 1-.2 1.4-.3v-.1c-.1-.3-.4-.5-.7-.6-.2-.1-.4-.1-.6-.2-.3-.2-.2-.5.1-.4.3 0 1.3.4 1.4 0 .1-.6-.8-1.1-1.1-1.4l-1-.7c-.1-.1-.4-.3 0-.2h.1c1.8.9 3.7 2.3 3.7 3.7 0 2.8-6.5 5.1-7.2 5.1-.4 0-.7-.7-1-1.9 0 0 .1 0 .1.1z"/><path fill="#e63b1d" d="M21 69.8c0-.2-.7-.4-.7-.5.1-2.6.4-4.6 1-4.6.2 0 .8.2 1.7.5-.5-.1-1.1-.2-1.6.1-.4.3-.5.8-.6 1.2-.1.6-.1 1.3 0 1.9.1.4.1.9.5 1.2h.1c0 .2 0 .3-.1.4-.2.3-.6.6-.7 1-.1.3-.1.6-.1.8v.3c-.1-.6-.1-1.2-.1-1.8-.1-.2.6-.4.6-.5z"/><path d="M22 67.1c.6.3 1.3.3 1.9.6.3.1 1.2.3 1.2.8 0 .1-.1.2-.2.1-.2-.1-.3-.3-.5-.4-.3-.2-.6-.3-.9-.4-.5-.3-1-.4-1.5-.7h0zm.9 1.7l1.6.3c.3.1.9.1 1.1.4 0 0 0 .1-.1.1-.2 0-.3-.1-.5-.1-.2-.1-.5-.1-.8-.2-.4 0-.9-.2-1.3-.5-.1.1 0 0 0 0zm-.8 1.8c.7-.1 1.6-.3 2.4-.2.1 0 .1.1 0 .2-.4.1-.7.1-1.1.1s-.8 0-1.2.1c-.2-.1-.2-.2-.1-.2zm0 1.6c1.1-.2 2.2-.7 3.2-1.1.1 0 .2.1.1.2-.9.6-2.1.9-3.3.9 0 .1 0 0 0 0zm.8-6.2c.6.1 1.2.3 1.8.5.3.1.6.3.9.4.2.1.5.2.6.5v.1c-.2 0-.4-.2-.6-.3-.3-.2-.5-.3-.8-.4l-1.9-.8z" fill="#d81613"/><path fill="#e4251d" d="M32 70.7c0 .6-.5 1.2-1.2 1.2h-2c-.6 0-1.2-.5-1.2-1.2v-2c0-.6.5-1.2 1.2-1.2h2c.6 0 1.2.5 1.2 1.2v2z"/><path fill="#bf1818" d="M32 68.4v.6c-.1.9-.8 1.6-1.7 1.8-.8.1-1.7-.2-2.1-.9-.3-.5-.4-1-.4-1.6 0 .1-.1.3-.1.4v2c0 .6.5 1.2 1.2 1.2h2c.6 0 1.2-.5 1.2-1.2v-2c-.1 0-.1-.2-.1-.3z"/><path fill="#e63d28" d="M31.4 68.2c0 .4-.7.7-1.5.7s-1.5-.3-1.5-.7.7-.3 1.5-.3 1.5-.1 1.5.3z"/><g fill="#301b16"><path d="M34.2 50.2c-2.6-1.5-14-.4-14-.4s-.5 1.4-.1 2c.2.4.9.4 1 .9.1 2 .2 4.8 1.4 6.4 2.5 3.1 9.1 2.7 11.2-.1 1.1-1.5 1.5-3.2 1.7-5.5.1-1.3-.4-2.8-1.2-3.3zm-.3 3.7c-.2 1.8-.5 3.2-1.4 4.4-1.7 2.3-7 2.6-9 .1-1-1.3-1.1-3.5-1.1-5.2 0-1.2.3-2.4 1.5-2.5 2.6-.3 7.5-.4 9.1.5.7.4 1 1.6.9 2.7zm4.6-.3c.2 2.2.6 3.9 1.7 5.5 2.1 2.8 8.7 3.2 11.2.1 1.3-1.6 1.3-4.4 1.4-6.4 0-.5.7-.5 1-.9.4-.6-.1-2-.1-2s-11.3-1.1-14 .4c-.9.4-1.4 1.9-1.2 3.3zm2.4-2.4c1.6-.9 6.5-.8 9.1-.5 1.1.1 1.5 1.3 1.5 2.5 0 1.7-.1 3.9-1.1 5.2-2 2.5-7.3 2.2-9-.1-.9-1.2-1.2-2.6-1.4-4.4-.2-1.1.2-2.3.9-2.7z"/><path d="M38.5 54.2s-.8-.9-1.7-.9c-1 0-1.5 1-1.5 1l-.6-3.6s.6.4 2.1.4 2.4-.5 2.4-.5l-.7 3.6z"/></g></svg>