<?xml version="1.0" encoding="utf-8"?>
<!-- Generator: Adobe Illustrator 24.3.0, SVG Export Plug-In . SVG Version: 6.00 Build 0)  -->
<svg version="1.1" id="Layer_1" xmlns="http://www.w3.org/2000/svg" xmlns:xlink="http://www.w3.org/1999/xlink" x="0px" y="0px"
	 viewBox="0 0 70 70" enable-background="new 0 0 70 70" xml:space="preserve">
<path id="SVGID_1_" fill="#BCC5CB" d="M35,70L35,70C15.7,70,0,54.3,0,35l0,0C0,15.7,15.7,0,35,0l0,0c19.3,0,35,15.7,35,35l0,0
	C70,54.3,54.3,70,35,70z"/>
<path fill="none" d="M35,70L35,70C15.7,70,0,54.3,0,35l0,0C0,15.7,15.7,0,35,0l0,0c19.3,0,35,15.7,35,35l0,0C70,54.3,54.3,70,35,70z
	"/>
<g>
	<path fill="#F8F8F8" d="M30.4,21.8c-2.1,0-3.8,1.7-3.8,3.8s1.7,3.8,3.8,3.8s3.8-1.7,3.8-3.8S32.5,21.8,30.4,21.8z"/>
	<path fill="#F8F8F8" d="M40.9,20.9L32,36.4l-5.9-8.3c-0.4-0.6-1.1-1-1.9-0.9c-0.7,0-1.4,0.4-1.8,1L11.7,45.7c0,1.5,0,3,0,4.5h46.7
		v-4.4L44.8,20.9c-0.4-0.7-1.2-1.2-2-1.1C42,19.8,41.4,20.4,40.9,20.9L40.9,20.9z"/>
</g>
</svg>
