<?xml version="1.0" encoding="utf-8"?>
<!-- Generator: Adobe Illustrator 24.3.0, SVG Export Plug-In . SVG Version: 6.00 Build 0)  -->
<svg version="1.1" id="Layer_1" xmlns="http://www.w3.org/2000/svg" xmlns:xlink="http://www.w3.org/1999/xlink" x="0px" y="0px"
	 viewBox="0 0 70 70" enable-background="new 0 0 70 70" xml:space="preserve">
<rect fill="#BCC5CB" width="70" height="70"/>
<g>
	<path fill="#F8F8F8" d="M9.3,32.2c-0.4,0-0.8-0.1-1.1-0.2c-0.4-0.1-0.6-0.4-0.8-0.7C7.1,30.9,7,30.5,7,29.9v-2.8
		c0-0.6,0.1-1,0.3-1.3c0.2-0.3,0.5-0.6,0.8-0.7c0.4-0.1,0.7-0.2,1.2-0.2s0.9,0.1,1.2,0.2c0.4,0.2,0.6,0.4,0.8,0.7
		c0.2,0.3,0.3,0.6,0.3,1c0,0.3-0.1,0.4-0.2,0.5c-0.1,0.1-0.3,0.1-0.5,0.1s-0.3,0-0.5-0.1c-0.1-0.1-0.2-0.2-0.2-0.3
		c0-0.1,0-0.2,0-0.3c0-0.1-0.1-0.2-0.1-0.3c-0.1-0.1-0.2-0.2-0.3-0.3C9.8,26,9.6,26,9.4,26c-0.3,0-0.6,0.1-0.8,0.3
		c-0.2,0.2-0.3,0.5-0.3,0.9V30c0,0.4,0.1,0.7,0.3,0.9c0.2,0.2,0.5,0.3,0.8,0.3c0.2,0,0.4,0,0.5-0.1s0.2-0.2,0.3-0.3
		c0.1-0.1,0.1-0.2,0.1-0.3c0-0.1,0-0.2,0.1-0.3c0-0.2,0.1-0.3,0.2-0.3c0.1-0.1,0.3-0.1,0.4-0.1c0.2,0,0.4,0,0.5,0.1s0.2,0.3,0.2,0.5
		c0,0.4-0.1,0.8-0.3,1c-0.2,0.3-0.5,0.5-0.8,0.7C10.2,32.1,9.8,32.2,9.3,32.2z"/>
	<path fill="#F8F8F8" d="M14.6,32.2c-0.4,0-0.8-0.1-1.1-0.3s-0.6-0.4-0.8-0.8c-0.2-0.3-0.3-0.6-0.3-1v-2.4c0-0.1,0.1-0.2,0.2-0.3
		c0.1-0.1,0.3-0.1,0.5-0.1s0.3,0,0.4,0.1c0.1,0.1,0.2,0.2,0.2,0.3v2.4c0,0.2,0,0.3,0.1,0.4s0.2,0.2,0.3,0.3c0.1,0.1,0.3,0.1,0.4,0.1
		c0.2,0,0.3,0,0.4-0.1s0.2-0.2,0.3-0.3c0.1-0.1,0.1-0.3,0.1-0.4v-2.4c0-0.1,0.1-0.2,0.2-0.3c0.1-0.1,0.3-0.1,0.4-0.1
		c0.2,0,0.4,0,0.5,0.1c0.1,0.1,0.2,0.2,0.2,0.3v2.4c0,0.4-0.1,0.7-0.3,1c-0.2,0.3-0.5,0.6-0.8,0.7S15,32.2,14.6,32.2z"/>
	<path fill="#F8F8F8" d="M19.3,32.2c-0.3,0-0.6,0-0.9-0.1s-0.5-0.2-0.6-0.3s-0.2-0.3-0.2-0.4s0-0.1,0.1-0.2c0-0.1,0.1-0.2,0.1-0.2
		c0.1-0.1,0.1-0.1,0.2-0.1s0.2,0,0.3,0.1c0.1,0.1,0.2,0.2,0.4,0.2c0.2,0.1,0.4,0.1,0.7,0.1c0.3,0,0.5,0,0.6-0.1c0-0.2,0-0.3,0-0.4
		s-0.1-0.3-0.2-0.3s-0.3-0.1-0.4-0.2c-0.2-0.1-0.4-0.1-0.6-0.2s-0.4-0.1-0.6-0.2s-0.3-0.2-0.4-0.4c-0.1-0.2-0.2-0.4-0.2-0.7
		c0-0.2,0.1-0.5,0.2-0.7s0.3-0.4,0.6-0.6c0.3-0.1,0.6-0.2,1.1-0.2c0.3,0,0.5,0,0.8,0.1c0.2,0.1,0.4,0.1,0.6,0.2s0.2,0.2,0.2,0.3
		c0,0.1,0,0.1-0.1,0.2s-0.1,0.2-0.2,0.3c-0.1,0.1-0.2,0.1-0.3,0.1c-0.1,0-0.2,0-0.3-0.1c-0.1,0-0.2-0.1-0.4-0.1
		c-0.1,0-0.3-0.1-0.5-0.1s-0.3,0-0.4,0.1c-0.1,0-0.2,0.1-0.2,0.2s-0.1,0.1-0.1,0.2s0.1,0.2,0.2,0.3c0.1,0.1,0.3,0.1,0.4,0.2
		c0.2,0,0.4,0.1,0.6,0.2s0.4,0.1,0.6,0.2s0.3,0.3,0.4,0.4c0.1,0.2,0.2,0.4,0.2,0.7c0,0.4-0.2,0.8-0.5,1.1
		C20.3,32.1,19.9,32.2,19.3,32.2z"/>
	<path fill="#F8F8F8" d="M23.7,32.1c-0.6,0-1.1-0.1-1.4-0.4s-0.5-0.7-0.5-1.2v-4.9c0-0.1,0.1-0.2,0.2-0.3c0.1-0.1,0.3-0.1,0.4-0.1
		c0.2,0,0.3,0,0.4,0.1s0.2,0.2,0.2,0.3v1.7h1.2c0.1,0,0.2,0,0.2,0.1s0.1,0.2,0.1,0.3c0,0.1,0,0.2-0.1,0.3s-0.1,0.1-0.2,0.1H23v2.2
		c0,0.2,0,0.3,0.1,0.4s0.2,0.1,0.4,0.1h0.4c0.2,0,0.3,0.1,0.4,0.2s0.1,0.2,0.1,0.4c0,0.1,0,0.3-0.1,0.4S24.1,32,23.9,32L23.7,32.1
		L23.7,32.1z"/>
	<path fill="#F8F8F8" d="M27.3,32.2c-0.4,0-0.7-0.1-1.1-0.3c-0.3-0.2-0.6-0.4-0.8-0.8c-0.2-0.3-0.3-0.6-0.3-1v-0.8
		c0-0.4,0.1-0.7,0.3-1s0.5-0.6,0.8-0.7c0.3-0.2,0.7-0.3,1.1-0.3s0.8,0.1,1.1,0.3c0.3,0.2,0.6,0.4,0.8,0.7c0.2,0.3,0.3,0.6,0.3,1v0.8
		c0,0.4-0.1,0.7-0.3,1c-0.2,0.3-0.5,0.6-0.8,0.8C28,32.1,27.7,32.2,27.3,32.2z M27.3,31.1c0.2,0,0.3,0,0.4-0.1s0.2-0.2,0.3-0.3
		c0.1-0.1,0.1-0.3,0.1-0.4v-0.8c0-0.2,0-0.3-0.1-0.4s-0.2-0.2-0.3-0.3s-0.3-0.1-0.4-0.1c-0.2,0-0.3,0-0.4,0.1s-0.2,0.2-0.3,0.3
		c-0.1,0.1-0.1,0.3-0.1,0.4v0.8c0,0.2,0,0.3,0.1,0.4s0.2,0.3,0.3,0.3C27,31.1,27.1,31.1,27.3,31.1z"/>
	<path fill="#F8F8F8" d="M30.9,32.1c-0.2,0-0.3,0-0.5-0.1c-0.1-0.1-0.2-0.2-0.2-0.3v-3.9c0-0.1,0.1-0.2,0.2-0.3
		c0.1-0.1,0.3-0.1,0.5-0.1s0.3,0,0.4,0.1s0.2,0.2,0.2,0.3v0.3c0.1-0.2,0.3-0.4,0.5-0.5c0.2-0.2,0.5-0.2,0.8-0.2s0.5,0.1,0.8,0.3
		c0.2,0.2,0.4,0.4,0.5,0.7c0.2-0.3,0.4-0.6,0.7-0.8c0.3-0.2,0.5-0.2,0.8-0.2s0.6,0.1,0.9,0.2c0.3,0.2,0.5,0.4,0.7,0.7
		c0.2,0.3,0.3,0.7,0.3,1.1v2.4c0,0.1-0.1,0.2-0.2,0.3c-0.1,0.1-0.3,0.1-0.5,0.1s-0.3,0-0.5-0.1c-0.1-0.1-0.2-0.2-0.2-0.3v-2.4
		c0-0.2,0-0.4-0.1-0.5s-0.2-0.2-0.3-0.3c-0.1-0.1-0.3-0.1-0.4-0.1c-0.1,0-0.3,0-0.4,0.1c-0.1,0.1-0.2,0.2-0.3,0.3s-0.1,0.3-0.1,0.5
		v2.4c0,0.1-0.1,0.2-0.2,0.3c-0.1,0.1-0.3,0.1-0.4,0.1c-0.1,0-0.3,0-0.4-0.1c-0.1-0.1-0.2-0.2-0.2-0.3v-2.4c0-0.2,0-0.3-0.1-0.5
		c-0.1-0.1-0.2-0.2-0.3-0.3c-0.1-0.1-0.3-0.1-0.4-0.1c-0.1,0-0.3,0-0.4,0.1c-0.1,0.1-0.2,0.2-0.3,0.3c-0.1,0.1-0.1,0.3-0.1,0.5v2.4
		c0,0.1-0.1,0.2-0.2,0.3C31.2,32.1,31.1,32.1,30.9,32.1z"/>
	<path fill="#F8F8F8" d="M7.7,44.1c-0.2,0-0.3,0-0.4-0.1s-0.2-0.2-0.2-0.3v-6.5c0-0.1,0.1-0.2,0.2-0.3s0.2-0.1,0.4-0.1h1.9
		c0.3,0,0.7,0,1,0.1s0.6,0.3,0.8,0.5c0.2,0.3,0.3,0.6,0.3,1.1c0,0.4-0.1,0.7-0.2,1c-0.2,0.3-0.4,0.5-0.6,0.6
		c0.2,0.1,0.4,0.2,0.5,0.3s0.3,0.3,0.4,0.5s0.1,0.5,0.1,0.8V42c0,0.5-0.1,0.9-0.3,1.2s-0.4,0.5-0.7,0.7s-0.6,0.2-1,0.2
		C9.9,44.1,7.7,44.1,7.7,44.1z M8.4,39.7h1.1c0.3,0,0.5-0.1,0.6-0.2s0.2-0.4,0.2-0.6c0-0.2,0-0.3-0.1-0.5c-0.1-0.1-0.2-0.2-0.3-0.3
		S9.7,38,9.5,38H8.4V39.7z M8.4,43h1.1c0.3,0,0.5-0.1,0.7-0.3s0.3-0.5,0.3-0.8v-0.2c0-0.4-0.1-0.7-0.3-0.8c-0.2-0.2-0.4-0.2-0.7-0.2
		H8.4V43z"/>
	<path fill="#F8F8F8" d="M14.6,44.2c-0.4,0-0.7-0.1-1.1-0.3c-0.3-0.2-0.6-0.4-0.8-0.8c-0.2-0.3-0.3-0.7-0.3-1v-0.8
		c0-0.4,0.1-0.7,0.3-1s0.5-0.6,0.8-0.7s0.7-0.3,1.1-0.3c0.4,0,0.8,0.1,1.1,0.3c0.3,0.2,0.6,0.4,0.8,0.7s0.3,0.6,0.3,1v0.8
		c0,0.4-0.1,0.7-0.3,1c-0.2,0.3-0.5,0.6-0.8,0.8C15.4,44.1,15,44.2,14.6,44.2z M14.6,43.1c0.2,0,0.3,0,0.4-0.1
		c0.1-0.1,0.2-0.2,0.3-0.3s0.1-0.3,0.1-0.4v-0.8c0-0.2,0-0.3-0.1-0.4c-0.1-0.1-0.2-0.2-0.3-0.3s-0.3-0.1-0.4-0.1
		c-0.2,0-0.3,0-0.4,0.1c-0.1,0.1-0.2,0.2-0.3,0.3s-0.1,0.3-0.1,0.4v0.8c0,0.2,0,0.3,0.1,0.4c0.1,0.1,0.2,0.3,0.3,0.3
		C14.3,43.1,14.4,43.1,14.6,43.1z"/>
	<path fill="#F8F8F8" d="M18.2,44.1c-0.2,0-0.3,0-0.4-0.1s-0.2-0.2-0.2-0.3v-3.9c0-0.1,0.1-0.2,0.2-0.3s0.3-0.1,0.4-0.1
		c0.2,0,0.3,0,0.4,0.1s0.2,0.2,0.2,0.3v0.4c0.1-0.1,0.2-0.3,0.3-0.4s0.3-0.2,0.4-0.3c0.2-0.1,0.3-0.1,0.5-0.1h0.3
		c0.1,0,0.2,0.1,0.3,0.2c0.1,0.1,0.1,0.2,0.1,0.4s0,0.3-0.1,0.4c-0.1,0.1-0.2,0.2-0.3,0.2H20c-0.2,0-0.4,0.1-0.5,0.2
		s-0.3,0.3-0.4,0.5s-0.2,0.5-0.2,0.8v1.8c0,0.1-0.1,0.2-0.2,0.3C18.6,44.1,18.4,44.1,18.2,44.1z"/>
	<path fill="#F8F8F8" d="M22.8,44.2c-0.3,0-0.6-0.1-0.9-0.3s-0.5-0.4-0.6-0.8c-0.2-0.3-0.2-0.6-0.2-1v-0.8c0-0.4,0.1-0.7,0.2-1
		c0.2-0.3,0.4-0.6,0.6-0.7s0.6-0.3,0.9-0.3s0.6,0.1,0.8,0.2c0.2,0.2,0.4,0.3,0.5,0.5v-3c0-0.1,0.1-0.2,0.2-0.3s0.3-0.1,0.5-0.1
		s0.3,0,0.5,0.1s0.2,0.2,0.2,0.3v6.7c0,0.1-0.1,0.2-0.2,0.3s-0.3,0.1-0.5,0.1s-0.3,0-0.4-0.1s-0.2-0.2-0.2-0.3v-0.3
		c-0.1,0.2-0.3,0.4-0.5,0.5C23.4,44.2,23.1,44.2,22.8,44.2z M23.2,43.1c0.2,0,0.3,0,0.5-0.1c0.1-0.1,0.2-0.2,0.3-0.3
		c0.1-0.1,0.1-0.2,0.1-0.3v-1c0-0.2,0-0.3-0.1-0.5c-0.1-0.1-0.2-0.2-0.3-0.3s-0.3-0.1-0.4-0.1c-0.2,0-0.3,0-0.4,0.1
		s-0.2,0.2-0.3,0.3c-0.1,0.1-0.1,0.3-0.1,0.4v0.8c0,0.2,0,0.3,0.1,0.4c0.1,0.1,0.2,0.3,0.3,0.3C22.9,43.1,23.1,43.1,23.2,43.1z"/>
	<path fill="#F8F8F8" d="M28.7,44.2c-0.5,0-0.9-0.1-1.3-0.3s-0.6-0.4-0.9-0.7c-0.2-0.3-0.3-0.7-0.3-1.1v-0.9c0-0.4,0.1-0.7,0.3-1
		c0.2-0.3,0.5-0.5,0.8-0.7s0.7-0.3,1.1-0.3s0.7,0.1,1,0.2c0.3,0.2,0.6,0.4,0.8,0.7s0.3,0.6,0.3,1c0,0.3,0,0.5-0.1,0.6
		C30.3,42,30.2,42,30,42.1c-0.1,0-0.3,0-0.4,0h-2v0.1c0,0.3,0.1,0.5,0.3,0.7c0.2,0.2,0.5,0.3,0.8,0.3c0.2,0,0.4,0,0.5-0.1
		s0.3-0.1,0.4-0.2c0.1-0.1,0.2-0.1,0.3-0.1c0.1,0,0.2,0,0.3,0.1c0.1,0.1,0.1,0.1,0.2,0.2c0,0.1,0.1,0.2,0.1,0.2
		c0,0.1-0.1,0.2-0.2,0.4S30,43.9,29.7,44S29,44.2,28.7,44.2z M27.5,41.3H29c0.1,0,0.2,0,0.2-0.1c0,0,0.1-0.1,0.1-0.2
		c0-0.2,0-0.3-0.1-0.4s-0.2-0.2-0.3-0.3c-0.1-0.1-0.3-0.1-0.4-0.1c-0.2,0-0.3,0-0.4,0.1s-0.2,0.2-0.3,0.3c-0.1,0.1-0.1,0.3-0.1,0.4
		v0.3H27.5z"/>
	<path fill="#F8F8F8" d="M31.9,44.1c-0.2,0-0.3,0-0.5-0.1c-0.1-0.1-0.2-0.2-0.2-0.3v-3.9c0-0.1,0.1-0.2,0.2-0.3s0.3-0.1,0.5-0.1
		c0.2,0,0.3,0,0.4,0.1s0.2,0.2,0.2,0.3v0.4c0.1-0.1,0.2-0.3,0.3-0.4s0.3-0.2,0.4-0.3c0.2-0.1,0.3-0.1,0.5-0.1H34
		c0.1,0,0.2,0.1,0.3,0.2c0.1,0.1,0.1,0.2,0.1,0.4s0,0.3-0.1,0.4c-0.1,0.1-0.2,0.2-0.3,0.2h-0.3c-0.2,0-0.4,0.1-0.5,0.2
		c-0.2,0.1-0.3,0.3-0.4,0.5s-0.2,0.5-0.2,0.8v1.8c0,0.1-0.1,0.2-0.2,0.3C32.2,44.1,32.1,44.1,31.9,44.1z"/>
	<path fill="#F8F8F8" d="M34.9,42.3c-0.1,0-0.2,0-0.3-0.2c-0.1-0.1-0.1-0.2-0.1-0.4s0-0.3,0.1-0.4c0.1-0.1,0.2-0.2,0.3-0.2h2.6
		c0.1,0,0.2,0.1,0.3,0.2c0.1,0.1,0.1,0.2,0.1,0.4s0,0.3-0.1,0.4c-0.1,0.1-0.2,0.2-0.3,0.2H34.9z"/>
	<path fill="#F8F8F8" d="M39.3,44.1c-0.2,0-0.3,0-0.5-0.1c-0.1-0.1-0.2-0.2-0.2-0.3v-3.9c0-0.1,0.1-0.2,0.2-0.3
		c0.1-0.1,0.3-0.1,0.5-0.1s0.3,0,0.4,0.1c0.1,0.1,0.2,0.2,0.2,0.3v0.4c0.1-0.1,0.2-0.3,0.3-0.4s0.3-0.2,0.4-0.3
		c0.2-0.1,0.3-0.1,0.5-0.1h0.3c0.1,0,0.2,0.1,0.3,0.2c0.1,0.1,0.1,0.2,0.1,0.4s0,0.3-0.1,0.4c-0.1,0.1-0.2,0.2-0.3,0.2h-0.3
		c-0.2,0-0.4,0.1-0.5,0.2c-0.2,0.1-0.3,0.3-0.4,0.5S40,41.6,40,41.9v1.8c0,0.1-0.1,0.2-0.2,0.3C39.7,44.1,39.5,44.1,39.3,44.1z"/>
	<path fill="#F8F8F8" d="M43.4,44.2c-0.4,0-0.7-0.1-0.9-0.3c-0.3-0.2-0.4-0.6-0.4-1s0.1-0.7,0.3-0.9s0.5-0.4,0.8-0.5
		s0.8-0.1,1.2-0.1h0.4v-0.1c0-0.1,0-0.3-0.1-0.4c-0.1-0.1-0.1-0.3-0.3-0.3c-0.1-0.1-0.3-0.1-0.5-0.1c-0.3,0-0.4,0-0.6,0.1
		c-0.1,0.1-0.2,0.1-0.3,0.2s-0.2,0.1-0.2,0.1c-0.1,0-0.2-0.1-0.3-0.2c-0.1-0.1-0.1-0.3-0.1-0.4c0-0.1,0.1-0.3,0.3-0.4
		c0.2-0.1,0.4-0.2,0.6-0.3c0.2-0.1,0.5-0.1,0.7-0.1c0.5,0,0.9,0.1,1.2,0.3s0.5,0.4,0.7,0.7c0.1,0.3,0.2,0.6,0.2,1V44
		c0,0.1-0.1,0.2-0.2,0.3s-0.3,0.1-0.5,0.1s-0.3,0-0.4-0.1s-0.2-0.2-0.2-0.3v-0.3c-0.2,0.2-0.4,0.4-0.6,0.5
		C44.1,44.2,43.8,44.2,43.4,44.2z M43.9,43.3c0.1,0,0.3,0,0.4-0.1c0.1-0.1,0.3-0.2,0.4-0.4c0.1-0.1,0.1-0.3,0.1-0.5v-0.2h-0.2
		c-0.2,0-0.4,0-0.6,0c-0.2,0-0.4,0.1-0.5,0.2c-0.1,0.1-0.2,0.2-0.2,0.4s0.1,0.3,0.2,0.4S43.8,43.3,43.9,43.3z"/>
	<path fill="#F8F8F8" d="M48.7,44.2c-0.3,0-0.6-0.1-0.9-0.3s-0.5-0.4-0.6-0.8s-0.2-0.6-0.2-1v-0.8c0-0.4,0.1-0.7,0.2-1
		s0.4-0.6,0.6-0.7s0.6-0.3,0.9-0.3c0.3,0,0.6,0.1,0.8,0.2c0.2,0.2,0.4,0.3,0.5,0.5v-3c0-0.1,0.1-0.2,0.2-0.3s0.3-0.1,0.5-0.1
		s0.3,0,0.5,0.1s0.2,0.2,0.2,0.3v6.7c0,0.1-0.1,0.2-0.2,0.3c-0.1,0.1-0.3,0.1-0.5,0.1s-0.3,0-0.4-0.1c-0.1-0.1-0.2-0.2-0.2-0.3v-0.3
		c-0.1,0.2-0.3,0.4-0.5,0.5C49.3,44.2,49,44.2,48.7,44.2z M49.1,43.1c0.2,0,0.3,0,0.5-0.1c0.1-0.1,0.2-0.2,0.3-0.3s0.1-0.2,0.1-0.3
		v-1c0-0.2,0-0.3-0.1-0.5c-0.1-0.1-0.2-0.2-0.3-0.3s-0.3-0.1-0.4-0.1c-0.2,0-0.3,0-0.4,0.1s-0.2,0.2-0.3,0.3s-0.1,0.3-0.1,0.4v0.8
		c0,0.2,0,0.3,0.1,0.4c0.1,0.1,0.2,0.3,0.3,0.3C48.8,43.1,48.9,43.1,49.1,43.1z"/>
	<path fill="#F8F8F8" d="M52.9,38.3c-0.2,0-0.4-0.1-0.5-0.2c-0.1-0.1-0.2-0.3-0.2-0.4c0-0.2,0.1-0.3,0.2-0.4
		c0.1-0.1,0.3-0.2,0.5-0.2s0.4,0.1,0.5,0.2c0.1,0.1,0.2,0.3,0.2,0.4c0,0.2-0.1,0.3-0.2,0.4S53.1,38.3,52.9,38.3z M52.9,44.1
		c-0.2,0-0.3,0-0.5-0.1c-0.1-0.1-0.2-0.2-0.2-0.3v-3.9c0-0.1,0.1-0.2,0.2-0.3c0.1-0.1,0.3-0.1,0.5-0.1s0.3,0,0.5,0.1
		c0.1,0.1,0.2,0.2,0.2,0.3v3.9c0,0.1-0.1,0.2-0.2,0.3S53.1,44.1,52.9,44.1z"/>
	<path fill="#F8F8F8" d="M56.7,44.2c-0.4,0-0.8-0.1-1.1-0.3s-0.6-0.4-0.8-0.8c-0.2-0.3-0.3-0.6-0.3-1v-2.4c0-0.1,0.1-0.2,0.2-0.3
		c0.1-0.1,0.3-0.1,0.5-0.1s0.3,0,0.5,0.1s0.2,0.2,0.2,0.3v2.4c0,0.2,0,0.3,0.1,0.4c0.1,0.1,0.2,0.2,0.3,0.3s0.3,0.1,0.4,0.1
		c0.2,0,0.3,0,0.4-0.1c0.1-0.1,0.2-0.2,0.3-0.3s0.1-0.3,0.1-0.4v-2.4c0-0.1,0.1-0.2,0.2-0.3s0.3-0.1,0.4-0.1c0.2,0,0.4,0,0.5,0.1
		s0.2,0.2,0.2,0.3v2.4c0,0.4-0.1,0.7-0.3,1s-0.5,0.6-0.8,0.7S57.1,44.2,56.7,44.2z"/>
	<path fill="#F8F8F8" d="M61.4,44.2c-0.3,0-0.6,0-0.9-0.1s-0.5-0.2-0.6-0.3c-0.2-0.1-0.2-0.3-0.2-0.4c0-0.1,0-0.1,0.1-0.2
		c0-0.1,0.1-0.2,0.2-0.2s0.1-0.1,0.2-0.1c0.1,0,0.2,0,0.3,0.1s0.2,0.2,0.4,0.2c0.2,0.1,0.4,0.1,0.7,0.1s0.5,0,0.6-0.1
		s0.1-0.2,0.1-0.3s-0.1-0.3-0.2-0.3s-0.3-0.1-0.4-0.2c-0.2-0.1-0.4-0.1-0.6-0.2c-0.2-0.1-0.4-0.1-0.6-0.2c-0.2-0.1-0.3-0.2-0.4-0.4
		s-0.2-0.4-0.2-0.7c0-0.2,0.1-0.5,0.2-0.7s0.3-0.4,0.6-0.6c0.3-0.2,0.6-0.2,1.1-0.2c0.3,0,0.5,0,0.8,0.1c0.2,0.1,0.4,0.1,0.6,0.2
		s0.2,0.2,0.2,0.3s0,0.1-0.1,0.2s-0.1,0.2-0.2,0.3s-0.2,0.1-0.3,0.1s-0.2,0-0.3-0.1c-0.1,0-0.2-0.1-0.4-0.1c-0.1,0-0.3-0.1-0.5-0.1
		s-0.3,0-0.4,0.1c-0.1,0-0.2,0.1-0.2,0.2c0,0.1-0.1,0.1-0.1,0.2c0,0.1,0.1,0.2,0.2,0.3c0.1,0.1,0.3,0.1,0.4,0.2
		c0.2,0,0.4,0.1,0.6,0.2c0.2,0.1,0.4,0.1,0.6,0.2c0.2,0.1,0.3,0.3,0.4,0.4c0.1,0.2,0.2,0.4,0.2,0.7c0,0.4-0.2,0.8-0.5,1.1
		S62,44.2,61.4,44.2z"/>
</g>
</svg>
