<svg xmlns="http://www.w3.org/2000/svg" viewBox="0 0 82.5 90.6"  xmlns:v="https://vecta.io/nano"><path fill="#fff" stroke="#e2e2e2" stroke-width=".562" stroke-miterlimit="10" d="M.3.3h81.9v90H.3z"/><path fill="#f2f2f2" d="M.6.4H82V90H.6z"/><path fill="#fff2db" d="M68.1 52.1c-.1-.2-.1-.5-.3-.7-.1-.1-.3-.2-.5-.2.1-.2.1-.4.2-.6 0-.1.1-.1.1-.2s.1-.1.1-.2v-.1c0-.1 0-.1.1-.2 0-.1.1-.2.1-.3.2-1 .2-2.1.1-3.1-.1-.6-.2-1.2-.6-1.6.2-.3.3-.6.5-.9a.88.88 0 0 0-.5-1.2c-.2-.1-.5-.1-.7-.2-.2-.4-.5-.7-.9-1-.6-.4-1.5-.8-2.4-.8-.1-.1-.2-.2-.4-.3-.3-.2-.6-.2-.9 0-.2.2-.3.5-.4.7-.3.2-.5.5-.4.9h-.2c0-.1-.1-.1-.2-.1-1.4-.3-3 .6-4 1.4-2.3 2-3.1 6.1-1.8 8.9.2.3.3.6.6.9-.2.2-.3.4-.4.7-.2.4 0 .8.4.9.9.2 1.7.5 2.4 1 .6.4 1.1 1.1 1.8 1.2s1.4-.6 1.7-1.4c.7 0 1.3-.1 1.9-.3 1.4-.5 2.4-1.4 3.1-2.6.1.1.2.2.4.2.6.3 1.2-.2 1.1-.8zm-4.3-9.5c.2.1.3.2.5.3 0 0-.1 0-.1-.1-.3-.2-.7-.4-1.1-.5.3.1.5.2.7.3z"/><path d="M63.6 40.7c.5.4 1.1.7 1.7 1s1.4.9 2.1 1c.2 0 .4 0 .5-.1.6-.8.9-1.9 1.3-2.8.1-.3.3-.7.4-1.1a12.2 12.2 0 0 0 .7-1.7c.5-.3.8-.9.5-1.5-.3-.8-1.4-1.2-2-1.6-.1 0-.1 0-.2-.1-.6-.4-1.3-.7-1.9-.3-.1.1-.3.2-.4.4l-.3.3-2.9 5c-.1.2-.1.4-.1.5-.1.1-.1.2-.2.3-.2.2 0 .5.2.6.3 0 .5 0 .6.1zm-4.3 16.2c-.4-.2-.9-.5-1.3-.6h-.1c-.2-.3-.5-.5-.9-.6h-.2c-.1-.1-.3-.2-.5-.3h-.4c-.2-.4-.6-.4-.9-.1-.4.4-.7 1.1-.9 1.6l-1.2 2.3c-.4.8-1.3 2-1 3 .2.5.8 1 1.3 1.1.1.2.3.4.6.4.1.2.3.3.6.3.5 0 1 .2 1.5-.2.5-.3.9-1.1 1.2-1.6.9-1.4 1.6-2.9 2.4-4.4.3-.3.2-.8-.2-.9z" fill="#e6971c"/><path fill="#deceb7" d="M67.1 51.9c.1-.1.1-.2.2-.3l.1-.1.5-1.1c0-.1 0-.3-.1-.3.1-.4.2-.7.2-1.1l.2-.2c.3-1.2-.2-2.5-.9-3.6.1 0 .1-.1.1-.1.3-.9 1-1.7 0-2.2-1.5-.9-3.3-1.8-5-2.4 0-.1-.2-.1-.2-.1-.1 0-.2.1-.2.2-.1.1-.1.2-.2.3-.1.2-.3.4-.5.6-.1.1-.1.3 0 .5-.6 0-1.3.2-1.9.4-1.1.4-2.1 1.1-2.9 1.9-1.4 1.5-2.5 4.6-1.3 6.5.1.6.4 1.2.7 1.7-.3.5-.7 1.1-.8 1.8 0 .1 0 .2.1.3.5.5 1.3.7 1.9 1 .9.4 1.7 1 2.6 1.4 1 .5 1.4-.4 2-1.2l.3-.3c2.1-.1 4.4-1.3 5.1-3-.2-.3-.1-.4 0-.6zm-4.7-11l2.7 1.4c.4.2.9.4 1.3.7.8.6.7.9.4 1.7-.5-.6-1-1.1-1.5-1.5-.8-.6-2.2-1.3-3.5-1.3.2-.3.5-.7.6-1zm-1.3 1.8c.4 0 .8 0 1.3.1.9.2 1.7.5 2.4 1.1 1.4 1 2.4 2.7 2.5 4.4 0 .5-.1 1-.2 1.5-.1 0-.2.1-.2.2-.1.5-.3 1-.6 1.4-.1.1-.1.2 0 .3-.3.3-.5.6-.9.9-1.1.9-2.4 1.3-3.6 1.9-.6 0-1.2-.1-1.9-.1-.6-.6-1.6-.8-2.3-1.5-.1-.1-.2-.3-.3-.4l-.6-1.2c-.2-.4-.5-.7-.7-1.1-.1-.3-.1-.6-.1-.9-.1-1.8.4-3.4 1.4-4.9.9-1.1 2.3-1.5 3.8-1.7zM60 56.5c-.3 0-1.5-.9-1.8-1l-1.8-.9c-.3-.2-.7-.3-.7-.8 0-.2.2-.7.3-1.1.3.3.6.6.9.8.4 1.2 2.6 1.8 4.1 1.9-.3.4-.7 1.1-1 1.1z"/><path fill="#fffffa" d="M66.3 48.6c0-.1 0-.1-.1-.1 0-.3-.1-.6-.4-.9-.1-.1-.2 0-.1.1.4.5.3 1.2.1 1.8 0-.2-.1-.4-.2-.6.1-.6.1-1.1 0-1.6 0-.2-.3-.2-.2 0v1.2l-.1-.1c.1-.4.1-.7-.1-1.1 0-.1-.2-.1-.2 0v.8c-.1-.1-.2-.2-.3-.2 0-.3.1-.6.1-.9 0-.1-.2-.1-.2 0 0 .3-.1.5-.1.8-.1-.1-.3-.1-.5-.1V47c0-.1-.1-.1-.1 0v.2h-.1c0 .2-.1.4-.2.5-.2 0-.3.1-.5.1.1-.4.2-.7.2-1 0-.1-.1-.1-.1 0l-.5 1.4c-.1.1-.3.3-.4.6v.1c-.6.1-1.4.4-1.8-.2 0-.1-.1-.1-.1-.2 0-.3.1-.7.2-1 .2-.2.4-.3.7-.4h.4c.1 0 .1-.1 0-.1s-.2 0-.3.1h-.2c.1-.1.2-.1.4-.1.1 0 .1-.2 0-.2-.3 0-.6.2-.8.4-.1.1-.3.2-.4.3s-.1.2-.1.3l-.1.1.3-.9c.4-.4 1-.8 1.5-1.1.1 0 0-.2-.1-.2-.4.2-.9.4-1.3.7 0-.1.1-.2.1-.3v-.2c.4-.2.7-.4 1-.6.1 0 0-.1 0-.1-.4.1-.7.2-1 .4 0-.1-.1-.2-.2-.3l.6-.3c.1 0 0-.2-.1-.1-.2.1-.4.2-.7.3l-.6-.3c.4-.3.8-.5 1.2-.6.1 0 0-.1 0-.1-.6.2-1.1.4-1.5.8-1.2.4-1.9 1.7-2.2 2.8-.4 1.5-.1 3.1 1 4.2 1.3 1.3 3 1.6 4.6 1.1.9.2 1.7-.7 2.3-1.3a9.58 9.58 0 0 0 1.2-3.2zM62 49l-.3.3c-.1 0-.2.1-.3.1 0 0 0-.1-.1-.1a.45.45 0 0 1-.5 0c-.2-.1-.3-.2-.4-.3.4.3 1.1.2 1.6 0zm-2-.6v.3-.3z"/><path d="M67.6 49.8c.1-.2-.3-.3-.4-.1-.1.5-.4 1-.6 1.5 0 .1.1.1.1.1.6-.4.8-.9.9-1.5zm-1.2 2.5c0-.1-.1-.1-.1-.1-.1.1-.2.3-.4.5-.1.1-.2.3-.3.4 0 .1 0 .1.1.1.3-.2.6-.6.7-.9zm-10.9-2.7c0-.1 0-.1 0 0 0-.2-.1-.3-.2-.2-.1 0-.2.1-.2.2s.1.2.2.2c.2 0 .2-.1.2-.2zm.3 1.1c-.1-.2-.1-.3-.2-.5s-.3-.1-.3.1.1.4.1.5c.1.2.2.3.3.3h.1c.1-.1.1-.2 0-.4z" fill="#fffdf4"/><path d="M56.3 63.3c0-.2-.2-.6-.4-.7l-1.8-.9c-.5-.3-1-.8-1.6-.8a.47.47 0 0 0-.5.5c0 .7.6 1.1 1.1 1.4a12.81 12.81 0 0 0 2 1.1c.3.1.7.2 1-.1.1-.1.2-.3.2-.5zm14.1-27.8c-.6-.5-1.2-.9-1.9-1.3-.5-.3-1.1-.7-1.7-.6-1.1.1-1.1 1.8 0 1.8.1 0 .5.3.6.4.2.1.4.2.6.4.5.3.9.6 1.3.9.8.5 1.9-1 1.1-1.6z" fill="#c67c08"/><path fill="#fcab2c" d="M63.9 40.3c-.3.2-.6-.1-.6-.4.1-.8.8-1.6 1.2-2.3l1.3-2.2c.2-.2.6 0 .5.3-.2.9-.6 1.7-1 2.5-.4.7-.7 1.6-1.4 2.1zM55.2 58c.4-.7 1-1.6.7-2.4 0-.1-.2-.2-.3-.2-.8.3-1 1.3-1.4 2-.4.9-1 1.9-1.2 2.9-.1.3.4.6.6.3.7-.7 1.1-1.7 1.6-2.6z"/><path d="M70.4 37.2c.1-.4.3-.8.4-1.2.2-.5.3-.5-.1-.9-.6-.6-1.3-1.1-2.1-1.4-.5-.2-1.5-.7-2-.4-.3.1-.4.5-.6.7l-.7 1.1-2.9 5.1c0 .1.1.2.1.1l2.4-4.1 1.1-2c.1-.2.2-.3.3-.5.3-.4.5-.4.9-.3.5.1.9.3 1.3.5.6.3 2.1 1.1 2 1.7-.1.4-.3.9-.5 1.3-.1.4-.3.8-.5 1.1l-2.4 4.6c-.1.1.2.3.3.2 1.4-1.8 2.3-3.7 3-5.6zM56.8 62.9l-.7 1c-.3.4-.3.5-.8.4-.8-.1-1.6-.5-2.2-.9-.5-.3-1.3-.8-1.4-1.4-.1-.3.2-.6.3-.8l3.2-6.4c0-.1.2 0 .1.1l-2.1 4.2c-.3.7-.7 1.4-1 2-.1.2-.2.3-.2.5-.1.5 0 .6.3.9a4.44 4.44 0 0 0 1.1.8c.6.3 2 1.1 2.4.6a4.44 4.44 0 0 0 .8-1.1l.7-1c.9-1.4 1.7-2.9 2.4-4.5.1-.1.3 0 .3.1-1 2-2 3.8-3.2 5.5z" fill="#804b00"/><g fill="#3c2a12"><path d="M61.3 48.3l-.3-4.4c-.1 1.4 0 3 .1 4.4.1.1.2.1.2 0z"/><path d="M61.7 48.7c.1-.2-.1-.4-.3-.5s-.5.1-.5.4c0 .1 0 .2.1.3l.1.1h.1c.1 0 .2 0 .3-.1.1 0 .1-.1.2-.2z"/><path d="M60.7 50.3c.2-.4.4-.8.4-1.3-.3.3-.5.9-.7 1.3-.2.5-.4.9-.5 1.4 0 0 .1.1.1 0 .3-.4.5-.9.7-1.4zm5.1-4.6c-.2 0-.4.2-.6.3s-.4.3-.6.4c-.1 0 0 .1.1.1.2-.1.5-.2.7-.4.1 0 .4-.1.4-.4.1.1.1 0 0 0zm.7 2.6c-.2-.1-.5 0-.7 0s-.4.1-.6.2c-.1 0 0 .1 0 .1.2 0 .5 0 .7-.1.2 0 .4 0 .6-.1v-.1zm-.8 2.5c-.1-.2-.3-.2-.5-.3s-.4-.2-.5-.3c-.1 0-.1.1-.1.1.1.2.3.3.5.4s.3.2.5.2c.1 0 .2 0 .1-.1zm-1.8 2.1l-.3-.6c-.1-.2-.2-.4-.3-.5h-.1c0 .2.1.4.2.6s.2.4.3.7c.1.1.3-.1.2-.2zm-2.3.9v-.7c0-.2 0-.5-.1-.7 0-.1-.1-.1-.1 0v.7c0 .2 0 .5.1.7h.1zm-2.1-1.7c0-.1 0-.1 0 0-.2.1-.3.3-.4.5 0 .1-.1.2-.1.3s-.2.3-.1.3h-.1v.1c0 .1.1.1.2 0 .1-.4.4-.8.5-1.2zm-1.4-1.3c-.4.2-.8.5-1.2.8v.1c.4-.2.8-.5 1.2-.7.2-.2.1-.3 0-.2z"/><path d="M57.6 48.8c-.2 0-.5 0-.7.1-.2 0-.5 0-.7.1v.1c.3.1.5 0 .8 0 .2 0 .5 0 .7-.1 0-.1-.1-.2-.1-.2zm.6-2c-.2-.2-.4-.3-.6-.4s-.4-.2-.7-.3c-.1 0-.1.1 0 .1.2.1.5.2.7.4l.6.3c0 .1 0 0 0-.1zm1.3-1.3c-.1-.3-.2-.5-.4-.8-.1-.2-.2-.5-.3-.6-.1.2.1.4.2.6l.3.8c0 .2.2.2.2 0zm3.9-.3c.2-.4.3-.8.5-1.2 0-.1-.1-.2-.1-.1l-.6 1.2c-.1.2.1.2.2.1zm-1.4-5c0-.1-.1-.1-.1-.1-.3.4-.5.9-.8 1.4-.1.1.1.2.2.1.3-.4.6-.9.7-1.4zm5.8 4c.1-.3.3-.5.4-.8 0-.1-.1-.1-.1-.1-.2.2-.3.5-.5.8-.1.2-.3.5-.3.8 0 .1.1.1.1 0 .2-.2.2-.5.4-.7z"/><path d="M62 40.2s-.1 0 0 0zm6.1 3.1c0-.4-.7-.6-1.1-.8-.7-.4-1.3-.7-2-1s-1.4-.7-2-1c-.3-.1-.8-.5-1.1-.2-.1.1 0 .2.1.1.2-.2.7.2.9.3s.5.2.7.3c.5.2 1 .5 1.5.7s.9.5 1.4.7c.2.1.5.3.7.4s.8.3.8.6c-.1 0 .1 0 .1-.1z"/><path d="M67.4 43.3l-2.5-1.4c-.8-.4-1.6-.9-2.5-1.1-.1 0-.1.1 0 .1.8.5 1.7.8 2.5 1.2l2.4 1.3c.2.2.3 0 .1-.1zm-8.6-.8c1.1-.5 2.3-.6 3.6-.6v-.1c-2.5-.5-5.3 1-6.6 3.1-.7 1.2-1.1 2.6-1.1 4 0 .8.2 1.5.4 2.3.2.6.4 1.4.9 1.8.1.1.2 0 .1-.1-.8-1.1-1.2-2.7-1.3-4 0-1.4.3-2.7 1.1-3.9.7-1.1 1.7-1.9 2.9-2.5z"/><path d="M64.2 54.7c-.4.1-.7.3-1.1.4s-.7.2-1.1.2c-.7.1-1.5 0-2.2-.1-1.7-.4-3-1.4-4-2.7 0 0-.1 0-.1.1.9 1.4 2.4 2.4 4 2.8.8.2 1.5.2 2.3.1.7-.1 1.6-.2 2.2-.7.1 0 .1-.1 0-.1z"/><path d="M67.8 50.9c.2-.5.4-1.2.4-1.7 0-.1-.1-.1-.1 0-.2.6-.2 1.2-.5 1.8-.2.5-.5 1.1-.8 1.5-.7 1-1.7 1.8-2.8 2.4-.1 0 0 .1 0 .1 1.1-.5 2.1-1.3 2.8-2.3.4-.6.7-1.2 1-1.8zm.1-4.1c-.1-.7-.4-1.4-.8-2s-1-1.1-1.6-1.6c-1.1-.8-2.5-1.5-3.9-1.3v.1c1.5-.1 2.8.6 3.9 1.5a4.63 4.63 0 0 1 1.5 1.6l.8 1.8c0-.1.1-.1.1-.1z"/><path d="M68.2 47.8c-.1-.6-.2-1.1-.4-1.6h-.1c.1.5.3 1.1.3 1.7 0 .5-.1 1 0 1.5 0 0 .1.1.1 0 .2-.4.1-1 .1-1.6zm0 3.8c-.2-.1-.4-.3-.7-.3l-.1.1c.2.1.4.2.6.4.2 0 .3-.2.2-.2zm-.6 1.2c-.3-.2-.6-.3-.9-.3v.1c.3.1.5.2.8.4.2 0 .2-.1.1-.2z"/><path d="M68.2 52.4c.1-.2.3-.6-.1-.8-.1 0-.1 0-.1.1.2.3-.1.9-.5 1.1-.1 0-.1.1 0 .1.4.2.6-.3.7-.5zm-.3-.6c-.1-.1-.2-.1-.2-.1-.1 0-.2-.1-.3 0 0 0-.1.1 0 .1.1.1.2.1.3.1s.2.1.3.1c0-.1 0-.1-.1-.2z"/><path d="M67.8 52.1c0-.1-.1-.1-.2-.2-.1 0-.2-.1-.3-.1s-.1.1 0 .1c.1.1.2.1.2.2.1.1.1.1.3 0-.1.1 0 0 0 0zm-12.1.3c0-.1-.1-.1-.1-.1-.4.7-.7 1.4-1 2.1 0 .1.1.2.2.1.3-.7.7-1.4.9-2.1z"/><path d="M60.3 57.3l-2.9-1.6c-.9-.5-1.8-1-2.8-1.3-.1 0-.1.1 0 .1.8.6 1.9 1 2.8 1.4l2.8 1.5c.1.2.2 0 .1-.1z"/><path d="M61.7 55.4c-.3.3-.6.6-.8 1-.2.3-.5.6-.6.9 0 .1.1.2.1.1.3-.3.5-.7.7-1s.5-.6.6-1h0z"/><path d="M60.3 56.7l-2.5-1.5c-.8-.4-1.6-.9-2.5-1.1-.1 0-.1.1-.1.1l2.5 1.2c.8.4 1.6.9 2.4 1.4.2.2.3 0 .2-.1zm-1.4 0zm-.2-.2c-.1 0-.1.1 0 0 0 .1 0 .1 0 0z"/></g><path fill="#e6971c" d="M60.3 43c-1.9.4-3.5 1.6-4.1 3.5-.3 1-.4 2.1-.3 3.1s.6 1.8 1 2.7c0 0 0 .1-.1 0-1.2-1.7-1.5-4-.8-6 .7-1.7 2.3-3.1 4.3-3.3 0-.1 0 0 0 0zm6 8.3c-.8 1.6-2.1 2.5-3.8 3-.9.2-1.8.3-2.7 0-.8-.3-1.5-.8-2.2-1.3 0 0-.1 0 0 .1.7.6 1.6 1.1 2.4 1.3.9.3 1.8.2 2.8-.1 1.4-.4 3.1-1.4 3.5-3 .1-.1 0-.1 0 0zm-.1-5.8c-.9-1.3-2.3-2.5-4.1-2.8 1.8.5 3.1 1.5 4.1 2.8.9 1.5 1 3 .6 4.6 0 .1.1.1.1 0 .6-1.5.3-3.3-.7-4.6z"/><path fill="#e4251d" d="M37.8 54.4c0 .3 1 .5 1 .8-.1 3.6-.9 6.4-1.8 6.4s-10-3.2-10-7.2 9.5-7.2 10.4-7.2c.8 0 1.3 2.8 1.4 6.4 0 .3-1 .6-1 .8z"/><path fill="#d81613" d="M38.2 59.2c-.5.6-1.1 1.1-1.8 1.1-1.1.1-2.3-.6-3.2-1.1s-1.8-1.1-2.5-1.9c-.2-.2-1-1.2-.4-1.4.5-.1 1 .1 1.4-.1.2-.1.6-.4.3-.6a.76.76 0 0 0-.4-.2c-.7-.2-1.3-.2-2-.4 0 0-.1 0 0-.1.1-.4.5-.7.9-.8.3-.1.6-.2.8-.4.4-.2.3-.6-.2-.6-.4 0-1.8.6-1.9 0-.1-.8 1.1-1.6 1.6-2l1.3-1c.2-.1.6-.4 0-.3h-.2c-2.6 1.3-5.1 3.2-5.1 5.2 0 4 9.1 7.2 10 7.2.5 0 1-1 1.4-2.6.1-.1 0-.1 0 0z"/><path fill="#e63b1d" d="M37.8 54.4c0-.3 1-.5 1-.8-.1-3.6-.6-6.4-1.4-6.4-.2 0-1.1.2-2.3.7.7-.2 1.6-.3 2.2.1s.7 1.1.8 1.7c.1.9.1 1.8 0 2.7-.1.6-.2 1.3-.6 1.7h-.1c0 .2 0 .4.1.6.3.5.8.8 1 1.3.1.4.1.8.1 1.2 0 .2 0 .3.1.4l.2-2.5c-.1-.2-1.1-.4-1.1-.7z"/><path d="M36.4 50.7c-.8.4-1.8.5-2.6.8-.4.1-1.7.5-1.7 1.1 0 .2.2.2.3.2.2-.1.4-.4.7-.6.4-.2.8-.4 1.2-.5l2.1-1zm-1.3 2.5c-.7.2-1.5.2-2.2.4-.5.1-1.2.1-1.5.6 0 .1 0 .1.1.1.2 0 .4-.1.7-.1.3-.1.7-.2 1.1-.2.7-.1 1.3-.3 2-.6-.1-.1-.1-.3-.2-.2zm1.2 2.4c-1-.2-2.3-.5-3.3-.3-.1 0-.1.2 0 .2.5.1 1 .1 1.5.1.6 0 1.2.1 1.7.1.2 0 .2-.1.1-.1zm-.1 2.3c-1.6-.3-3-1-4.5-1.5-.2-.1-.3.2-.1.3 1.4.8 3 1.3 4.6 1.4v-.2zm-1.1-8.7c-.9.2-1.7.4-2.5.8l-1.2.6c-.3.2-.7.3-.9.7 0 .1 0 .1.1.1.3 0 .6-.2.8-.4l1.2-.6c.8-.5 1.7-.8 2.5-1.2.1.1 0 0 0 0z" fill="#d81613"/><path fill="#e4251d" d="M13 54.4c0 .3-1 .5-1 .8.1 3.6.9 6.4 1.8 6.4s10-3.2 10-7.2-9.5-7.2-10.4-7.2c-.8 0-1.3 2.8-1.4 6.4 0 .3 1 .6 1 .8z"/><path fill="#d81613" d="M12.6 59.2c.5.6 1.1 1.1 1.8 1.1 1.1.1 2.3-.6 3.2-1.1s1.8-1.1 2.5-1.9c.2-.2 1-1.2.4-1.4-.5-.1-1 .1-1.4-.1-.2-.1-.6-.4-.3-.6a.76.76 0 0 1 .4-.2c.7-.2 1.3-.2 2-.4 0 0 .1 0 0-.1-.1-.4-.5-.7-.9-.8-.3-.1-.6-.2-.8-.4-.4-.2-.3-.6.2-.6.4 0 1.8.6 1.9 0 .1-.8-1.1-1.6-1.6-2l-1.3-1c-.2-.1-.6-.4 0-.3h.2c2.6 1.3 5.1 3.2 5.1 5.2 0 4-9.1 7.2-10 7.2-.5 0-1-1-1.4-2.6-.1-.1-.1-.1 0 0z"/><path fill="#e63b1d" d="M13 54.4c0-.3-1-.5-1-.8.1-3.6.6-6.4 1.4-6.4.2 0 1.1.2 2.3.7-.7-.2-1.6-.3-2.2.1s-.7 1.1-.8 1.7c-.1.9-.1 1.8 0 2.7.1.6.2 1.3.6 1.7h.1c0 .2 0 .4-.1.6-.3.5-.8.8-1 1.3-.1.4-.1.8-.1 1.2 0 .2 0 .3-.1.4l-.2-2.5c.1-.2 1.1-.4 1.1-.7z"/><path d="M14.4 50.7c.8.4 1.8.5 2.6.8.4.1 1.7.5 1.7 1.1 0 .2-.2.2-.3.2-.2-.1-.4-.4-.7-.6-.4-.2-.8-.4-1.2-.5-.7-.3-1.5-.6-2.1-1h0zm1.3 2.5c.7.2 1.5.2 2.2.4.5.1 1.2.1 1.5.6 0 .1 0 .1-.1.1-.2 0-.4-.1-.7-.1-.3-.1-.7-.2-1.1-.2-.7-.1-1.3-.3-2-.6 0-.1.1-.3.2-.2zm-1.2 2.4c1-.2 2.3-.5 3.3-.3.1 0 .1.2 0 .2-.5.1-1 .1-1.5.1-.6 0-1.2.1-1.7.1-.2 0-.2-.1-.1-.1zm.1 2.3c1.6-.3 3-1 4.5-1.5.2-.1.3.2.1.3-1.4.8-3 1.3-4.6 1.4-.1-.1-.1-.2 0-.2zm1.1-8.7c.9.2 1.7.4 2.5.8l1.2.6c.3.2.7.3.9.7 0 .1 0 .1-.1.1-.3 0-.6-.2-.8-.4l-1.2-.6c-.9-.5-1.7-.8-2.5-1.2-.1.1-.1 0 0 0z" fill="#d81613"/><path fill="#e4251d" d="M28.4,55.8c0,0.9-0.7,1.6-1.6,1.6H24c-0.9,0-1.6-0.7-1.6-1.6v-2.8c0-0.9,0.7-1.6,1.6-1.6h2.8    c0.9,0,1.6,0.7,1.6,1.6V55.8z"/><path fill="#bf1818" d="M28.3 52.6v.8c-.2 1.3-1 2.2-2.4 2.5-1.1.2-2.3-.2-2.9-1.2-.4-.7-.5-1.5-.6-2.2-.1.2-.1.4-.1.6v2.8a1.58 1.58 0 0 0 1.6 1.6h2.8a1.58 1.58 0 0 0 1.6-1.6v-2.8c.1-.2 0-.4 0-.5z"/><path fill="#e63d28" d="M27.5 52.2c0 .5-1 1-2.1 1-1.2 0-2.1-.4-2.1-1 0-.5 1-.4 2.1-.4s2.1-.1 2.1.4z"/><g fill="#301b16"><path d="M31.4 27.2c-3.7-2.1-19.5-.5-19.5-.5s-.7 2-.1 2.8c.3.5 1.3.6 1.3 1.2.1 2.9.2 6.8 2 9 3.4 4.3 12.7 3.8 15.6-.2 1.6-2.1 2.1-4.5 2.4-7.7.2-1.9-.5-3.9-1.7-4.6zm-.3 5.1c-.2 2.5-.7 4.4-2 6.2-2.4 3.2-9.8 3.6-12.6.2-1.4-1.8-1.6-4.9-1.6-7.2 0-1.7.4-3.4 2.1-3.5 3.7-.4 10.5-.6 12.7.7 1 .4 1.5 2.1 1.4 3.6zm6.3-.4c.3 3.1.8 5.5 2.4 7.7 2.9 4 12.2 4.5 15.6.2 1.8-2.2 1.8-6.1 2-9 0-.7 1-.7 1.3-1.2.5-.9-.1-2.8-.1-2.8s-15.8-1.6-19.5.5c-1.3.6-1.9 2.6-1.7 4.6zm3.4-3.3c2.2-1.3 9-1.1 12.7-.7 1.6.2 2.1 1.8 2.1 3.5 0 2.3-.2 5.5-1.6 7.2-2.8 3.5-10.2 3-12.6-.2-1.3-1.7-1.7-3.7-2-6.2-.2-1.4.4-3.1 1.4-3.6z"/><path d="M37.5 32.7s-1.1-1.3-2.4-1.3-2.1 1.4-2.1 1.4l-.8-5s.8.6 3 .6c2.1 0 3.3-.7 3.3-.7l-1 5z"/></g><path opacity=".7" fill="#222" d="M.8.8h81V90H.8z"/><path d="M25.6 40.5h-.7c-.1 0-.1 0-.2-.1l-.1-.1-.3-.8h-1.7l-.3.8-.1.1s-.1.1-.2.1h-.7l1.7-4.4h.9l1.7 4.4zm-1.5-1.7l-.5-1.3c0-.1-.1-.2-.1-.2 0-.1-.1-.2-.1-.3 0 .1-.1.2-.1.3s-.1.2-.1.2l-.5 1.3h1.4zm4.8.6s.1 0 .1.1l.4.4c-.2.2-.4.4-.7.5s-.6.2-.9.2-.6-.1-.9-.2-.5-.3-.7-.5-.3-.4-.4-.7-.1-.6-.1-.9c0-.2 0-.4.1-.6 0-.2.1-.4.2-.5a1.38 1.38 0 0 1 .3-.4c.1-.1.3-.2.4-.3.2-.1.3-.2.5-.2s.4-.1.6-.1h.5c.1 0 .3.1.4.1s.2.1.3.2.2.1.3.2l-.3.4-.1.1h-.1s-.1 0-.1-.1c0 0-.1-.1-.2-.1s-.2-.1-.3-.1-.2-.1-.4-.1-.3 0-.5.1a1.38 1.38 0 0 0-.4.3c-.1.1-.2.3-.3.5s-.1.4-.1.6 0 .4.1.6.2.3.3.5a1.38 1.38 0 0 0 .4.3.9.9 0 0 0 .5.1h.3c.1 0 .2 0 .2-.1.1 0 .1-.1.2-.1s.1-.1.2-.1c0-.1.1-.1.2-.1-.1 0-.1 0 0 0zm3.9 0s.1 0 .1.1l.4.4c-.2.2-.4.4-.7.5s-.6.2-.9.2-.6-.1-.9-.2-.5-.3-.7-.5-.3-.4-.4-.7-.1-.6-.1-.9c0-.2 0-.4.1-.6 0-.2.1-.4.2-.5.1-.2.2-.3.3-.4s.3-.2.4-.3c.2-.1.3-.2.5-.2s.4-.1.6-.1h.5c.1 0 .3.1.4.1s.2.1.3.2.2.1.3.2l-.3.4-.1.1h-.1s-.1 0-.1-.1c0 0-.1-.1-.2-.1s-.2-.1-.3-.1-.2-.1-.4-.1a.9.9 0 0 0-.5.1c-.2.1-.3.2-.4.3s-.2.3-.3.5-.1.4-.1.6 0 .4.1.6.2.3.3.5c.1.1.2.2.4.3a.9.9 0 0 0 .5.1h.3c.1 0 .2 0 .2-.1.1 0 .1-.1.2-.1s.1-.1.2-.1c.1-.1.1-.1.2-.1-.1 0 0 0 0 0zm1.9-2.6v1.1h1.5v.7h-1.5v1.1h1.9v.7h-2.8V36h2.8v.7h-1.9zm5 .2s-.1 0 0 0c-.1.1-.2.1-.2.1h-.1c-.1 0-.1-.1-.2-.1s-.1-.1-.2-.1h-.3c-.2 0-.4 0-.5.1-.1 0-.2.1-.2.3 0 .1 0 .2.1.2l.2.2c.1 0 .2.1.3.1s.2.1.4.1.2.1.4.2c.1.1.2.1.3.2s.2.2.2.3.1.3.1.5 0 .4-.1.6-.2.3-.3.5-.3.2-.5.3-.4.1-.6.1h-.4c-.1 0-.3-.1-.4-.1s-.2-.1-.4-.2c-.1-.1-.2-.1-.3-.2l.3-.4.1-.1h.1c.1 0 .1 0 .2.1s.1.1.2.1.2.1.3.1.2.1.4.1.4 0 .5-.1.2-.2.2-.4c0-.1 0-.2-.1-.3L39 39c-.1 0-.2-.1-.3-.1s-.2-.1-.4-.1-.2-.1-.4-.1c-.1-.1-.2-.1-.3-.2s-.2-.2-.2-.3-.1-.3-.1-.5 0-.3.1-.5.2-.3.3-.4.3-.2.5-.3.4-.1.6-.1c.3 0 .5 0 .7.1l.6.3-.4.2zm3.4 0c-.1 0-.1 0 0 0-.1.1-.2.1-.2.1h-.1s-.1-.1-.2-.1-.1-.1-.2-.1h-.3c-.2 0-.4 0-.5.1s-.2.2-.2.4c0 .1 0 .2.1.2l.2.2c.1 0 .2.1.3.1s.2.1.4.1.2.1.4.2c.1.1.2.1.3.2s.2.2.2.3c.1.1.1.3.1.5s0 .4-.1.6-.2.2-.3.3-.3.2-.5.3-.4.1-.6.1h-.4c-.1 0-.3-.1-.4-.1s-.2-.1-.4-.2c-.1-.1-.2-.1-.3-.2l.3-.4.1-.1h.1c.1 0 .1 0 .2.1s.1.1.2.1.2.1.3.1.2.1.4.1.4 0 .5-.1.2-.2.2-.4c0-.1 0-.2-.1-.3l-.2-.2c-.1 0-.2-.1-.3-.1s-.2-.1-.4-.1-.2-.1-.4-.1c-.1-.1-.2-.1-.3-.2s-.2-.2-.2-.3-.1-.3-.1-.5 0-.3.1-.5.2-.3.3-.4.3-.2.5-.3.4-.1.6-.1c.3 0 .5 0 .7.1l.6.3-.4.3zm5.2 1.3c0 .3-.1.6-.2.9s-.3.5-.5.7-.4.4-.7.5-.6.2-.9.2-.6-.1-.9-.2-.5-.3-.7-.5-.3-.4-.5-.7c-.1-.3-.2-.6-.2-.9s.1-.6.2-.9.3-.5.5-.7.4-.4.7-.5.6-.2.9-.2.6.1.9.2.5.3.7.5.3.4.5.7c.1.3.2.6.2.9zm-.9 0c0-.2 0-.4-.1-.6s-.1-.3-.3-.5c-.1-.1-.2-.2-.4-.3s-.3-.1-.5-.1-.4 0-.5.1c-.2.1-.3.2-.4.3s-.2.3-.3.5-.1.4-.1.6 0 .4.1.6.1.3.3.5c.1.1.2.2.4.3a.9.9 0 0 0 .5.1c.2 0 .4 0 .5-.1s.3-.2.4-.3.2-.3.3-.5c0-.2.1-.4.1-.6zm5.1 2.2h-.8c-.2 0-.3-.1-.3-.2l-.9-1.3c0-.1-.1-.1-.1-.1h-.5v1.7H49v-4.4h1.4c.3 0 .6 0 .8.1s.4.2.5.3a1.38 1.38 0 0 1 .3.4c.1.2.1.3.1.5 0 .1 0 .3-.1.4s-.1.2-.2.4l-.3.3c-.1.1-.2.1-.4.2.1 0 .1.1.2.1s.1.1.1.2l1.1 1.4zm-2.1-2.3c.1 0 .3 0 .4-.1.1 0 .2-.1.3-.2l.2-.2v-.3c0-.2-.1-.4-.2-.5s-.3-.2-.6-.2H50v1.4h.4zm3.5 2.3H53v-4.4h.9v4.4zm1.8-3.7v1.1h1.5v.7h-1.5v1.1h1.9v.7h-2.8V36h2.8v.7h-1.9zm5 .2s-.1 0 0 0c-.1.1-.2.1-.2.1h-.1s-.1-.1-.2-.1-.1-.1-.2-.1h-.3c-.2 0-.4 0-.5.1-.1 0-.2.1-.2.3 0 .1 0 .2.1.2l.2.2c.1 0 .2.1.3.1s.2.1.4.1.2.1.4.2c.1.1.2.1.3.2s.2.2.2.3c.1.1.1.3.1.5s0 .4-.1.6-.2.3-.3.5-.3.2-.5.3-.4.1-.6.1h-.4c-.1 0-.3-.1-.4-.1s-.2-.1-.4-.2-.2-.3-.3-.4l.3-.4.1-.1h.1c.1 0 .1 0 .2.1.1 0 .1.1.2.1s.2.1.3.1.2.1.4.1.4 0 .5-.1.2-.2.2-.4c0-.1 0-.2-.1-.3l-.2-.2c-.1 0-.2-.1-.3-.1s-.2-.1-.4-.1-.2-.1-.4-.1c-.1-.1-.2-.1-.3-.2s-.2-.2-.2-.3c-.1-.1-.1-.3-.1-.5s0-.3.1-.5.2-.3.3-.4.3-.2.5-.3.4-.1.6-.1c.3 0 .5 0 .7.1l.6.3-.4.4z" fill="#fff"/><path fill="#b33d74" d="M49.6,55.1H33c-2.5,0-4.5-2-4.5-4.5v0c0-2.5,2-4.5,4.5-4.5h16.6c2.5,0,4.5,2,4.5,4.5v0   C54.1,53.1,52.1,55.1,49.6,55.1z"/><g fill="#fff"><path d="M32.7 52c-.1-.1-.2-.1-.2-.2v-.2c0-.1.1-.1.1-.2.1 0 .1.1.2.1h.3c.1 0 .2 0 .3-.1s.1-.2.1-.3v-.2c0-.1-.1-.2-.2-.3l-.5-.6a.76.76 0 0 1-.2-.4c0-.1-.1-.2-.1-.4s.1-.4.2-.6c.2-.1.4-.2.7-.2.2 0 .4 0 .5.1.1 0 .2.1.2.2s0 .2-.1.3c0 0-.1 0-.2-.1h-.3c-.1 0-.2 0-.3.1-.1 0-.1.1-.1.2v.2c0 .1.1.1.1.2l.5.6c.1.2.2.3.2.4s.1.3.1.4c0 .3-.1.5-.2.7s-.4.3-.7.3c-.1.1-.3.1-.4 0z"/><path d="M36.2 52h-.6v-1.6h-.5v1.7h-.6v-3.5h.6V50h.5v-1.4h.6V52zm.9 0c-.1-.1-.2-.3-.3-.5-.1-.3-.1-.6-.1-1.1 0-.4 0-.8.1-1.1s.2-.4.3-.6c.1-.1.3-.2.5-.2s.4.1.5.2.2.3.3.5c.1.3.1.6.1 1.1s0 .8-.1 1.1-.2.5-.3.6-.3.2-.5.2c-.2-.1-.4-.1-.5-.2zm.7-.6c0-.1.1-.2.1-.4v-1.4c0-.1 0-.3-.1-.4 0-.1-.1-.1-.2-.1s-.1 0-.2.1-.1.2-.1.4v1.5c0 .2 0 .3.1.3 0 .1.1.1.2.1s.2 0 .2-.1zm2.4-2.8l.3.3c.1.1.1.4.1.6 0 .4-.1.7-.3.9s-.4.2-.7.2h0v1.5H39v-3.5h1.2zm-.3 1.5c0-.1.1-.3.1-.5s0-.3-.1-.4-.1-.2-.2-.2h-.1v1.2h.1c.1 0 .2-.1.2-.1zm3.4-1.5h.6v3.5h-.5l-.5-1.3c-.1-.2-.2-.6-.3-1.1 0 .4.1.8.1 1.2v1.2h-.6v-3.4c0-.1 0-.1.1-.1h.4l.5 1.3c.1.2.2.6.3 1.1 0-.4-.1-.8-.1-1.1v-1.3zm1.4 3.4c-.1-.1-.2-.3-.3-.5-.1-.3-.1-.6-.1-1.1 0-.4 0-.8.1-1.1s.2-.4.3-.6c.1-.1.3-.2.5-.2s.4.1.5.2.2.3.3.5c.1.3.1.6.1 1.1s0 .8-.1 1.1-.2.5-.3.6-.3.2-.5.2c-.2-.1-.4-.1-.5-.2zm.8-.6c0-.1.1-.2.1-.4v-1.4c0-.1 0-.3-.1-.4 0-.1-.1-.1-.2-.1s-.1 0-.2.1-.1.2-.1.4v1.5c0 .2 0 .3.1.3 0 .1.1.1.2.1s.1 0 .2-.1zm4.3-2.8l-.6 3.5h-.4c-.1 0-.1 0-.2-.1 0-.1-.1-.1-.1-.2l-.1-.6c0-.2-.1-.7-.2-1.3-.1.6-.1 1-.2 1.3l-.1.8h-.5c-.1 0-.1 0-.2-.1s-.1-.1-.1-.2c-.1-.3-.2-.9-.3-1.6l-.2-1.5v-.2h.6l.2 1.6c.1.5.1.9.1 1.3h0c0-.4.1-.8.1-1.3l.2-1.3v-.1h.5l.3 1.5c.1.3.1.8.1 1.3h0c0-.4.1-.9.1-1.3l.2-1.5v-.1h.8z"/></g></svg>