<svg xmlns="http://www.w3.org/2000/svg" viewBox="0 0 82.5 90.6"  xmlns:v="https://vecta.io/nano"><path fill="#fff" stroke="#e2e2e2" stroke-width=".562" stroke-miterlimit="10" d="M.3.3h81.9v90H.3z"/><path fill="#f2f2f2" d="M.6.5h40.7V90H.6z"/><path fill="#fff2db" d="M33.2 48.4c0-.1 0-.2-.1-.3-.1 0-.2-.1-.2-.1 0-.1.1-.2.1-.3 0 0 0-.1.1-.1v-.5c.1-.5.1-1 0-1.4 0-.3-.1-.5-.3-.7.1-.1.1-.3.2-.4.1-.2 0-.5-.2-.5-.1 0-.2-.1-.3-.1-.1-.2-.2-.3-.4-.5-.3-.2-.7-.4-1.1-.4-.1 0-.1-.1-.2-.1-.1-.1-.3-.1-.4 0s-.2.2-.2.3c-.1.1-.2.2-.2.4h0-.2c-.6-.1-1.4.3-1.8.7-1.1.9-1.4 2.8-.8 4.1.1.1.2.3.3.4-.1.1-.1.2-.2.3-.1.2 0 .4.2.4.4.1.8.2 1.1.5.3.2.5.5.8.5s.6-.3.8-.6c.3 0 .6-.1.9-.2.6-.2 1.1-.6 1.4-1.2.1 0 .1.1.2.1.3.3.6 0 .5-.3zm-1.9-4.3c.1.1.1.1.2.1h0c-.2-.1-.3-.2-.5-.2h0s.1 0 .3.1z"/><path d="M31.2 43.2c.2.2.5.3.8.5s.6.4.9.5c.1 0 .2 0 .2-.1.3-.4.4-.9.6-1.3.1-.2.1-.3.2-.5l.3-.8c.2-.1.3-.4.2-.7-.1-.4-.6-.6-.9-.7h-.1c-.3-.2-.6-.3-.9-.2-.1 0-.1.1-.2.2-.1 0-.1.1-.1.1-.4.8-.8 1.5-1.3 2.3 0 .1-.1.2 0 .2l-.1.1c-.1.1 0 .2.1.3s.2.1.3.1zm-2 7.4l-.6-.3h-.1c-.1-.1-.2-.2-.4-.3h-.5c-.1-.2-.3-.2-.4-.1-.2.2-.3.5-.4.8-.2.4-.4.7-.5 1.1-.2.4-.6.9-.4 1.4.1.2.3.5.6.5 0 .1.2.2.3.2h0c.1.1.1.1.3.1s.5.1.7-.1a3.04 3.04 0 0 0 .5-.7l1.1-2c0-.3-.1-.5-.2-.6z" fill="#e6971c"/><path fill="#deceb7" d="M32.7 48.3h0l.2-.2c.1-.2.2-.3.2-.5 0-.1 0-.1-.1-.2.1-.2.1-.3.1-.5l.1-.1c.2-.5-.1-1.1-.4-1.6l.1-.1c.2-.4.5-.8 0-1-.7-.4-1.5-.8-2.3-1.1h0-.1c-.1 0-.1 0-.1.1l-.1.1c-.1.1-.1.2-.2.3s-.1.1 0 .2h0c-.3 0-.6.1-.9.2-.5.2-1 .5-1.3.9-.6.7-1.1 2.1-.6 3l.3.8c-.1.2-.3.5-.4.8v.1c.2.2.6.3.9.4.4.2.8.4 1.2.7.5.2.7-.2.9-.5 0 0 0-.1.1-.1v-.1c.9 0 2-.6 2.3-1.4 0 0 .1-.1.1-.2zm-2.1-5l1.8.9c.4.3.3.4.2.8-.2-.3-.5-.5-.7-.7-.4-.3-1-.6-1.6-.6a1.38 1.38 0 0 0 .3-.4zm-.6.8h.6c.4.1.8.2 1.1.5.6.5 1.1 1.2 1.1 2 0 .2-.1.5-.1.7l-.1.1c-.1.2-.2.4-.3.7v.1c-.1.2-.3.3-.4.4-.5.4-1.1.6-1.7.9-.3 0-.6 0-.9-.1-.3-.3-.7-.4-1-.7 0-.1-.1-.1-.2-.2-.1-.2-.2-.3-.3-.5s-.2-.3-.3-.5c0-.1 0-.3-.1-.4 0-.8.2-1.6.7-2.2h0c.6-.5 1.2-.7 1.9-.8zm-.5 6.3c-.2 0-.7-.4-.8-.5-.3-.1-.6-.3-.8-.4-.1-.1-.3-.2-.3-.4 0-.1.1-.3.1-.5.1.2.3.3.4.4.2.5 1.2.8 1.9.9-.2.2-.4.5-.5.5z"/><path fill="#fffffa" d="M32.4 46.8s-.1 0 0 0c-.1-.2-.1-.3-.2-.5 0 0-.1 0-.1.1.2.2.1.6 0 .8 0-.1 0-.2-.1-.3v-.8c0-.1-.1-.1-.1 0v.6l-.1-.5v.4s-.1-.1-.2-.1v-.4c0-.1-.1 0-.1 0 0 .1 0 .2-.1.4-.1 0-.1 0-.2-.1V46h-.1v.1H31c0 .1 0 .2-.1.2s-.2 0-.2.1c.1-.2.1-.3.1-.5h-.1c-.1.2-.1.4-.2.6-.1.1-.1.2-.2.3h0c-.3 0-.6.2-.8-.1 0 0 0-.1-.1-.1 0-.2 0-.3.1-.5.1-.1.2-.1.3-.2h.1v-.1h-.2c.3.2.3.2.4.2v-.1a.76.76 0 0 0-.4.2c-.1 0-.1.1-.2.1 0 0 0 .1-.1.1v.1c0-.1.1-.3.1-.4.2-.2.4-.4.7-.5v-.1l-.6.3v-.2c.2-.1.3-.2.5-.3 0 0 0-.1 0 0-.2 0-.3.1-.5.2 0-.1 0-.1-.1-.1.1-.1.2-.1.3-.1v-.1c-.1 0-.2.1-.3.1-.1-.1-.2-.1-.3-.1.2-.1.3-.2.6-.3 0 0 0-.1 0 0-.3.1-.5.2-.7.3-.5.2-.9.8-1 1.3-.2.7 0 1.4.5 1.9.6.6 1.4.7 2.1.5.4.1.8-.3 1-.6.4-.3.6-.8.7-1.4zm-2 .2l-.1.1H30c-.1 0-.1-.1-.2-.2.1.3.4.2.6.1zm-.9-.3s0 .1 0 0c0 .1 0 .1 0 0 0 .1 0 .1 0 0 0 .1 0 .1 0 0h0z"/><path d="M33 47.4c0-.1-.1-.1-.2 0-.1.2-.2.5-.3.7h.1c.2-.2.3-.5.4-.7zm-.6 1.1s0-.1 0 0c-.1 0-.2.1-.2.2l-.2.2s0 .1 0 0c.2-.1.4-.2.4-.4zm-4.9-1.2h0c0-.1 0-.1-.1-.1s-.1 0-.1.1h0s0 .1.2 0c-.1.1-.1 0 0 0zm.1.5c0-.1 0-.1-.1-.2 0-.1-.1 0-.1 0 0 .1 0 .2.1.2 0 .1.1.1.2.1h0c-.1 0-.1 0-.1-.1z" fill="#fffdf4"/><path d="M27.8 53.6c0-.1-.1-.3-.2-.3-.3-.1-.6-.3-.8-.4s-.4-.4-.7-.3c-.1 0-.2.1-.2.2 0 .3.3.5.5.7.3.2.6.4.9.5.1.1.3.1.4-.1.1-.1.1-.2.1-.3zm6.5-12.8l-.9-.6c-.2-.1-.5-.3-.8-.3-.5 0-.5.8 0 .8a1.44 1.44 0 0 0 .3.2c.1.1.2.1.3.2.2.1.4.3.6.4.3.3.8-.4.5-.7z" fill="#c67c08"/><path fill="#fcab2c" d="M31.3 43c-.1.1-.3 0-.3-.2.1-.4.4-.7.5-1l.6-1c.1-.1.3 0 .2.1-.1.4-.3.8-.5 1.2-.1.3-.2.7-.5.9zm-4 8.1c.2-.3.5-.7.3-1.1 0-.1-.1-.1-.1-.1-.4.1-.5.6-.6.9-.2.4-.5.9-.6 1.3 0 .2.2.3.3.1.3-.2.5-.7.7-1.1z"/><path d="M34.3 41.6c.1-.2.1-.4.2-.5.1-.2.1-.2-.1-.4-.3-.3-.6-.5-1-.6-.2-.1-.7-.3-.9-.2l-.3.3-.2.5-1.3 2.4s0 .1.1 0c.4-.6.7-1.3 1.1-1.9.2-.3.3-.6.5-.9 0-.1.1-.2.1-.2.2-.2.2-.2.4-.1.2 0 .4.1.6.2.3.1.9.5.9.8 0 .1-.1.3-.1.6-.2.1-.2.2-.3.4-.3.7-.7 1.4-1.1 2.1 0 .1.1.1.1.1.5-.8 1-1.7 1.3-2.6zM28 53.4c-.1.2-.2.3-.3.4-.1.2-.1.2-.4.2-.4-.1-.7-.2-1-.4-.2-.1-.6-.4-.6-.6 0-.1.1-.3.1-.4l.3-.5 1.2-2.4h.1c-.3.7-.6 1.3-1 1.9-.2.3-.3.6-.5.9 0 .1-.1.1-.1.2-.1.2 0 .3.1.4s.3.3.5.4c.3.2.9.5 1.1.3.1-.1.3-.3.5-.4 0-.2.1-.4.2-.6.4-.6.8-1.3 1.1-2.1 0-.1.1 0 .1.1-.3 1-.8 1.8-1.4 2.6z" fill="#804b00"/><g fill="#3c2a12"><path d="M30.1 46.7c-.1-.7 0-1.4-.1-2h0c-.1.6 0 1.3.1 2-.1 0 0 0 0 0z"/><path d="M30.3 46.9c0-.1 0-.2-.1-.2s-.2 0-.2.2v.1h.1s.1 0 .2-.1c-.1.1-.1 0 0 0z"/><path d="M29.8 47.6c.1-.2.2-.4.2-.6h0c-.2.2-.2.4-.2.6-.2.2-.3.4-.3.7h0c.1-.2.2-.5.3-.7zm2.4-2.1c-.1 0-.2.1-.3.1-.1.1-.2.1-.3.2v.1c.1 0 .2-.1.3-.2.1 0 .2-.1.3-.2h0zm.3 1.2c-.1-.1-.2 0-.3 0s-.2 0-.3.1c0 0 0 .1 0 0h.3c.1 0 .2 0 .3-.1h0zm-.4 1.2c0-.1-.1-.1-.2-.1s-.2-.1-.3-.1v.1c.1.1.2.1.2.2.1-.1.2-.1.3-.1h0z"/><path d="M31.3 48.8c0-.1-.1-.2-.1-.3s-.1-.2-.2-.2h0c0 .1.1.2.1.3s.1.2.2.2c-.1.1 0 .1 0 0zm-1.1.4v-.6h-.1v.3c0 .1 0 .2.1.3h0zm-.9-.8h0l-.2.2s0 .1-.1.1c0 0-.1.1 0 .1h.1l.2-.4zm-.7-.6c-.2.1-.4.2-.5.4h0c.2-.1.4-.2.5-.4.1.1.1 0 0 0zm-.2-.9h-.3c-.1 0-.2 0-.3.1h.4s.1 0 .2-.1c0 .1 0 0 0 0zm.3-.9c-.1-.1-.2-.1-.3-.2s-.2-.1-.3-.1v.1c.1.1.2.1.3.2h.3c0 .1 0 0 0 0zm.5-.6c-.1-.1-.1-.2-.2-.4 0-.1-.1-.2-.2-.3h0c0 .1.1.2.1.3.2.2.2.3.3.4 0 .1.1.1 0 0zm1.9-.1c.1-.2.2-.4.2-.5 0 0 0-.1-.1 0l-.3.6c0-.1.1-.1.2-.1-.1 0 0 0 0 0zm-.7-2.3s0-.1 0 0c-.2.2-.3.4-.4.6 0 0 .1.1.1 0 .1-.2.3-.4.3-.6zm2.7 1.8c.1-.1.1-.2.2-.4 0 0 0-.1 0 0-.2.1-.3.2-.2.4-.1.1-.2.2-.2.3h.1c0-.1 0-.2.1-.3z"/><path d="M30.4 43h0z"/><path d="M33.2 44.4c0-.2-.3-.3-.5-.4-.3-.2-.6-.3-.9-.5s-.6-.3-.9-.4c-.1-.1-.4-.2-.5-.1v.1c.1-.1.3.1.4.1.1.1.2.1.3.2.2.1.4.2.7.3l.6.3c.1.1.2.1.3.2.1 0 .4.1.5.2-.1.1 0 .1 0 0z"/><path d="M32.9 44.4l-1.2-.6c-.4-.2-.7-.4-1.1-.5v.1l1.1.6c.4.1.8.3 1.2.4 0 .1.1 0 0 0zm-4-.4a4.53 4.53 0 0 1 1.6-.3h0c-1.2-.2-2.4.4-3 1.4-.3.5-.5 1.2-.5 1.8 0 .4.1.7.2 1s.2.6.4.8h.1c-.4-.5-.6-1.2-.6-1.8s.2-1.3.5-1.8c.4-.4.8-.8 1.3-1.1z"/><path d="M31.4 49.6c-.2 0-.3.1-.5.2-.2 0-.3.1-.5.1-.3 0-.7 0-1-.1-.8-.2-1.4-.6-1.8-1.2h0c.4.7 1.1 1.1 1.9 1.3.3.1.7.1 1.1.1.2 0 .6-.1.8-.4.1.1.1 0 0 0z"/><path d="M33.1 47.9c.1-.2.2-.5.2-.8h0c-.2.3-.2.5-.2.8-.2.3-.3.5-.5.7-.3.5-.8.8-1.3 1.1 0 0 0 .1 0 0 .5-.2 1-.6 1.3-1.1.2-.2.3-.4.5-.7zm0-1.9c0-.3-.2-.7-.4-.9-.2-.3-.4-.5-.7-.7-.5-.4-1.1-.7-1.8-.6h0c.7 0 1.3.3 1.8.7.3.2.5.4.7.7.2.2.2.5.4.8h0z"/><path d="M33.2 46.5c0-.3-.1-.5-.2-.7h0c.1.2.1.5.2.7-.1.3-.1.5-.1.7h0c.2-.2.2-.5.1-.7zm0 1.7c-.1-.1-.2-.1-.3-.1h0c.1.1.2.1.3.1 0 .1.1 0 0 0zm-.2.6c-.1-.1-.3-.1-.4-.1h0c.1 0 .2.1.4.1 0 .1 0 0 0 0zm.3-.2c.1-.1.1-.3 0-.4h0c.1.2 0 .4-.2.5v.1c0 .1.1-.1.2-.2z"/><path d="M33.1 48.3h0-.2.2c-.1.1 0 .1 0 0 0 .1 0 0 0 0zm-.1.2c0-.1 0-.1 0 0-.1-.1-.2-.1-.2-.1h0l.1.1h.1zm-5.5.1c.1-.1 0-.1 0 0-.2.3-.4.6-.5.9 0 .1.1.1.1 0 .2-.3.3-.6.4-.9z"/><path d="M29.6 50.8l-1.3-.7c-.4-.2-.8-.5-1.3-.6h0c.4.3.9.4 1.3.7.4.2.8.5 1.3.7 0 .1.1 0 0-.1z"/><path d="M30.3 50c-.1.1-.3.3-.4.5-.1.1-.2.3-.3.4 0 0 0 .1.1 0s.2-.3.3-.5c.1-.1.2-.3.3-.4 0 0 0-.1 0 0zm-.7.6c-.4-.3-.7-.5-1.1-.7s-.7-.4-1.1-.5c0 0-.1 0 0 .1l1.1.6c.4.1.7.3 1.1.5 0 .1.1 0 0 0zm-.6 0h0zm-.1-.1s-.1 0 0 0h0z"/></g><path fill="#e6971c" d="M29.6 44.3c-.9.2-1.6.7-1.9 1.6-.2.4-.2 1-.1 1.4.1.5.3.8.5 1.2h0c-.6-.8-.7-1.8-.4-2.7.3-.8 1-1.5 1.9-1.5 0-.1 0 0 0 0zm2.8 3.8c-.4.7-1 1.1-1.7 1.4-.4.1-.8.1-1.2 0s-.7-.3-1.1-.6h0c.3.3.7.5 1.1.6s.8.1 1.3-.1c.6-.2 1.4-.6 1.6-1.3 0-.1 0-.1 0 0zm0-2.7c-.4-.6-1.1-1.2-1.9-1.3h0c.8.3 1.4.7 1.9 1.3.4.7.5 1.4.3 2.1h0c.2-.7.1-1.5-.3-2.1z"/><path fill="#e4251d" d="M19.3 49.5c0 .1.5.2.5.3 0 1.7-.4 3-.8 3s-4.6-1.5-4.6-3.3 4.4-3.3 4.8-3.3.6 1.3.6 3c0 .1-.5.2-.5.3z"/><path fill="#d81613" d="M19.5 51.7c-.2.3-.5.5-.8.5-.5 0-1-.3-1.5-.5-.4-.2-.8-.5-1.2-.9-.1-.1-.5-.6-.2-.7.2-.1.5 0 .7-.1.1 0 .3-.2.2-.3-.1 0-.1-.1-.2-.1-.3-.1-.6-.1-.9-.2h0c0-.2.2-.3.4-.4.1-.1.3-.1.4-.2.2-.1.2-.3-.1-.3-.2 0-.8.3-.9 0-.1-.4.5-.7.7-.9s.4-.3.6-.5c.1-.1.3-.2 0-.1h-.1c-1.2.6-2.3 1.4-2.3 2.4 0 1.8 4.2 3.3 4.6 3.3.3.1.5-.4.6-1 0-.1 0 0 0 0z"/><path fill="#e63b1d" d="M19.3 49.5c0-.1.5-.2.5-.3 0-1.7-.3-3-.6-3-.1 0-.5.1-1.1.3.3-.1.7-.2 1 0s.3.5.4.8c.1.4.1.8 0 1.2 0 .3-.1.6-.3.8h-.1c0 .1 0 .2.1.3.1.2.4.4.5.6 0 .2 0 .4.1.5v.2c0-.4.1-.7.1-1.2-.1 0-.6-.1-.6-.2z"/><path d="M18.7 47.8c-.4.2-.8.2-1.2.4-.2.1-.8.2-.8.5 0 .1.1.1.1.1l.3-.3c.2-.1.4-.2.6-.2.3-.2.7-.3 1-.5h0zm-.6 1.1c-.3.1-.7.1-1 .2-.2 0-.6.1-.7.3v.1c.1 0 .2 0 .3-.1.2 0 .3-.1.5-.1.3-.1.6-.2.9-.4 0 .1 0 0 0 0zm.5 1.1c-.5-.1-1-.2-1.5-.1-.1 0 0 .1 0 .1.2.1.5 0 .7.1.3 0 .5 0 .8-.1.1.1.1 0 0 0zm0 1.1c-.7-.1-1.4-.5-2.1-.7-.1 0-.1.1-.1.1.7.4 1.4.6 2.2.6 0 .1 0 0 0 0zm-.5-4c-.4.1-.8.2-1.1.4-.2.1-.4.2-.5.3-.3 0-.5.1-.5.2v.1a.76.76 0 0 0 .4-.2c.2-.1.4-.2.5-.3.4-.1.8-.3 1.2-.5h0z" fill="#d81613"/><path fill="#e4251d" d="M7.9 49.5c0 .1-.5.2-.5.3 0 1.7.4 3 .8 3s4.6-1.5 4.6-3.3-4.4-3.3-4.8-3.3-.6 1.3-.6 3c.1.1.5.2.5.3z"/><path fill="#d81613" d="M7.7 51.7c.2.3.5.5.8.5.5 0 1-.3 1.5-.5.4-.2.8-.5 1.2-.9.1-.1.5-.6.2-.7-.2-.1-.5 0-.7-.1-.1 0-.3-.2-.2-.3.1 0 .1-.1.2-.1.3-.1.6-.1.9-.2h0c0-.2-.2-.3-.4-.4 0 0-.2 0-.3-.1-.2-.1-.2-.3.1-.3.2 0 .8.3.9 0 .1-.4-.5-.7-.7-.9s-.4-.3-.6-.5c-.1-.1-.3-.2 0-.1h.1c1.2.6 2.3 1.4 2.3 2.4 0 1.8-4.2 3.3-4.6 3.3-.3 0-.6-.5-.7-1.1 0-.1 0 0 0 0z"/><path fill="#e63b1d" d="M7.9 49.5c0-.1-.5-.2-.5-.3 0-1.7.3-3 .6-3 .1 0 .5.1 1.1.3-.3-.1-.7-.2-1 0s-.3.5-.4.8c-.1.4-.1.8 0 1.2 0 .3.1.6.3.8h.1c0 .1 0 .2-.2.2.1.4-.2.5-.2.8 0 .2 0 .4-.1.5v.2c0-.4-.1-.7-.1-1.2 0-.1.4-.2.4-.3z"/><path d="M8.6 47.8l1.2.3c.2.1.8.2.8.5 0 .1-.1.1-.1.1l-.3-.3c-.2-.1-.4-.2-.6-.2-.4-.1-.7-.2-1-.4h0zm.6 1.1c.3.1.7.1 1 .2.2 0 .6.1.7.3v.1c-.1 0-.2 0-.3-.1-.2 0-.3-.1-.5-.1-.4-.1-.7-.2-.9-.4-.1.1-.1 0 0 0zM8.6 50c.5-.1 1-.2 1.5-.1.1 0 0 .1 0 .1-.2.1-.5 0-.7.1-.2 0-.5 0-.8-.1 0 .1 0 0 0 0zm.1 1.1c.7-.1 1.4-.5 2.1-.7.1 0 .1.1.1.1a4.56 4.56 0 0 1-2.2.6c-.1.1-.1 0 0 0zm.5-4c.4.1.8.2 1.1.4.2.1.4.2.5.3s.3.2.4.3v.1a.76.76 0 0 1-.4-.2c-.2-.1-.4-.2-.5-.3l-1.1-.6c-.1 0-.1 0 0 0z" fill="#d81613"/><path fill="#e4251d" d="M15 50.1a.68.68 0 0 1-.7.7H13a.68.68 0 0 1-.7-.7v-1.3a.68.68 0 0 1 .7-.7h1.3a.68.68 0 0 1 .7.7v1.3z"/><path fill="#bf1818" d="M15 48.7v.4a1.27 1.27 0 0 1-1.1 1.1c-.5.1-1.1-.1-1.3-.6-.2-.3-.2-.7-.3-1v1.6a.68.68 0 0 0 .7.7h1.3a.68.68 0 0 0 .7-.7v-1.5z"/><path fill="#e63d28" d="M14.6 48.5c0 .2-.4.4-1 .4-.5 0-1-.2-1-.4s.4-.2 1-.2c.5 0 1 0 1 .2z"/><g fill="#301b16"><path d="M16.4 37c-1.7-1-8.9-.2-8.9-.2s-.3.9-.1 1.3c.1.2.6.2.6.6 0 1.3.1 3 .9 4.1 1.6 2 5.8 1.7 7.1-.1.7-1 1-2.1 1.1-3.5.1-.9-.2-1.9-.7-2.2zm-.2 2.4c-.1 1.2-.3 2-.9 2.8-1.1 1.5-4.5 1.7-5.8.1-.6-.8-.7-2.3-.7-3.3 0-.8.2-1.5.9-1.6 1.7-.2 4.8-.3 5.8.3.5.2.8 1 .7 1.7zm2.9-.2c.1 1.4.4 2.5 1.1 3.5 1.3 1.8 5.6 2.1 7.1.1.8-1 .8-2.8.9-4.1 0-.3.5-.3.6-.6.3-.4-.1-1.3-.1-1.3s-7.2-.7-8.9.2c-.5.3-.8 1.3-.7 2.2zm1.6-1.5c1-.6 4.1-.5 5.8-.3.7.1.9.8.9 1.6 0 1.1-.1 2.5-.7 3.3-1.3 1.6-4.7 1.4-5.8-.1-.6-.8-.8-1.7-.9-2.8 0-.7.2-1.5.7-1.7z"/><path d="M19.2 39.5s-.5-.6-1.1-.6-.9.7-.9.7l-.4-2.3s.4.3 1.4.3 1.5-.3 1.5-.3l-.5 2.2z"/></g><g fill="#444"><path d="M49.4 37.4h-.8l-.1-.1-.2-.7h-1.4l-.2.7s0 .1-.1.1-.1.1-.2.1h-.6l1.4-3.6h.8l1.4 3.5zM48.1 36l-.4-1.1c0-.1 0-.1-.1-.2 0-.1-.1-.2-.1-.3 0 .1 0 .2-.1.3 0 .1-.1.1-.1.2l-.4 1.1h1.2zm4 .5h0l.4.3c-.1.2-.3.3-.5.4s-.5.1-.8.1-.5 0-.7-.1-.4-.2-.6-.4-.3-.4-.4-.6-.1-.5-.1-.7 0-.4.1-.5c0-.2.1-.3.2-.4s.2-.3.3-.4a1.38 1.38 0 0 1 .4-.3c.1-.1.3-.1.4-.2.2 0 .3-.1.5-.1h.4c.1 0 .2.1.3.1s.2.1.3.2.2.1.2.2l-.4.4c-.1.1-.1 0-.1 0h-.1s-.1-.1-.2-.1-.1-.1-.2-.1h-.3c-.2 0-.3 0-.4.1s-.2.1-.3.2-.2.2-.2.4c-.1.2-.1.3-.1.5s0 .4.1.5.1.3.2.4.2.2.3.2c.1.1.3.1.4.1h.4c.1 0 .1 0 .2-.1.1 0 .1-.1.3-.1-.1 0-.1 0 0 0h0zm3.2 0h0l.4.3c-.1.2-.3.3-.5.4s-.5.1-.8.1-.5 0-.7-.1-.4-.2-.6-.4-.3-.4-.4-.6-.1-.5-.1-.7 0-.4.1-.5c0-.2.1-.3.2-.4s.2-.3.3-.4a1.38 1.38 0 0 1 .4-.3c.1-.1.3-.1.4-.2.2 0 .3-.1.5-.1h.4c.1 0 .1.2.2.2s.2.1.3.2.2.1.2.2l-.4.4c-.1.1-.1 0-.1 0H55s-.1-.1-.2-.1-.1-.1-.2-.1h-.3c-.2 0-.3 0-.4.1s-.2.1-.3.2-.2.2-.2.4c-.1.2-.1.3-.1.5s0 .4.1.5.1.3.2.4.2.2.3.2c.1.1.3.1.4.1h.4c.1 0 .1 0 .2-.1.1 0 .1-.1.2-.1.1-.1.1-.1.2-.1h0zm1.6-2.2v.9h1.2v.6h-1.2v1h1.6v.6h-2.3v-3.6h2.3v.6l-1.6-.1zm4.1.1c-.1.1-.1.1 0 0-.1.1-.1.1-.2.1h-.1l-.1-.1c-.1 0-.1-.1-.2-.1h-.3c-.2 0-.3 0-.4.1s-.1.2-.1.3 0 .1.1.2c0 .1.1.1.2.1s.2.1.3.1.2.1.3.1.2.1.3.1.2.1.3.2.1.2.2.3c0 .1.1.2.1.4s0 .3-.1.5c-.1.1-.1.3-.2.4s-.2.2-.4.3a.9.9 0 0 1-.5.1h-.3c-.1 0-.2-.1-.3-.1s-.2-.1-.3-.1c-.1-.1-.2-.1-.2-.2l.2-.4.1-.1c.1-.1.1 0 .1 0h.1s.1.1.2.1.1.1.2.1h.3c.2 0 .3 0 .4-.1s.1-.2.1-.4c0-.1 0-.2-.1-.2s-.1-.1-.2-.1-.2-.1-.3-.1-.2-.1-.3-.1-.2-.1-.3-.1-.2-.1-.3-.2-.1-.2-.2-.3c0-.1-.1-.3-.1-.4s0-.3.1-.4.1-.2.2-.3.2-.2.4-.2c.2-.1.3-.1.5-.1s.4 0 .6.1.3.2.5.3l-.3.2zm2.7 0c0 .1 0 .1 0 0-.1.1-.1.1-.2.1h-.1l-.1-.1c-.1 0-.1-.1-.2-.1h-.3c-.2 0-.3 0-.4.1s-.1.2-.1.3 0 .1.1.2c0 .1.1.1.2.1s.2.1.3.1.2.1.3.1.2.1.3.1.2.1.3.2.1.2.2.3c0 .1.1.2.1.4s0 .3-.1.5c-.1.1-.1.3-.2.4s-.2.2-.4.3a.9.9 0 0 1-.5.1h-.3c-.1 0-.2-.1-.3-.1s-.2-.1-.3-.1c-.1-.1-.2-.1-.2-.2l.2-.4.1-.1c.1-.1.1 0 .1 0h.1s.1.1.2.1.1.1.2.1h.3c.2 0 .3 0 .4-.1s.1-.2.1-.4c0-.1 0-.2-.1-.2s-.1-.1-.2-.1-.2-.1-.3-.1-.2-.1-.3-.1-.2-.1-.3-.1-.2-.1-.3-.2-.1-.2-.2-.3c0-.1-.1-.3-.1-.4s0-.3.1-.4.1-.2.2-.3.2-.2.4-.2c.2-.1.3-.1.5-.1s.4 0 .6.1.3.2.5.3l-.3.2zm4.3 1.1c0 .3 0 .5-.1.7s-.2.4-.4.6-.4.3-.6.4-.5.1-.8.1-.5 0-.8-.1c-.2-.1-.4-.2-.6-.4s-.3-.4-.4-.6-.1-.5-.1-.7c0-.3 0-.5.1-.7s.2-.4.4-.6.4-.3.6-.4.5-.1.8-.1.5 0 .8.1c.2.1.4.2.6.4s.3.4.4.6.1.5.1.7zm-.7 0c0-.2 0-.4-.1-.5 0-.2-.1-.3-.2-.4s-.2-.2-.3-.2c-.1-.1-.3-.1-.5-.1s-.3 0-.5.1c-.1.1-.2.1-.3.2s-.2.2-.2.4-.1.3-.1.5 0 .4.1.5c0 .2.1.3.2.4s.2.2.3.2c.1.1.3.1.5.1s.3 0 .5-.1c.1-.1.2-.1.3-.2s.2-.2.2-.4c0-.1.1-.3.1-.5zm4.2 1.9h-.7c-.1 0-.2 0-.3-.1l-.7-1.1-.1-.1h-.5v1.4h-.8v-3.6h1.1c.3 0 .5 0 .7.1s.3.1.4.2l.3.3c.1.1.1.3.1.4s0 .2-.1.3-.1.2-.1.3c-.1.1-.1.2-.2.2s-.1.1-.2.1l.2.2.9 1.4zm-1.8-2h.3c.1 0 .2-.1.2-.1.1-.1.1-.1.1-.2v-.2c0-.2-.1-.3-.2-.4s-.3-.1-.5-.1h-.4v1.1l.5-.1zm2.9 2h-.8v-3.6h.8v3.6zm1.5-3.1v.9h1.2v.6h-1.2v1h1.6v.6h-2.3v-3.6h2.3v.6l-1.6-.1z"/><path d="M78.2 34.4c-.1.1-.1.1 0 0-.1.1-.1.1-.2.1h-.1l-.1-.1c-.1 0-.1-.1-.2-.1h-.3c-.2 0-.3 0-.4.1s-.1.2-.1.3 0 .1.1.2c0 .1.1.1.2.1s.2.1.3.1.2.1.3.1.2.1.3.1.2.1.3.2.1.2.2.3c0 .1.1.2.1.4s0 .3-.1.5c-.1.1-.1.3-.2.4s-.2.2-.4.3a.9.9 0 0 1-.5.1h-.3c-.1 0-.2-.1-.3-.1s-.2-.1-.3-.1c-.1-.1-.2-.1-.2-.2l.2-.4.1-.1c.1-.1.1 0 .1 0h.1s.1.1.2.1.1.1.2.1h.3c.2 0 .3 0 .4-.1s.1-.2.1-.4c0-.1 0-.2-.1-.2s-.1-.1-.2-.1-.2-.1-.3-.1c-.3-.1-.4-.1-.5-.1s-.2-.1-.3-.1-.2-.1-.3-.2-.1-.2-.2-.3c0-.1-.1-.3-.1-.4s0-.3.1-.4.1-.2.2-.3.2-.2.4-.2c.2-.1.3-.1.5-.1s.4 0 .6.1.3.2.5.3l-.1.2z"/></g><path fill="#b33d74" d="M68.9 57.1H55.6c-2 0-3.6-1.6-3.6-3.6h0c0-2 1.6-3.6 3.6-3.6h13.3c2 0 3.6 1.6 3.6 3.6h0c0 2-1.6 3.6-3.6 3.6z"/><g fill="#fff"><path d="M55.4 54.6c-.1-.1-.1-.1-.1-.2v-.2c0-.1 0-.1.1-.2 0 0 .1.1.2.1h.2c.1 0 .2 0 .2-.1s.1-.1.1-.2v-.2c0-.1-.1-.1-.1-.3l-.4-.5c-.1-.1-.1-.2-.2-.3v-.3c0-.2.1-.3.2-.4s.3-.2.5-.2.3 0 .4.1.1.1.1.2 0 .2-.1.2c0 0-.1 0-.1-.1s-.1 0-.2 0-.2 0-.2.1c-.1 0-.1.1-.1.2v.2c0 .1.1.1.1.2l.4.5c.1.1.2.2.2.3s.1.2.1.3c0 .2-.1.4-.2.6-.1.1-.3.2-.6.2-.3.1-.4.1-.5 0z"/><path d="M58.1 54.6h0-.4v-1.3h-.4v1.3h-.4v-2.8h.4v1.1h.4v-1.1h.4v2.8zm.7 0c-.1-.1-.2-.2-.2-.4s-.1-.5-.1-.9 0-.6.1-.8.1-.4.2-.4c.1-.1.3-.1.4-.1s.3 0 .4.1.2.2.2.4.1.5.1.9 0 .7-.1.9-.1.4-.2.5-.3.1-.4.1c-.1-.2-.3-.2-.4-.3zm.6-.5c0-.1.1-.2.1-.3v-1.2c0-.1 0-.2-.1-.3s-.1-.1-.2-.1-.1 0-.2.1c0 .1-.1.2-.1.3v1.1c0 .1 0 .2.1.3 0 .1.1.1.2.1.2.1.2.1.2 0zm1.9-2.2c.1 0 .2.1.3.3.1.1.1.3.1.5 0 .3-.1.6-.2.7s-.3.2-.5.2h0v1.1h-.4v-2.8h.7zm-.2 1.2c0-.1.1-.2.1-.4v-.3c0-.1-.1-.1-.1-.1H61v.9l.1-.1zm2.7-1.2h.4v2.8h-.4l-.4-1.1c-.1-.2-.1-.5-.2-.9 0 .3.1.6.1.9v1.1h-.4V52c0-.1 0-.1.1-.1h.4l.4 1.1c.1.2.1.5.2.8 0-.3-.1-.6-.1-.9l-.1-1zm1.2 2.7c-.1-.1-.2-.2-.2-.4s-.1-.5-.1-.9 0-.6.1-.8.1-.5.2-.5c.1-.1.3-.1.4-.1s.3 0 .4.1.2.2.2.4.1.5.1.9 0 .7-.1.9-.1.4-.2.5-.3.1-.4.1c-.2-.1-.3-.1-.4-.2zm.6-.5c0-.1.1-.2.1-.3v-1.2c0-.1 0-.2-.1-.3s-.1-.1-.2-.1-.1 0-.2.1c0 .1-.1.2-.1.3v1.1c0 .1 0 .2.1.3 0 .1.1.1.2.1.1.1.1.1.2 0zm3.4-2.2l-.5 2.8h-.4c-.1 0-.1 0-.2-.1s-.1-.1-.1-.2l-.1-.4c0-.2-.1-.5-.1-1-.1.5-.1.8-.1 1l-.1.7H67c-.1 0-.1 0-.1-.1 0 0-.1-.1-.1-.2-.1-.3-.1-.7-.2-1.3l-.2-1.2v-.1h.5l.2 1.3c.1.4.1.7.1 1h0c0-.3 0-.7.1-1l.2-1.1v-.1h.4l.2 1.2c0 .3.1.6.1 1h0c0-.3 0-.7.1-1l.2-1.2v-.1h.1l.4.1z"/></g><g fill="#b61932"><path d="M48.9 43.7l.7-.1v.6c0 .1 0 .1.1.1h.1c.1 0 .2-.1.2-.3s-.1-.5-.4-.7l-.1-.3c-.1-.1-.1-.1-.2-.1s-.1-.1-.1-.2-.1-.1-.1-.2-.1-.1-.1-.2V42c0-.3.1-.5.3-.7s.4-.2.7-.2c.2 0 .5.1.6.3s.3.4.3.6h0v.1l-.7.1v-.4s0-.1-.1-.1H50c-.1 0-.1 0-.2.1s-.1.1-.1.2v.2c0 .1.1.1.1.2s.1.1.1.1.1.1.2.1.1.1.1.1c.1.1.2.2.3.2s.1.2.2.3.1.2.1.3v.4c0 .2-.1.4-.3.6s-.4.2-.6.2-.3 0-.4-.1-.2-.1-.3-.2-.1-.2-.2-.3-.1-.3-.1-.4zm2.2 1l.8-3.5h.6l.8 3.5h-.7l-.1-.8H52l-.1.8h-.8zm.9-1.2h.4l-.2-1.3-.2 1.3zm1.7 1.2v-3.5h.7v3h.7v.5h-1.4zm1.8 0v-3.5H57v.5h-.8v1h.5v.5h-.5v1.1h.8v.5h-1.5zm4.7-2.6c0 .2 0 .3-.1.5s-.1.2-.1.4-.2.3-.3.4-.2.2-.3.4-.2.2-.3.3h1.1v.7h-1.9v-.6l.9-1.2c0-.1.1-.1.1-.2s.1-.1.1-.2.1-.1.1-.2V42s0-.1-.1-.1h-.2s-.1 0-.1.1v.5h-.7v-.6c0-.2.1-.2.1-.3s.1-.2.2-.2.2-.1.3-.1.2-.1.4-.1c.3 0 .5.1.7.3s.1.3.1.6z"/><path d="M60.7 43.6h.7v.5s0 .1.1.1h.2s.1 0 .1-.1 0-.1.1-.1 0-.1 0-.1v-.8s0-.1-.1-.1h-.1c-.1 0-.1 0-.2.1s-.1.1-.1.2h-.6v-2h1.7v.7h-1v.6c.1-.1.2-.1.3-.1s.2 0 .3.1.2.1.2.2.1.1.1.2.1.2.1.3v.6c0 .1 0 .2-.1.3s-.1.2-.1.3-.1.2-.2.2-.2.1-.3.1-.2.1-.3.1-.3 0-.4-.1-.2-.1-.3-.2-.1-.2-.2-.3-.1-.2-.1-.3.2-.3.2-.4zm2.4-1.4h0v-.4c0-.1.1-.2.1-.3s.1-.2.2-.2.2-.1.4-.1c.1 0 .3 0 .4.1s.2.1.2.2.1.2.1.3v.4c0 .7-.3 1-.8 1-.4 0-.6-.4-.6-1zm.5-.1h0v.5s0 .1.1.1h.2l.1-.1v-.9l-.1-.1c-.1-.1-.1 0-.1 0h-.1s-.1 0-.1.1v.4zm.6 2.6l1.1-3.6h.4l-1.1 3.6h-.4zm1-1h0v-.4c0-.1.1-.2.1-.3s.1-.2.2-.2.2-.1.4-.1c.1 0 .3 0 .4.1s.2.1.2.2.1.2.1.3v.4c0 .7-.3 1-.8 1-.4 0-.6-.3-.6-1zm.5 0h0v.5s0 .1.1.1h.2l.1-.1v-.9l-.1-.1c-.1-.1-.1 0-.1 0h-.1l-.1.1c-.1.1 0 .1 0 .1v.3zm2.6-.2v-1.2c0-.8.3-1.2 1-1.2s1 .4 1 1.2v1.6c0 .1-.1.2-.1.3s-.1.2-.2.3-.2.1-.3.2-.3.1-.4.1c-.2 0-.3 0-.4-.1s-.2-.1-.3-.2-.1-.2-.2-.3-.1-.2-.1-.3v-.4zm1.3.2v-1.5c0-.3-.1-.5-.3-.5h-.2c-.1 0-.1.1-.1.1v1.9c0 .3.1.5.3.5s.3-.2.3-.5zm1.3 1v-3.5h1.5v.5h-.8v1h.5v.5h-.5v1.6h-.7zm1.9 0v-3.5h1.5v.5h-.8v1h.5v.5h-.5v1.6h-.7z"/></g></svg>