<?xml version="1.0" encoding="utf-8"?>
<!-- Generator: Adobe Illustrator 24.3.0, SVG Export Plug-In . SVG Version: 6.00 Build 0)  -->
<svg version="1.1" id="Layer_1" xmlns="http://www.w3.org/2000/svg" xmlns:xlink="http://www.w3.org/1999/xlink" x="0px" y="0px"
	 viewBox="0 0 70 70" enable-background="new 0 0 70 70" xml:space="preserve">
<path fill="#BCC5CB" d="M64.6,70H5.4c-3,0-5.4-2.4-5.4-5.4V5.4C0,2.4,2.4,0,5.4,0h59.3c3,0,5.4,2.4,5.4,5.4v59.3
	C70,67.6,67.6,70,64.6,70z"/>
<g>
	<path fill="#F8F8F8" d="M29.6,19.3c-2.4,0-4.5,2-4.5,4.5s2,4.5,4.5,4.5c2.4,0,4.5-2,4.5-4.5S32.1,19.3,29.6,19.3z"/>
	<path fill="#F8F8F8" d="M42.1,18.3L31.5,36.7l-7-9.8c-0.5-0.7-1.4-1.1-2.2-1.1c-0.9,0-1.7,0.5-2.1,1.2L7.4,47.7c0,1.8,0,3.5,0,5.3
		h55.4v-5.3L46.7,18.3c-0.5-0.8-1.4-1.4-2.4-1.3C43.3,17,42.6,17.7,42.1,18.3L42.1,18.3z"/>
</g>
</svg>
