<?xml version="1.0" encoding="utf-8"?>
<!-- Generator: Adobe Illustrator 24.3.0, SVG Export Plug-In . SVG Version: 6.00 Build 0)  -->
<svg version="1.1" id="Layer_1" xmlns="http://www.w3.org/2000/svg" xmlns:xlink="http://www.w3.org/1999/xlink" x="0px" y="0px"
	 viewBox="0 0 131 91" enable-background="new 0 0 131 91" xml:space="preserve">
<g>
	<rect x="0.5" y="0.5" fill="#F7F8F9" stroke="#D2D2D2" stroke-miterlimit="10" width="130" height="90"/>
	<g>
		<rect x="23" y="33" fill="#BDC5CB" width="26" height="25"/>
		<rect x="52.5" y="33" fill="#BDC5CB" width="26" height="25"/>
		<rect x="82" y="33" fill="#BDC5CB" width="26" height="25"/>
		<g>
			<g>
				<path fill="#BDC5CB" d="M14.5,45.5l3.2-3.2c0.1-0.1,0.1-0.2,0.1-0.3c0-0.1,0-0.2-0.1-0.3l-0.3-0.3c-0.1-0.1-0.2-0.1-0.3-0.1
					s-0.2,0-0.3,0.1l-3.9,3.9c-0.1,0.1-0.1,0.2-0.1,0.3c0,0.1,0,0.2,0.1,0.3l3.9,3.9c0.1,0.1,0.2,0.1,0.3,0.1c0.1,0,0.2,0,0.3-0.1
					l0.3-0.3c0.2-0.2,0.2-0.5,0-0.7L14.5,45.5z"/>
			</g>
		</g>
		<g>
			<g>
				<path fill="#BDC5CB" d="M116.5,45.5l-3.2,3.2c-0.1,0.1-0.1,0.2-0.1,0.3c0,0.1,0,0.2,0.1,0.3l0.3,0.3c0.1,0.1,0.2,0.1,0.3,0.1
					s0.2,0,0.3-0.1l3.9-3.9c0.1-0.1,0.1-0.2,0.1-0.3c0-0.1,0-0.2-0.1-0.3l-3.9-3.9c-0.1-0.1-0.2-0.1-0.3-0.1c-0.1,0-0.2,0-0.3,0.1
					l-0.3,0.3c-0.2,0.2-0.2,0.5,0,0.7L116.5,45.5z"/>
			</g>
		</g>
	</g>
</g>
<g>
</g>
<g>
</g>
<g>
</g>
<g>
</g>
<g>
</g>
<g>
</g>
</svg>
