<?xml version="1.0" encoding="utf-8"?>
<!-- Generator: Adobe Illustrator 24.3.0, SVG Export Plug-In . SVG Version: 6.00 Build 0)  -->
<svg version="1.1" id="Layer_1" xmlns="http://www.w3.org/2000/svg" xmlns:xlink="http://www.w3.org/1999/xlink" x="0px" y="0px"
	 viewBox="0 0 144 144" enable-background="new 0 0 144 144" xml:space="preserve">
<g>
	<path fill="#CA417D" d="M108.6,60.7c1.8,2.6,5.5,3.1,8.1,1.3s3.1-5.5,1.3-8.1l-27.8-38c-1.8-2.6-5.5-3.1-8.1-1.3s-3.1,5.5-1.3,8.1
		L108.6,60.7z"/>
	<path fill="#CA417D" d="M27.2,62.1c2.6,1.8,6.3,1.3,8.1-1.3l27.5-38c1.8-2.6,1.3-6.3-1.3-8.1c-2.6-1.8-6.3-1.3-8.1,1.3l-27.5,38
		C24.1,56.5,24.6,60.2,27.2,62.1z"/>
	<path fill="#CA417D" d="M130.1,69.7H13.9c-5.6,0-10.1-4.5-10.1-10.1v0c0-5.6,4.5-10.1,10.1-10.1h116.2c5.6,0,10.1,4.5,10.1,10.1v0
		C140.2,65.2,135.7,69.7,130.1,69.7z"/>
	<path fill="#CA417D" d="M14.7,69.7l14.6,54.9c1,3.7,4.1,6,7.8,6h70.1c3.6,0,6.7-2.3,7.8-6l14.3-54.9H14.7z M80.7,101.6
		c0,1.1-0.8,1.9-1.7,1.9H52.9c-0.9,0-1.7-0.9-1.7-1.9V78.6c0-1.1,0.8-2,1.7-2H79c0.9,0,1.7,0.9,1.7,2V101.6z M92.9,101.6
		c0,1.1-0.8,1.9-1.7,1.9h-6.9V76.6h6.9c0.9,0,1.7,0.9,1.7,2V101.6z"/>
</g>
<g>
</g>
<g>
</g>
<g>
</g>
<g>
</g>
<g>
</g>
<g>
</g>
</svg>
