<?xml version="1.0" encoding="utf-8"?>
<!-- Generator: Adobe Illustrator 24.3.0, SVG Export Plug-In . SVG Version: 6.00 Build 0)  -->
<svg version="1.1" id="Layer_1" xmlns="http://www.w3.org/2000/svg" xmlns:xlink="http://www.w3.org/1999/xlink" x="0px" y="0px"
	 viewBox="0 0 181.7 27.5" enable-background="new 0 0 181.7 27.5" xml:space="preserve">
<g>
	<g>
		<path fill="#FFFFFF" d="M54.9,4.8L52,21.6c-0.4,0-0.8,0.1-1.2,0.1c-0.3,0-0.7,0-1.2,0c-0.4,0-0.7-0.1-0.9-0.4
			c-0.2-0.3-0.4-0.6-0.5-1.1l-0.6-2.7c-0.2-1.2-0.5-3.3-0.8-6.2c-0.3,2.9-0.6,5-0.7,6.2l-0.7,4c-0.8,0.1-1.6,0.1-2.5,0.1
			c-0.3,0-0.6-0.1-0.8-0.4c-0.2-0.3-0.4-0.6-0.5-1.1c-0.3-1.6-0.8-4.2-1.4-7.7c-0.6-3.5-1-5.9-1.2-7c0-0.1,0-0.2,0-0.3
			c0-0.1,0-0.2,0.1-0.3c0.1-0.1,0.3-0.1,0.5-0.1H42l1.2,7.9c0.3,2.2,0.6,4.2,0.7,6.2h0.2c0-2,0.2-4,0.6-6.2l1-6.4
			c0-0.3,0.1-0.5,0.2-0.6c0.1-0.1,0.2-0.2,0.5-0.2h1.9l1.2,7.2c0.3,1.6,0.5,3.6,0.7,6.2h0.2c0.1-2,0.3-4.1,0.6-6.2l1-7.2
			C52,5.3,52,5.1,52.1,5s0.2-0.2,0.5-0.2H54.9z"/>
		<path fill="#FFFFFF" d="M56,21.4c-0.5-0.3-0.9-0.9-1.2-1.8c-0.3-0.9-0.4-2.2-0.4-4c0-4.1,1.3-6.2,4-6.2c0.9,0,1.6,0.2,2.1,0.5
			c0.5,0.4,0.9,1,1.2,1.9s0.4,2.1,0.4,3.7c0,2.3-0.3,3.9-1,4.9c-0.6,1-1.6,1.5-3,1.5C57.3,21.8,56.5,21.7,56,21.4z M58.8,19.4
			c0.1-0.2,0.2-0.6,0.3-1.2c0.1-0.6,0.1-1.5,0.1-2.6c0-1.2,0-2-0.1-2.6s-0.1-0.9-0.3-1.1c-0.1-0.2-0.3-0.3-0.6-0.3
			c-0.3,0-0.5,0.3-0.7,0.8s-0.3,1.6-0.3,3.2c0,1.2,0,2.1,0.1,2.7c0.1,0.6,0.2,1,0.3,1.1s0.3,0.3,0.5,0.3
			C58.5,19.6,58.6,19.5,58.8,19.4z"/>
		<path fill="#FFFFFF" d="M64.8,21.4c-0.5-0.3-0.9-0.9-1.2-1.8c-0.3-0.9-0.4-2.2-0.4-4c0-4.1,1.3-6.2,4-6.2c0.9,0,1.6,0.2,2.1,0.5
			c0.5,0.4,0.9,1,1.2,1.9s0.4,2.1,0.4,3.7c0,2.3-0.3,3.9-1,4.9c-0.6,1-1.6,1.5-3,1.5C66.1,21.8,65.3,21.7,64.8,21.4z M67.6,19.4
			c0.1-0.2,0.2-0.6,0.3-1.2c0.1-0.6,0.1-1.5,0.1-2.6c0-1.2,0-2-0.1-2.6s-0.1-0.9-0.3-1.1c-0.1-0.2-0.3-0.3-0.6-0.3
			c-0.3,0-0.5,0.3-0.7,0.8s-0.3,1.6-0.3,3.2c0,1.2,0,2.1,0.1,2.7c0.1,0.6,0.2,1,0.3,1.1s0.3,0.3,0.5,0.3
			C67.3,19.6,67.4,19.5,67.6,19.4z"/>
		<path fill="#FFFFFF" d="M77.3,21.2c-0.6-0.4-1-1.2-1.3-2.4s-0.4-2.8-0.4-5.1c0-6.1,1.6-9.2,4.8-9.2c0.9,0,1.5,0.1,1.8,0.4
			c0.3,0.2,0.4,0.6,0.4,1c0,0.5-0.1,1.1-0.4,1.6c-0.4-0.3-0.8-0.4-1.2-0.4c-0.8,0-1.4,0.5-1.9,1.4c-0.5,0.9-0.7,2.6-0.7,5
			c0,1.4,0.1,2.5,0.2,3.2c0.1,0.8,0.3,1.3,0.6,1.6c0.3,0.3,0.6,0.5,1.1,0.5c0.8,0,1.4-0.1,1.9-0.4c0.2,0.5,0.4,1,0.4,1.6
			c0,0.6-0.3,1-0.8,1.3c-0.5,0.3-1.2,0.5-2.1,0.5C78.6,21.8,77.8,21.6,77.3,21.2z"/>
		<path fill="#FFFFFF" d="M85.1,21.6c-0.5-0.2-0.9-0.5-1.2-1.1c-0.3-0.6-0.5-1.3-0.5-2.4c0-1.5,0.3-2.5,0.8-3.1
			c0.5-0.6,1.2-0.9,2-0.9c0.2,0,0.5,0,0.8,0.1c0.3,0.1,0.5,0.1,0.7,0.3v-1.7c0-0.3-0.1-0.6-0.2-0.7c-0.2-0.1-0.4-0.2-0.8-0.2
			c-0.4,0-0.9,0-1.5,0.1c-0.5,0.1-1,0.2-1.4,0.4c-0.2-0.5-0.4-1-0.4-1.5c0-0.2,0-0.3,0.1-0.5s0.1-0.3,0.2-0.4
			c0.2-0.2,0.6-0.3,1.3-0.5c0.7-0.2,1.4-0.2,2.3-0.2c1.1,0,1.9,0.2,2.3,0.7c0.5,0.4,0.7,1.2,0.7,2.3v1.1c0,3.9,0,6.5-0.1,7.7
			c-0.9,0.5-2,0.8-3.5,0.8C86.2,21.8,85.6,21.8,85.1,21.6z M87.7,19.4c0-0.4,0-1.4,0-3.1c-0.2-0.1-0.4-0.2-0.6-0.2
			c-0.3,0-0.5,0.1-0.6,0.4s-0.2,0.8-0.2,1.5c0,0.6,0.1,1,0.2,1.3c0.1,0.2,0.3,0.4,0.6,0.4C87.4,19.7,87.6,19.6,87.7,19.4z"/>
		<path fill="#FFFFFF" d="M93.6,21.5c-0.4-0.3-0.6-0.6-0.7-1.1c-0.1-0.5-0.2-1.1-0.2-1.9v-6.6h-1.5c0-0.7,0-1.2,0-1.5
			c0-0.3,0.1-0.5,0.1-0.6c0.1-0.1,0.2-0.1,0.4-0.1h0.9V6.1c0-0.3,0.1-0.5,0.2-0.6c0.1-0.1,0.4-0.2,0.7-0.2c0.3,0,0.9,0,1.7,0v4.3h2
			c0,0.8,0,1.3,0,1.5c0,0.3-0.1,0.5-0.1,0.6c-0.1,0.1-0.2,0.1-0.4,0.1h-1.4v6.6c0,0.4,0,0.7,0.1,0.9s0.2,0.3,0.5,0.3
			c0.4,0,0.8-0.1,1.2-0.3c0.1,0.5,0.2,1,0.2,1.3c0,0.9-0.7,1.3-2.2,1.3C94.5,21.8,93.9,21.7,93.6,21.5z"/>
		<path fill="#FFFFFF" d="M104.8,18.6c0.1,0.5,0.2,1.1,0.2,1.8c0,0.5-0.3,0.8-1,1.1c-0.6,0.3-1.5,0.4-2.4,0.4
			c-1.2,0-2.1-0.4-2.8-1.2c-0.6-0.8-1-2.3-1-4.4c0-1.8,0.2-3.2,0.6-4.2s0.9-1.7,1.5-2c0.6-0.4,1.3-0.5,2.2-0.5c2,0,3.1,1.3,3.1,3.9
			c0,1.4-0.1,2.5-0.3,3.4c-0.9,0.2-2.3,0.3-4.2,0.3c0,0.8,0.2,1.4,0.4,1.7c0.2,0.3,0.6,0.5,1.2,0.5C103.1,19.3,103.9,19,104.8,18.6z
			 M101,12.5c-0.2,0.5-0.3,1.4-0.3,2.5c0.9,0,1.5-0.1,1.8-0.2c0.1-0.2,0.1-0.7,0.1-1.2c0-0.7-0.1-1.2-0.2-1.5
			c-0.1-0.2-0.3-0.3-0.6-0.3C101.5,11.7,101.2,11.9,101,12.5z"/>
		<path fill="#FFFFFF" d="M114.7,11.6c-0.2,0.2-0.4,0.2-0.6,0.2c-0.1,0-0.3,0-0.5-0.1c0.4,0.6,0.6,1.3,0.6,2.2c0,1.3-0.3,2.3-0.9,3
			c-0.6,0.6-1.6,1-3,1c-0.3,0-0.5,0-0.6,0c-0.2,0.3-0.3,0.5-0.3,0.7c0,0.1,0.1,0.2,0.3,0.3c0.2,0,0.5,0.1,0.9,0.1l0.9,0.1
			c1.1,0.2,1.9,0.5,2.4,0.9c0.5,0.4,0.8,1.1,0.8,2c0,1.2-0.4,2.3-1.1,3.1s-1.9,1.2-3.4,1.2c-2.6,0-3.9-0.9-3.9-2.7
			c0-1.1,0.5-2,1.6-2.7c-0.8-0.3-1.3-0.7-1.3-1.3c0-0.4,0.1-0.7,0.4-1.1c0.2-0.4,0.6-0.8,1.2-1.2c-1-0.6-1.4-1.8-1.4-3.5
			c0-1.6,0.3-2.8,1-3.5c0.7-0.7,1.7-1,3-1c0.4,0,0.8,0.1,1.2,0.2h2.9c0.2,0.4,0.3,0.8,0.3,1.3C114.9,11.2,114.8,11.5,114.7,11.6z
			 M111.7,21.8c-0.1-0.2-0.3-0.3-0.6-0.4c-0.3-0.1-0.7-0.2-1.4-0.2c-0.3,0.2-0.5,0.5-0.7,0.8c-0.2,0.3-0.3,0.6-0.3,0.9
			c0,0.3,0.1,0.6,0.3,0.7c0.2,0.2,0.6,0.2,1.1,0.2c0.5,0,0.9-0.2,1.2-0.5s0.4-0.6,0.4-1C111.8,22.2,111.8,21.9,111.7,21.8z
			 M111.2,15.4c0.2-0.4,0.3-1.1,0.3-2.1c0-0.8-0.1-1.3-0.2-1.6c-0.2-0.3-0.4-0.5-0.8-0.5c-0.4,0-0.6,0.2-0.8,0.6
			c-0.2,0.4-0.3,1-0.3,1.9c0,0.8,0.1,1.4,0.2,1.8c0.1,0.3,0.4,0.5,0.8,0.5C110.8,15.9,111,15.8,111.2,15.4z"/>
		<path fill="#FFFFFF" d="M117,21.4c-0.5-0.3-0.9-0.9-1.2-1.8c-0.3-0.9-0.4-2.2-0.4-4c0-4.1,1.3-6.2,4-6.2c0.9,0,1.6,0.2,2.1,0.5
			c0.5,0.4,0.9,1,1.2,1.9c0.3,0.9,0.4,2.1,0.4,3.7c0,2.3-0.3,3.9-1,4.9c-0.6,1-1.6,1.5-3,1.5C118.2,21.8,117.5,21.7,117,21.4z
			 M119.7,19.4c0.1-0.2,0.2-0.6,0.3-1.2c0.1-0.6,0.1-1.5,0.1-2.6c0-1.2,0-2-0.1-2.6s-0.1-0.9-0.3-1.1c-0.1-0.2-0.3-0.3-0.6-0.3
			c-0.3,0-0.5,0.3-0.7,0.8s-0.3,1.6-0.3,3.2c0,1.2,0,2.1,0.1,2.7c0.1,0.6,0.2,1,0.3,1.1c0.1,0.2,0.3,0.3,0.5,0.3
			C119.4,19.6,119.6,19.5,119.7,19.4z"/>
		<path fill="#FFFFFF" d="M124.5,10.4c1.1-0.7,2.2-1.1,3.3-1.1c0.6,0,1,0.1,1.3,0.3c0.2,0.2,0.3,0.5,0.3,0.9c0,0.5-0.1,1-0.3,1.5
			c-0.3-0.1-0.6-0.2-0.9-0.2c-0.2,0-0.3,0-0.5,0.1c-0.2,0.1-0.4,0.2-0.5,0.3l0,8.8c0,0.2,0,0.3-0.1,0.3c-0.1,0.1-0.3,0.1-0.8,0.1
			c-0.4,0-1,0-1.8,0V10.4z"/>
		<path fill="#FFFFFF" d="M130,25.9c-0.3-0.2-0.5-0.5-0.5-0.9c0-0.2,0-0.5,0.1-0.8c0.1-0.3,0.1-0.5,0.2-0.7c0.1,0.1,0.4,0.2,0.7,0.3
			c0.3,0.1,0.6,0.1,1,0.1c0.3,0,0.6-0.1,0.8-0.4c0.2-0.3,0.3-0.8,0.4-1.6l-2.6-11.7c0-0.2,0-0.3,0-0.3c0-0.1,0.1-0.2,0.2-0.3
			c0.1,0,0.4-0.1,0.8-0.1c0.4,0,1,0,1.6,0l0.7,4.2c0.1,0.9,0.3,1.8,0.4,2.8c0.1,1,0.2,1.7,0.2,2c0-0.3,0.1-1,0.2-2
			c0.1-1,0.2-2,0.3-2.8l0.5-3.5c0-0.3,0.1-0.5,0.2-0.5c0.1-0.1,0.3-0.1,0.6-0.2c0.3,0,1,0,2,0l-2.7,12.6c-0.2,1.1-0.5,1.9-0.8,2.5
			s-0.6,1-1,1.2s-1,0.4-1.6,0.4C130.9,26.2,130.3,26.1,130,25.9z"/>
		<path fill="#FFFFFF" d="M142.8,21.4c-0.5-0.3-0.8-0.7-0.8-1.1c0-0.3,0.1-0.6,0.2-0.9c0.1-0.3,0.3-0.7,0.4-1c0.3,0.2,0.6,0.4,1,0.6
			c0.4,0.1,0.8,0.2,1.2,0.2c0.6,0,1.1-0.2,1.4-0.5c0.3-0.3,0.4-0.8,0.4-1.4c0-0.4-0.1-0.8-0.2-1.2s-0.4-0.8-0.9-1.4l-2.2-2.9
			c-0.5-0.7-0.9-1.3-1.1-1.8c-0.2-0.5-0.3-1.1-0.3-1.7c0-1.1,0.4-2,1.1-2.7c0.7-0.7,1.8-1,3.2-1c1.2,0,2,0.1,2.5,0.3
			c0.5,0.2,0.8,0.6,0.8,1c0,0.5-0.2,1-0.6,1.5c-0.1-0.1-0.4-0.2-0.8-0.3c-0.4-0.1-0.8-0.2-1.2-0.2c-0.6,0-1.1,0.1-1.4,0.3
			s-0.5,0.5-0.5,0.9c0,0.4,0.1,0.7,0.2,1s0.4,0.7,0.7,1.1l2.3,3c0.6,0.7,0.9,1.4,1.1,2s0.3,1.2,0.3,2c0,1.4-0.3,2.5-1,3.4
			s-1.8,1.3-3.4,1.3C144.1,21.8,143.3,21.7,142.8,21.4z"/>
		<path fill="#FFFFFF" d="M150.8,5.1c0-0.4,0.1-0.7,0.2-0.8c0.1-0.2,0.4-0.2,0.7-0.3c0.3,0,0.9-0.1,1.7-0.1v17.2
			c0,0.2,0,0.3-0.1,0.3c-0.1,0.1-0.3,0.1-0.8,0.1c-0.4,0-1,0-1.8,0V5.1z"/>
		<path fill="#FFFFFF" d="M155.5,8.1c-0.2-0.3-0.3-0.8-0.3-1.5c0-0.6,0.1-1,0.4-1.4s0.6-0.5,1.1-0.5c0.5,0,0.8,0.1,1,0.4
			c0.2,0.3,0.3,0.7,0.3,1.4c0,0.6-0.1,1.1-0.4,1.5c-0.2,0.4-0.6,0.5-1.1,0.5C156,8.5,155.7,8.4,155.5,8.1z M155.2,10.8
			c0-0.4,0.1-0.7,0.2-0.8c0.1-0.2,0.4-0.2,0.7-0.3c0.3,0,0.9-0.1,1.8-0.1v11.5c0,0.2,0,0.3-0.1,0.3c-0.1,0.1-0.3,0.1-0.8,0.1
			s-1,0-1.8,0V10.8z"/>
		<path fill="#FFFFFF" d="M161.2,21.5c-0.6-0.3-1-0.8-1.3-1.6c-0.3-0.8-0.5-2-0.5-3.6c0-2.3,0.3-4.1,0.9-5.1
			c0.6-1.1,1.4-1.6,2.4-1.6c0.6,0,1.1,0.1,1.4,0.4V5.1c0-0.4,0.1-0.7,0.2-0.8c0.1-0.2,0.4-0.2,0.7-0.3c0.3,0,0.9-0.1,1.8-0.1v17.2
			c-1.1,0.5-2.3,0.7-3.5,0.7C162.4,21.8,161.7,21.7,161.2,21.5z M164,19.3v-7.5c-0.1-0.1-0.3-0.1-0.5-0.1c-0.2,0-0.4,0.1-0.6,0.3
			c-0.2,0.2-0.3,0.6-0.4,1.2c-0.1,0.6-0.2,1.5-0.2,2.7c0,1.4,0.1,2.4,0.2,2.9c0.1,0.5,0.4,0.8,0.7,0.8
			C163.5,19.5,163.8,19.4,164,19.3z"/>
		<path fill="#FFFFFF" d="M174.9,18.6c0.1,0.5,0.2,1.1,0.2,1.8c0,0.5-0.3,0.8-1,1.1c-0.6,0.3-1.5,0.4-2.4,0.4
			c-1.2,0-2.1-0.4-2.8-1.2c-0.6-0.8-1-2.3-1-4.4c0-1.8,0.2-3.2,0.6-4.2s0.9-1.7,1.5-2c0.6-0.4,1.3-0.5,2.2-0.5c2,0,3.1,1.3,3.1,3.9
			c0,1.4-0.1,2.5-0.3,3.4c-0.9,0.2-2.3,0.3-4.2,0.3c0,0.8,0.2,1.4,0.4,1.7c0.2,0.3,0.6,0.5,1.2,0.5C173.2,19.3,174,19,174.9,18.6z
			 M171.1,12.5c-0.2,0.5-0.3,1.4-0.3,2.5c0.9,0,1.5-0.1,1.8-0.2c0.1-0.2,0.1-0.7,0.1-1.2c0-0.7-0.1-1.2-0.2-1.5
			c-0.1-0.2-0.3-0.3-0.6-0.3C171.6,11.7,171.3,11.9,171.1,12.5z"/>
		<path fill="#FFFFFF" d="M176.7,10.4c1.1-0.7,2.2-1.1,3.3-1.1c0.6,0,1,0.1,1.3,0.3c0.2,0.2,0.3,0.5,0.3,0.9c0,0.5-0.1,1-0.3,1.5
			c-0.3-0.1-0.6-0.2-0.9-0.2c-0.2,0-0.3,0-0.5,0.1c-0.2,0.1-0.4,0.2-0.5,0.3l0,8.8c0,0.2,0,0.3-0.1,0.3c-0.1,0.1-0.3,0.1-0.8,0.1
			c-0.4,0-1,0-1.8,0V10.4z"/>
	</g>
	<g>
		<path fill="#FFFFFF" d="M24.6,11.1c0.4,0.6,1.3,0.7,1.9,0.3s0.7-1.3,0.3-1.9l-6.5-8.9c-0.4-0.6-1.3-0.7-1.9-0.3
			c-0.6,0.4-0.7,1.3-0.3,1.9L24.6,11.1z"/>
		<path fill="#FFFFFF" d="M5.5,11.4c0.6,0.4,1.5,0.3,1.9-0.3l6.5-8.9c0.4-0.6,0.3-1.5-0.3-1.9c-0.6-0.4-1.5-0.3-1.9,0.3L5.2,9.5
			C4.8,10.1,4.9,11,5.5,11.4z"/>
		<path fill="#FFFFFF" d="M29.6,13.2H2.4c-1.3,0-2.4-1.1-2.4-2.4v0c0-1.3,1.1-2.4,2.4-2.4h27.3c1.3,0,2.4,1.1,2.4,2.4v0
			C32,12.1,30.9,13.2,29.6,13.2z"/>
		<path fill="#FFFFFF" d="M2.5,13.2L6,26.1c0.2,0.9,1,1.4,1.8,1.4h16.4c0.8,0,1.6-0.6,1.8-1.4l3.4-12.9H2.5z M18,20.7
			c0,0.2-0.2,0.4-0.4,0.4h-6.1c-0.2,0-0.4-0.2-0.4-0.4v-5.4c0-0.2,0.2-0.5,0.4-0.5h6.1c0.2,0,0.4,0.2,0.4,0.5V20.7z M20.9,20.7
			c0,0.2-0.2,0.4-0.4,0.4h-1.6v-6.3h1.6c0.2,0,0.4,0.2,0.4,0.5V20.7z"/>
	</g>
</g>
<g>
</g>
<g>
</g>
<g>
</g>
<g>
</g>
<g>
</g>
<g>
</g>
</svg>
