<svg xmlns="http://www.w3.org/2000/svg" height="300" width="300" fill="#cc2b5e" viewBox="0 0 100 100"  xmlns:v="https://vecta.io/nano"><path d="M18.081 53.347H1.897c-.999 0-1.897.899-1.897 1.899v28.171c0 .998.898 1.897 1.897 1.897h16.184c1.1 0 1.898-.899 1.898-1.897V55.246c0-1.1-.898-1.899-1.898-1.899zM9.79 83.616c-.399 0-.8-.3-.8-.8 0-.399.301-.798.8-.798a.73.73 0 0 1 .8.798c0 .5-.3.8-.8.8zm8.192-3.297H1.998V56.344h15.984v23.975zM12.01 20.703v-.179c0-.988.803-1.792 1.791-1.792h65.404c.988 0 1.793.804 1.793 1.792v15.79h4.046v-15.79c0-3.219-2.618-5.838-5.839-5.838H13.801c-3.219 0-5.837 2.62-5.837 5.838v28.777h4.046V20.703zM96.902 40.36H72.126c-1.697 0-3.096 1.399-3.096 3.097v38.762c0 1.697 1.398 3.096 3.096 3.096h24.776c1.699 0 3.098-1.398 3.098-3.096V43.457c0-1.698-1.398-3.097-3.098-3.097zM84.614 83.417c-.4 0-.798-.301-.798-.8 0-.398.299-.799.798-.799.4 0 .8.3.8.799 0 .4-.399.8-.8.8zm12.088-4.096H72.026V44.356h24.676v34.965zM56.795 70.24H36.211l-2.317 6.592h-7.939c-1.046 0-1.894.848-1.894 1.894s.848 1.894 1.894 1.894h39.03v-3.787h-5.872l-2.318-6.593zM24.026 55.246v12.309h40.958V55.021H24.003c.003.076.023.147.023.225zm22.292 3.708c1.288 0 2.333 1.045 2.333 2.333s-1.045 2.332-2.333 2.332-2.332-1.044-2.332-2.332 1.044-2.333 2.332-2.333z"/></svg>