<svg xmlns="http://www.w3.org/2000/svg" width="300" height="300"  xmlns:v="https://vecta.io/nano"><path fill="#cc2b5e" d="M17.13 60.069h265.74c9.461 0 17.13-7.669 17.13-17.13s-7.669-17.13-17.13-17.13H17.13C7.669 25.809 0 33.478 0 42.939s7.669 17.13 17.13 17.13zm48.534 85.649c0-14.191-11.504-25.695-25.695-25.695s-25.695 11.504-25.695 25.695 11.504 25.695 25.695 25.695a25.7 25.7 0 0 0 25.695-25.695zm216.978 17.129c9.461 0 17.13-7.669 17.13-17.13s-7.669-17.13-17.13-17.13H131.329c-9.461 0-17.13 7.669-17.13 17.13s7.669 17.13 17.13 17.13h151.313zm0 102.779c9.461 0 17.13-7.669 17.13-17.13s-7.669-17.13-17.13-17.13H131.329c-9.461 0-17.13 7.669-17.13 17.13s7.669 17.13 17.13 17.13h151.313zm-216.978-17.13c0-14.191-11.504-25.695-25.695-25.695s-25.695 11.504-25.695 25.695 11.504 25.695 25.695 25.695 25.695-11.504 25.695-25.695z"/></svg>