<svg xmlns="http://www.w3.org/2000/svg" height="300" width="300" fill="#cc2b5e" viewBox="0 0 128 128"  xmlns:v="https://vecta.io/nano"><ellipse cx="30.59" cy="33" rx="2.98" ry="3"/><path d="M52.44 77a3 3 0 1 0-3-3 3 3 0 0 0 3 3z"/><ellipse cx="81.23" cy="69" rx="2.98" ry="3"/><ellipse cx="56.41" cy="44" rx="2.98" ry="3"/><path d="M26.62 84v42a2 2 0 0 0 2 2h55.59a2 2 0 0 0 .84-.19h0l27.8-14A2 2 0 0 0 114 112V70a2 2 0 0 0-2-2H95.69l.92-2.18a4 4 0 0 0-2.09-5.25l-16.44-7.06a4 4 0 0 0-5.22 2.11L67.62 68H64l-2.63-7a3.66 3.66 0 0 0-.75-1.23 4.47 4.47 0 0 0 .5 0 4 4 0 0 0 3.67-2.43l7-16.56a4 4 0 0 0-2.1-5.25l-16.44-7.02A4 4 0 0 0 48 30.62l-.95 2.26a4 4 0 0 0-.89-1.88L34.22 17.62a3.9 3.9 0 0 0-2.75-1.32 3.86 3.86 0 0 0-2.86 1l-13.3 12A4 4 0 0 0 15 35l12 13.38a3.86 3.86 0 0 0 2.74 1.32h.21a3.88 3.88 0 0 0 2.65-1l12.65-11.49L41 47.18a4 4 0 0 0 2.09 5.25l14 6a4 4 0 0 0-.89.21L39.52 65a4 4 0 0 0-2.31 5.15l2.28 6.12-11.77 5.94a2 2 0 0 0-1.1 1.79zm4-44a7 7 0 1 1 6.95-7 7 7 0 0 1-6.98 7zm72.53 51.31l-8 3.13-7.85-9.76 21.38-10.76zM94 72h9.6l-12.21 6.15zM81.23 62a7 7 0 1 1-6.95 7 7 7 0 0 1 6.95-7zM67.67 77.84l-.27-.72a4.14 4.14 0 0 0 .55.31L78.59 82H66.81a4 4 0 0 0 .86-4.16zM65.93 72l-.08.18c-.06.14-.09.29-.14.44l-.23-.62zm-9.52-21a7 7 0 1 1 7-7 7 7 0 0 1-7 7zm-4 16a7 7 0 1 1-7 7 7 7 0 0 1 7.03-7zM40.9 80l.73 2H37zm4.35 6h35.34l-8.73 13.83H41L32.22 86zm-14.66 4.87l7.6 12a2 2 0 0 0 1.68.93h33.08a2 2 0 0 0 1.68-.93l7.6-12V124H30.59z"/><ellipse cx="70.31" cy="17" rx="2.98" ry="3"/><path d="M87.18 17.9a4 4 0 0 0-1-2.91L74 1.34A4 4 0 0 0 68.31 1L54.76 13.31a4 4 0 0 0-.3 5.7l12.18 13.65A4 4 0 0 0 69.41 34h.22a3.94 3.94 0 0 0 2.68-1l13.55-12.31a4 4 0 0 0 1.32-2.79zM70.31 24a7 7 0 1 1 7-7 7 7 0 0 1-7 7z"/><ellipse cx="91.16" cy="38" rx="2.98" ry="3"/><path d="M82.23 51a4 4 0 0 0 5.12 2.33L104.08 47a4 4 0 0 0 2.31-5.15L100.09 25A4 4 0 0 0 95 22.66L78.25 29a4 4 0 0 0-2.35 5.16zm8.93-20a7 7 0 1 1-6.95 7 7 7 0 0 1 6.95-7zM66 112.12H46.79a2 2 0 0 0 0 4H66a2 2 0 0 0 0-4z"/></svg>