<svg xmlns="http://www.w3.org/2000/svg" height="300" width="300" fill="#cc2b5e" viewBox="0 0 100 100"  xmlns:v="https://vecta.io/nano"><path d="M9.614 18.368v63.229h61.068V18.368H9.614zm57.63 53.457H13.05V22.54h54.194v49.285zM31.971 5.787l-1.689 11.581h3.473l1.015-6.957 53.626 7.82-7.111 48.768-9.572-1.396v9.876l11.563 1.686L92.4 14.6zm.659 28.153l7.257-9.988v12.345l-7.257-9.99 11.744 3.821zm16.889 27.278l-14.686 4.765 9.072-12.49v15.442l-9.072-12.493 14.686 4.776m9.578-17.541l-12.914 4.201 7.982-10.99v13.578l-7.982-10.983 12.914 4.194m-30.88-5.564l-9.438 3.07 5.831-8.033v9.916l-5.831-8.022 9.438 3.069m.203 16.842l-6.933 2.253 4.28-5.896v7.287l-4.28-5.895 6.933 2.251m14.714-9.205l-13.652 4.442 8.438-11.616v14.357l-8.438-11.615 13.652 4.432"/><path d="M55.884 27.932l-6.931 2.253 4.279-5.896v7.287l-4.279-5.896 6.931 2.252m27.964 60.131L57.562 56.485c-1.248-1.498-3.468-1.7-4.976-.455a3.54 3.54 0 0 0-.455 4.972l30.806 37.009.911-9.948zM58.56 66.697l-5.51-6.614a2.24 2.24 0 0 1 .289-3.165c.947-.795 2.36-.666 3.158.289l5.508 6.622a2.25 2.25 0 0 1-.289 3.156 2.24 2.24 0 0 1-3.156-.288z"/></svg>