<svg xmlns="http://www.w3.org/2000/svg" height="300" width="300" fill="#cc2b5e" viewBox="0 0 512 512"  xmlns:v="https://vecta.io/nano"><path d="M267.5 118.02h181.36v48.58H267.5zm-204.26 0H244.6v146.25H63.24zm204.26 73.12h181.36v144.08H267.5zM63.24 287.48H244.6v47.75H63.24zM501 369.64h-8.87V99.48a32.8 32.8 0 0 0-32.76-32.76H52.63a32.8 32.8 0 0 0-32.76 32.76v270.16H11a10 10 0 0 0-10 10v22.68a43 43 0 0 0 43 43h424a43 43 0 0 0 43-43v-22.68a10 10 0 0 0-10-10zM39.87 99.48a12.77 12.77 0 0 1 12.76-12.76h406.74a12.77 12.77 0 0 1 12.76 12.76v270.16H39.87zM491 402.32a23 23 0 0 1-23 23H44a23 23 0 0 1-23-23v-12.68h177.74v2.94a19.13 19.13 0 0 0 19.11 19.11h76.3a19.13 19.13 0 0 0 19.11-19.11v-2.94H491z"/></svg>