<svg xmlns="http://www.w3.org/2000/svg" xmlns:xlink="http://www.w3.org/1999/xlink" viewBox="0 0 920 540" xmlns:v="https://vecta.io/nano"><style><![CDATA[.B{fill:#e77a9c}.C{fill:#c8417d}.D{fill:#fff}.E{opacity:.5}.F{fill:#f3bbc6}.G{fill:#f5f5f5}.H{fill:#fce0e7}.I{stroke:#e77a9c}.J{stroke-width:.562}.K{stroke-miterlimit:10}.L{fill:#060e64}]]></style><path fill="#faded3" d="M631.2 292.3h0c14.2 16 22.8 36.9 22.8 59.9 0 23.8-9.2 45.4-24.3 61.5l.2.1c-14.3 16-23 37.1-23 60.2 0 23.8 9.2 45.4 24.3 61.6h0c1.2 1.4 2.5 2.8 3.6 4.3h285.1V.6h-312c2.8 18.9 11.5 36 24.3 49.2h-.1c1.8 2.1 3.5 4.2 5 6.4h-.1c8 11.1 13.6 24.1 15.8 38.2.2 1.1.3 2.2.5 3.3 0 .2 0 .4.1.6l.3 2.9c0 .4.1.8.1 1.2.1.8.1 1.7.1 2.5 0 .9.1 1.8.1 2.7v1c0 23.8-9.2 45.4-24.3 61.5l.1.1c-14.3 16-22.9 37-22.9 60.1v.2c0 24 9.2 45.7 24.3 61.8z"/><ellipse cx="268.9" cy="446.7" rx="107.4" ry="11.6" class="B E"/><path fill="#010b15" d="M414.3,389.4H126.2V226c0-4.2,3.4-7.6,7.6-7.6h272.9c4.2,0,7.6,3.4,7.6,7.6V389.4z"/><path fill="#143544" d="M126.2,389.4V225.8c0-4.1,3.4-7.5,7.5-7.5h273.1c4.1,0,7.5,3.4,7.5,7.5L126.2,389.4z" class="E"/><path fill="#fce8e1" d="M126.2 389.4h288.1v19a7.6 7.6 0 0 1-7.6 7.6H133.8a7.6 7.6 0 0 1-7.6-7.6v-19z"/><path d="M137.2 229.3h266.2v149.6H137.2z" class="D"/><path fill="#f7f7f8" d="M137.2 378.8V229.3h266.2v2.7L144.1 378.8z"/><circle cx="270.3" cy="223.6" r="1.7" class="D"/><path fill="#fce8e1" d="M314 447.8s-8.5-2.4-10.7-3.2c-1.1-.4-1.6-2.7-1.7-3.7l-2.7-24.9h-57.6l-2.7 24.9c-.1 1-.5 3.2-1.7 3.7-2.1.8-10.7 3.2-10.7 3.2a.68.68 0 1 0 0 1.4H314a.68.68 0 0 0 .7-.7c.1-.3-.2-.7-.7-.7z"/><path fill="#fcd9d0" d="M299.6 421.3L240 430l1.5-13.9H299z"/><g class="C"><use xlink:href="#Y"/><use xlink:href="#Y" x="326" y="19.7"/></g><path fill="#ff6d53" d="M88.8 283c2.6-.5 4.6-2.5 5.1-5.1 0-.1.2-.1.2 0 .5 2.6 2.5 4.6 5.1 5.1.1 0 .1.2 0 .2-2.6.5-4.6 2.5-5.1 5.1 0 .1-.2.1-.2 0-.5-2.6-2.5-4.6-5.1-5.1-.1-.1-.1-.2 0-.2z"/><path fill="#02c7a8" d="M441.3 286.2c2.6-.5 4.6-2.5 5.1-5.1 0-.1.2-.1.2 0 .5 2.6 2.5 4.6 5.1 5.1.1 0 .1.2 0 .2-2.6.5-4.6 2.5-5.1 5.1 0 .1-.2.1-.2 0-.5-2.6-2.5-4.6-5.1-5.1-.1 0-.1-.2 0-.2z"/><g fill="#f5a31e"><path d="M421.7 255.8c2.6-.5 4.6-2.5 5.1-5.1 0-.1.2-.1.2 0 .5 2.6 2.5 4.6 5.1 5.1.1 0 .1.2 0 .2-2.6.5-4.6 2.5-5.1 5.1 0 .1-.2.1-.2 0-.5-2.6-2.5-4.6-5.1-5.1-.2 0-.2-.2 0-.2z"/><circle cx="84.3" cy="319.8" r="1.4"/></g><g fill="#ff6d53"><circle cx="118.7" cy="339.9" r="1.4"/><circle cx="424.6" cy="291.6" r="1.4"/><circle cx="359.9" cy="423.8" r="1.4"/></g><circle fill="#f5a31e" cx="186.9" cy="425.7" r="1.4"/><g fill="#02c7a8"><circle cx="465.4" cy="347.2" r="1.4"/><circle cx="94.3" cy="235" r="1.4"/></g><circle fill="#faded3" cx="118" cy="251.5" r="13.6"/><g fill="#ff448b"><path d="M116.1 246.1c.6.5.8 1.2.8 1.9 0 .8-.3 1.4-.8 1.9s-1.2.8-2 .8-1.4-.3-2-.8c-.5-.5-.8-1.2-.8-1.9 0-.8.3-1.4.8-1.9s1.2-.8 2-.8 1.4.3 2 .8zm-1.4 2.6c.2-.2.3-.4.3-.6s-.1-.5-.3-.6-.4-.3-.6-.3c-.3 0-.5.1-.6.3-.2.2-.3.4-.3.6s.1.5.3.6c.2.2.4.3.6.3s.5-.1.6-.3zm-1 7.2l7.3-10.2c.2-.2.4-.3.6-.3s.4.1.6.2.3.4.3.6 0 .3-.1.4l-7.3 10.2c-.2.2-.4.3-.6.3s-.4-.1-.6-.2c-.2-.2-.3-.4-.3-.6s0-.3.1-.4zm6.2.4c-.5-.5-.8-1.2-.8-1.9 0-.8.3-1.4.8-1.9s1.2-.8 2-.8 1.4.3 2 .8c.5.5.8 1.2.8 1.9 0 .8-.3 1.4-.8 1.9s-1.2.8-2 .8-1.4-.3-2-.8zm1.3-2.6c-.2.2-.3.4-.3.6s.1.5.3.6c.2.2.4.3.6.3.3 0 .5-.1.6-.3.2-.2.3-.4.3-.6s-.1-.5-.3-.6-.4-.3-.6-.3-.4.1-.6.3z"/><circle cx="385.9" cy="225.2" r="13.6"/></g><path d="M382.1 228.7c0-.3.1-.6.4-.9.2-.2.5-.4.9-.4.2 0 .5.1.8.3.5.3 1 .5 1.6.5a1.69 1.69 0 0 0 1-.3c.2-.2.4-.4.4-.7s-.1-.6-.3-.9c-.2-.2-.6-.4-1.2-.7-1.1-.4-1.8-.9-2.3-1.5s-.7-1.3-.7-2.1c0-.7.2-1.3.6-1.8s.9-.9 1.6-1.1v-.6c0-.3.1-.5.3-.7s.4-.3.7-.3.5.1.7.3.3.4.3.7v.5c.5.1 1 .3 1.5.5.4.2.6.6.6 1.1 0 .3-.1.6-.3.8s-.5.3-.8.3c-.2 0-.4-.1-.7-.2-.3-.2-.6-.2-.8-.2-.6 0-.9.2-.9.7 0 .2.1.5.3.6.2.2.7.4 1.3.7 1.9.8 2.8 2 2.8 3.8 0 .9-.2 1.6-.7 2.2s-1.2 1-2.1 1.2v.6c0 .3-.1.5-.3.7s-.4.3-.7.3-.5-.1-.7-.3-.3-.4-.3-.7v-.5c-.9-.1-1.7-.5-2.4-1-.5-.2-.6-.5-.6-.9z" class="D"/><use xlink:href="#Z" opacity=".73" class="H I J K"/><path d="M221.3 303.1h-72.7v-40.8c0-3.7 2.9-6.6 6.6-6.6h59.5c3.7 0 6.6 2.9 6.6 6.6v40.8z" class="B E"/><path d="M163.5 288.2h-.4v1.9s24.1 1.8 33.6.1c9.4-1.7 10.1-4.8 10.1-4.8v-2h-.4l-42.9 4.8z" class="C"/><path d="M206.4 284.3c-2.4 3.3-10 4.2-19.4 4.3-3.8 0-8 0-12.4-.1l-11.1-.4c-.4-2.8.6-7.9 1.4-10.7.3-.9.5-1.5.6-1.9h.1c1.3 1.8 4.3 2.8 6.1 2.8 2.9 0 6.4-2.2 5.4-4.7-.1-.4-.3-.6-.4-.9-.8-2.6 1.3-2.6 4.5-.5 5.6 3.6 10.5 4.8 14.5 5.5.8.1 1.7.3 2.3.4 5.8.6 8.9.6 8.4 6.2z" class="B"/><path d="M206.1 284.3c-2.4 3.3-10 4.2-19.4 4.3-.3-1.4-.5-5 4.3-5.9 3.7-.6 5.7-3.1 6.9-4.8 5.6.8 8.7.8 8.2 6.4zm-10.3-6.7c-.8 1.1-1.8 1.1-2.9 1.1-9.6-.6-14.4-4.5-16.1-6.1-.8-2.6 1.3-2.6 4.5-.5 5.6 3.5 10.5 4.8 14.5 5.5z" class="C"/><path d="M184.4 289c-4.8 0-9.8-.3-13.8-.5-3.6-.3-6.3-.4-7.4-.3h-.1v-.4h.1c1.1-.1 4 0 7.5.3 11.2.6 32 1.8 35.6-4.8l.1-.1.4.1-.1.1c-2.5 4.6-12.3 5.6-22.3 5.6z" class="G"/><path d="M202.4 313.9h-35.2c-1.4 0-2.6 1.1-2.6 2.6v11.7c0 1.4 1.1 2.6 2.6 2.6h35.2c1.4 0 2.6-1.1 2.6-2.6v-11.7a2.65 2.65 0 0 0-2.6-2.6z" class="C"/><g class="G"><path d="M170.6 324.1l1.1-.3v.6c0 .2 0 .1.1.3 0 .1.1.1.1.1s.1.1.3.1c.3 0 .4-.1.4-.4 0-.4-.3-.8-.6-1.1l-.4-.3c-.1-.1-.3-.1-.3-.3 0-.1-.1-.1-.3-.3-.1-.1-.1-.3-.3-.3 0-.1-.1-.3-.1-.4v-.4c0-.5.1-.8.4-1 .3-.3.6-.4 1.1-.4.4 0 .8.1 1 .4.3.3.4.6.4 1h0v.1l-1.1.1v-.8c0-.1 0-.1-.1-.1h-.1c-.1 0-.3 0-.3.1s-.1.3-.1.4v.4c0 .1.1.3.1.3l.6.6c.1.1.1.1.3.1l.4.4c.1.1.3.3.3.4.1.1.1.4.3.5 0 .1.1.4.1.6 0 .4-.1.8-.4 1s-.6.4-1 .4c-.3 0-.5 0-.6-.1-.3-.1-.4-.3-.5-.4s-.3-.4-.3-.5c-.1 0-.5-.5-.5-.8zm3.6 1.7v-5.6h1.1v2.3h.8v-2.3h1.1v5.6h-1.1v-2.6h-.8v2.6h-1.1zm3.8-1.9V322c0-1.3.5-2 1.7-2 1.1 0 1.7.6 1.7 2v2.5c0 .1-.1.4-.1.5-.1.1-.1.3-.3.4-.1.1-.3.3-.5.3s-.4.1-.6.1c-.3 0-.5 0-.6-.1s-.4-.1-.5-.3c-.1-.1-.3-.3-.3-.4-.1-.1-.1-.4-.1-.5-.3-.1-.4-.4-.4-.6zm2.2.2v-2.4c0-.5-.1-.8-.5-.8-.1 0-.1 0-.3.1-.1.1-.1 0-.1.1s0 .1-.1.3v2.7c0 .5.1.8.5.8.3.1.5-.1.5-.8zm1.9 1.7v-5.6h1.4c.5 0 .9.1 1 .4.3.3.4.6.4 1.1 0 .3 0 .5-.1.6 0 .1-.1.4-.3.5-.1.1-.3.3-.4.3s-.3.1-.4.1h-.5v2.4h-1.1v.2zm1.1-3.2h.3l.1-.1v-1s0-.1-.1-.1h-.4v1.2zm3.7 3.2v-5.6h.8l1.3 2.9v-2.9h.9v5.6h-.8l-1.3-3.1v3.1h-.9zm3.7-1.9V322c0-1.3.5-2 1.7-2 1.1 0 1.7.6 1.7 2v2.5c0 .1-.1.4-.1.5-.1.1-.1.3-.3.4-.1.1-.3.3-.5.3s-.4.1-.6.1c-.3 0-.5 0-.6-.1s-.4-.1-.5-.3c-.1-.1-.3-.3-.3-.4-.1-.1-.1-.4-.1-.5-.4-.1-.4-.4-.4-.6zm2.2.2v-2.4c0-.5-.1-.8-.5-.8-.1 0-.1 0-.3.1-.1.1-.1.1-.1.3s0 .1-.1.3v2.7c0 .5.1.8.5.8.2-.1.5-.3.5-1z"/><use xlink:href="#a"/></g><path opacity=".73" d="M298.7 341.5h-59.5c-3.7 0-6.6-2.9-6.6-6.6v-73.4c0-3.7 2.9-6.6 6.6-6.6h59.5c3.7 0 6.6 2.9 6.6 6.6v73.4c.1 3.5-2.9 6.6-6.6 6.6z" class="H I J K"/><path d="M305.4 302.2h-72.7v-40.7c0-3.7 2.9-6.6 6.6-6.6h59.5c3.7 0 6.6 2.9 6.6 6.6v40.7z" class="B E"/><path d="M286.5 313.2h-35.2c-1.4 0-2.6 1.1-2.6 2.6v11.7c0 1.4 1.1 2.6 2.6 2.6h35.2c1.4 0 2.6-1.1 2.6-2.6v-11.7c-.1-1.5-1.2-2.6-2.6-2.6z" class="C"/><g class="G"><path d="M254.7 323.4l1.1-.3v.6c0 .2 0 .1.1.3 0 .1.1.1.1.1s.1.1.3.1c.3 0 .4-.1.4-.4 0-.4-.3-.8-.6-1.1l-.5-.3c-.1-.1-.3-.1-.3-.3 0-.1-.1-.1-.3-.3s-.1-.3-.3-.3c0-.1-.1-.3-.1-.4v-.4c0-.5.1-.8.4-1 .3-.3.6-.4 1.1-.4.4 0 .8.1 1 .4.3.3.4.6.4 1h0v.1l-1.1.1v-.8c0-.1 0-.1-.1-.1h-.1c-.1 0-.3 0-.3.1s-.1.3-.1.4v.4c0 .1.1.3.1.3l.6.6c.1.1.1.1.3.1l.4.4c.1.1.3.3.3.4.1.1.1.4.3.5 0 .1.1.4.1.6 0 .4-.1.8-.4 1-.3.3-.6.4-1 .4-.3 0-.5 0-.6-.1-.3-.1-.4-.3-.5-.4s-.3-.4-.3-.5-.4-.6-.4-.8zm3.7 1.6v-5.6h1.1v2.3h.8v-2.3h1.1v5.6h-1.1v-2.6h-.8v2.6h-1.1zm3.8-1.9v-1.9c0-1.3.5-2 1.7-2s1.7.6 1.7 2v2.5c0 .1-.1.4-.1.5-.1.1-.1.3-.3.4-.1.1-.3.3-.5.3s-.4.1-.6.1-.5 0-.6-.1-.4-.1-.5-.3c-.1-.1-.3-.3-.3-.4-.1-.1-.1-.4-.1-.5-.4-.2-.4-.3-.4-.6zm2.2.3V321c0-.5-.1-.8-.5-.8-.1 0-.1 0-.3.1-.1.1-.1.1-.1.3s0 .1-.1.3v2.7c0 .5.1.8.5.8.2-.1.5-.5.5-1z"/><use xlink:href="#b"/><path d="M271 325v-5.6h.8l1.3 2.9v-2.9h.9v5.6h-.8l-1.3-3.1v3.1h-.9zm3.7-1.9v-1.9c0-1.3.5-2 1.7-2s1.7.6 1.7 2v2.5c0 .1-.1.4-.1.5-.1.1-.1.3-.3.4-.1.1-.3.3-.5.3s-.4.1-.6.1c-.3 0-.5 0-.6-.1s-.4-.1-.5-.3c-.1-.1-.3-.3-.3-.4-.1-.1-.1-.4-.1-.5-.2-.2-.4-.3-.4-.6zm2.2.3V321c0-.5-.1-.8-.5-.8-.1 0-.1 0-.3.1-.1.1-.1.1-.1.3s0 .1-.1.3v2.7c0 .5.1.8.5.8.4-.1.5-.5.5-1z"/><use xlink:href="#a" x="84.2" y="-0.8"/></g><g class="C"><path d="M258.4 282.9l1.1 6.3c.1.6.8 1.1 1.4 1.1l-1.7-8.9c-.4.2-.9.9-.8 1.5z"/><path d="M261.2 290.3l2.4-.5-1.7-8.9-2.4.5h-.1l1.7 8.9h.1z"/></g><path d="M264.3 290.7h0c-.8.1-1.5-.4-1.7-1.1l-1.5-8c-.1-.8.4-1.5 1.1-1.7h0c.8-.1 1.5.4 1.7 1.1l1.5 8c.1.8-.4 1.6-1.1 1.7z" class="B"/><g class="C"><path d="M279.4 287.5l-.9-.3 1.7-8.9c.1-2.9-.8-5.5-2.6-7.5-2.2-2.3-5.4-3.6-8.8-3.6s-6.4 1.1-8.4 3.3c-1.8 1.9-2.7 4.6-2.6 7.8.1 2.4 1.4 8.7 1.4 8.7l-.9.1c0-.3-1.3-6.4-1.4-8.8-.1-3.3.8-6.3 2.8-8.4 2.2-2.3 5.4-3.6 9.1-3.6s7.1 1.4 9.4 3.8c2 2.2 3.1 5 2.8 8.2 0 2.7-1.6 9-1.6 9.2z"/><path d="M279.4 283.2l-1.3 6.3c-.1.6-.8 1.1-1.4 1l1.8-8.8c.7.1 1.1.8.9 1.5z"/><path d="M276.6 290.5l-2.4-.5 1.9-8.8 2.4.5h.1l-1.8 8.8h-.2z"/></g><path d="M273.5 290.7h0c.8.1 1.5-.3 1.7-1.1l1.7-8c.1-.8-.4-1.5-1-1.7h0c-.8-.1-1.5.3-1.7 1.1l-1.7 8c-.3.8.2 1.6 1 1.7z" class="B"/><use xlink:href="#Z" x="168.1" y="-0.8" opacity=".73" class="H I J K"/><path d="M389.4 302.2h-72.7v-40.7c0-3.7 2.9-6.6 6.6-6.6h59.5c3.7 0 6.6 2.9 6.6 6.6v40.7z" class="B E"/><path d="M370.5 313.2h-35.2c-1.4 0-2.6 1.1-2.6 2.6v11.7c0 1.4 1.1 2.6 2.6 2.6h35.2c1.4 0 2.6-1.1 2.6-2.6v-11.7c0-1.5-1.2-2.6-2.6-2.6z" class="C"/><g class="G"><path d="M338.7 323.4l1.1-.3v.6c0 .2 0 .1.1.3 0 .1.1.1.1.1s.1.1.3.1c.3 0 .4-.1.4-.4 0-.4-.3-.8-.6-1.1l-.5-.3c-.1-.1-.3-.1-.3-.3 0-.1-.1-.1-.3-.3-.1-.1-.1-.3-.3-.3 0-.1-.1-.3-.1-.4v-.4c0-.5.1-.8.4-1 .3-.3.6-.4 1.1-.4.4 0 .8.1 1 .4.3.3.4.6.4 1h0v.1l-1.1.1v-.8c0-.2 0-.1-.1-.1h-.1c-.1 0-.3 0-.3.1s-.1.3-.1.4v.4c0 .1.1.3.1.3l.6.6c.1.1.1.1.3.1l.4.4c.1.1.3.3.3.4.1.1.1.4.3.5 0 .1.1.4.1.6 0 .4-.1.8-.4 1-.3.3-.6.4-1 .4-.3 0-.5 0-.6-.1-.3-.1-.4-.3-.5-.4s-.3-.4-.3-.5-.4-.6-.4-.8zm3.7 1.6v-5.6h1.1v2.3h.8v-2.3h1.1v5.6h-1.1v-2.6h-.8v2.6h-1.1zm3.9-1.9v-1.9c0-1.3.5-2 1.7-2 1.1 0 1.7.6 1.7 2v2.5c0 .1-.1.4-.1.5-.1.1-.1.3-.3.4-.1.1-.3.3-.5.3s-.4.1-.6.1c-.3 0-.5 0-.6-.1s-.4-.1-.5-.3c-.1-.1-.3-.3-.3-.4-.1-.1-.1-.4-.1-.5-.4-.2-.4-.3-.4-.6zm2.1.3V321c0-.5-.1-.8-.5-.8-.1 0-.1 0-.3.1-.1.1-.1.1-.1.3s0 .1-.1.3v2.7c0 .5.1.8.5.8.3-.1.5-.5.5-1z"/><use xlink:href="#b" x="84"/><path d="M355.1 325v-5.6h.8l1.3 2.9v-2.9h.9v5.6h-.8l-1.3-3v3.1h-.9zm3.7-1.9v-1.9c0-1.3.5-2 1.7-2s1.7.6 1.7 2v2.5c0 .1-.1.4-.1.5-.1.1-.1.3-.3.4-.1.1-.3.3-.5.3-.3 0-.4.1-.6.1s-.5 0-.6-.1-.4-.1-.5-.3c-.1-.1-.3-.3-.3-.4-.1-.1-.1-.4-.1-.5-.3-.2-.4-.3-.4-.6zm2.1.3V321c0-.5-.1-.8-.5-.8-.1 0-.1 0-.3.1-.1.1-.1.1-.1.3s0 .1-.1.3v2.7c0 .5.1.8.5.8s.5-.5.5-1z"/><use xlink:href="#a" x="168.3" y="-0.8"/></g><path d="M365.9 291.2c-2-9.3-7.2-16-8.7-17.8-.3-.3-.4-.5-.4-.5.1-.3.2-.5.3-.7 2.7-7.6-.3-8.6-.3-8.6-3.4 3.6-3.7 5.1-3.7 5.4 0-.3-.3-1.7-3.7-5.4 0 0-2.9 1-.3 8.6.1.2.2.5.3.7 0 0-.2.2-.4.5-1.5 1.8-6.7 8.5-8.7 17.8 0 0 5.1 2.3 12.9 2.3h0c7.6 0 12.7-2.3 12.7-2.3zM353 269h0z" class="B"/><path d="M357.2 273.4c-1.2.3-2.7.5-4.2.5h0c-1.5 0-2.9-.2-4.2-.5.3-.3.4-.5.4-.5-.1-.3-.2-.5-.3-.7 1.1.3 2.5.5 4 .5h0c1.5 0 2.9-.2 4-.5-.1.2-.2.5-.3.7.2 0 .3.2.6.5z" class="C"/><path d="M382.5 345.4l1-.7-1.3-2.1-1 .7c.4.8.8 1.4 1.3 2.1zm103.1 47.1l-4.9.4.1 1.2 5-.4-.2-1.2zm-7.3.6l-4.9.1v1.2l5-.1-.1-1.2zm-22.1-1.4l-4.9-.9-.3 1.2 5 .9.2-1.2zm7.3 1l-4.9-.6-.2 1.2 5 .6.1-1.2zm7.4.4c-1.6 0-3.3-.1-4.9-.2l-.1 1.2 5 .3v-1.3zm22.1-1.6l-4.9.8.2 1.2 4.9-.8-.2-1.2zm7.2-1.6l-4.8 1.1.2 1.2 4.9-1.1-.3-1.2zm-51.4.3L444 389l-.3 1.2 4.9 1.3.2-1.3zm72.2-7.9l-4.5 2 .5 1.2 4.5-2.1-.5-1.1zm-13.7 5.6l-4.7 1.4.3 1.2 4.8-1.4-.4-1.2zm7-2.5l-4.6 1.7.4 1.2 4.7-1.8-.5-1.1zm-112.1-17.5l.9-1-3.7-3.3-.9.9 3.7 3.4zm5.9 4.7l.8-1-3.9-3.1-.8 1 3.9 3.1zm-11.4-9.8l.9-.9c-1.2-1.1-2.3-2.3-3.4-3.6l-.9.8 3.4 3.7zm-5.1-5.5l.9-.8-3.2-3.8-1 .8 3.3 3.8zm-4.8-5.8l1-.8-2.9-4-1 .7 2.9 4.1zm27.4 25.4l.7-1-4.1-2.8-.7 1 4.1 2.8zm20.5 9l-4.6-1.9-.5 1.1 4.6 1.9.5-1.1zm-6.8-2.9l-4.4-2.2-.6 1.1 4.5 2.2.5-1.1zm13.8 5.3l-4.7-1.6-.4 1.2 4.7 1.6.4-1.2zm-21-7.6l.6-1.1-4.3-2.5-.6 1.1 4.3 2.5zm111.5-3.9c-4 .7-8.1.8-12.1.2l4.3 3.6-1.1.6.6 1.1 1.1-.6 1 5.5c1.4-3.7 3.5-7.3 6.2-10.4z" class="B"/><g opacity=".85"><linearGradient id="A" gradientUnits="userSpaceOnUse" x1="165.601" y1="115.389" x2="187.471" y2="115.389"><stop offset="0" stop-color="#902968"/><stop offset="1" stop-color="#c92b5e"/></linearGradient><path fill="url(#A)" d="M181.6 127.8c1 1.4 3 1.8 4.5.8s1.8-3 .8-4.5l-15.5-21.2c-1-1.4-3-1.8-4.5-.8-1.4 1-1.8 3-.8 4.5l15.5 21.2z"/><linearGradient id="B" gradientUnits="userSpaceOnUse" x1="135.135" y1="115.427" x2="156.875" y2="115.427"><stop offset="0" stop-color="#902968"/><stop offset="1" stop-color="#c92b5e"/></linearGradient><path fill="url(#B)" d="M136.5 128.6c1.4 1 3.5.8 4.5-.8l15.3-21.1c1-1.4.8-3.5-.8-4.5-1.4-1-3.5-.8-4.5.8l-15.3 21c-1 1.5-.7 3.5.8 4.6z"/><linearGradient id="C" gradientUnits="userSpaceOnUse" x1="123.45" y1="127.194" x2="199.156" y2="127.194"><stop offset="0" stop-color="#902968"/><stop offset="1" stop-color="#c92b5e"/></linearGradient><path fill="url(#C)" d="M193.8 132.8h-65a5.27 5.27 0 0 1-5.3-5.3v-.5a5.27 5.27 0 0 1 5.3-5.3h65a5.27 5.27 0 0 1 5.3 5.3v.5c.1 2.9-2.4 5.3-5.3 5.3z"/><linearGradient id="D" gradientUnits="userSpaceOnUse" x1="129.543" y1="149.167" x2="193.063" y2="149.167"><stop offset="0" stop-color="#902968"/><stop offset="1" stop-color="#c92b5e"/></linearGradient><path fill="url(#D)" d="M129.5 132.3l8.1 30.5c.5 2.1 2.3 3.4 4.3 3.4h38.8c2 0 3.7-1.3 4.3-3.4l7.9-30.5h-63.4zm36.6 17.7c0 .6-.5 1.1-.9 1.1h-14.5c-.5 0-.9-.5-.9-1.1v-12.8c0-.6.5-1.1.9-1.1h14.5c.5 0 .9.5.9 1.1V150zm6.8 0c0 .6-.5 1.1-1 1.1H168v-15h3.9c.5 0 1 .5 1 1.1V150z"/></g><g class="L"><path d="M793.3 383.1c0 .4-.2.8-.5 1.1s-.7.5-1.1.5H534.8a1.58 1.58 0 0 1-1.6-1.6c0-.4.2-.8.5-1.1s.7-.5 1.1-.5h256.9c.8 0 1.6.7 1.6 1.6z"/><path d="M759.3 381.5h-15.2c0-.5.1-1 .4-1.4.4-.5.9-.7 1.5-.8s1.2-.1 1.8-.1c1.4-.1 2.9-.5 4.1-1.2l2-1.1 4.1.1c.6.6.9 1.4 1.1 2.2s.2 1.6.2 2.3z"/></g><path d="M759.2 372.5l-1.1 4.5-4.2-.1.2-4.8z" class="F"/><path d="M752.8 334.2c-.1-2.9.2-5.8.8-8.6l5.6-28.6c.6-4.1 3.9-5.2 8-4.7 2.4.3 24.5 4.9 24.5 5.1l-4.8 75-6.2-.2-6.6-59.1-10.1 18.6-4.3 40.9-5.9-.4-1-38zm34.2 47.3h-15.2c0-.5.1-1 .4-1.4.4-.5.9-.7 1.5-.8s1.2-.1 1.8-.1c1.4-.1 2.9-.5 4.1-1.2l2-1.1 4.1.1c.6.6.9 1.4 1.1 2.2.3.8.3 1.6.2 2.3z" class="L"/><path d="M786.3 372.4l-.5 4.6-4.1-.1-.7-4.7z" class="F"/><path fill="#ea8096" d="M726.7 239.7c.8-.1 1.5.4 1.7 1.1.5 2.1 1.1 4.2 1.9 6.1s1.9 3.7 3.1 5.2c1.3 1.5 2.8 2.6 4.4 3.3.8.3 1.7.6 2.6.8s1.8.2 2.8.2c1.9 0 3.8-.3 5.8-.8s3.9-1.2 5.8-1.9l5.8-2.7 5.6-3.1a4.46 4.46 0 0 1 3.9-.3c1.3.4 2.5 1.3 3.2 2.7h0c.7 1.3.9 2.8.5 4.2-.4 1.3-1.3 2.5-2.7 3.1l-6.6 2.5c-2.2.8-4.5 1.5-6.9 2.1-2.3.6-4.8 1.1-7.2 1.3-2.5.2-5 .3-7.6-.1-1.3-.2-2.6-.5-3.9-.9s-2.5-1-3.7-1.7c-2.3-1.4-4.3-3.4-5.6-5.6-1.4-2.2-2.3-4.5-2.9-6.8a42.72 42.72 0 0 1-1.2-7c-.2-.9.4-1.6 1.2-1.7z"/><path fill="#175bcb" d="M756.7 266.2l12.8-5.9c3.9-1.8 5.8-6.2 4-10h0c-1.8-3.9-6.6-5.8-10.5-4l-12.8 5.9 6.5 14z"/><linearGradient id="E" gradientUnits="userSpaceOnUse" x1="759.171" y1="272.301" x2="791.629" y2="272.301"><stop offset="0" stop-color="#a537d3"/><stop offset="1" stop-color="#ed497a"/></linearGradient><path fill="url(#E)" d="M774.9 243.6h0c-8.3-.7-15.5 5.8-15.5 14.1l-.2 39.2c13.3 6.4 20.8 4.3 32.5.4l-.8-36.8c-.3-8.8-7.2-16.1-16-16.9z"/><path d="M759 272.1h.3l.1-14.3c0-7.9 6.5-14.2 14.2-14.2.4 0 .9 0 1.3.1.2 0 .5 0 .7.1 0-.1 0-.2-.1-.3-.2 0-.4 0-.6-.1-.4 0-.9-.1-1.3-.1-8 0-14.5 6.5-14.5 14.5l-.1 14.3zm10.6 28.5l-.1.3c1.8.3 3.5.5 5.3.5.8 0 1.6 0 2.3-.1v-.3a27.43 27.43 0 0 1-7.5-.4zm16.4-52l-.2.2c3 3.1 4.8 7.2 5 11.7l.2 8.9h.3l-.2-8.9c-.2-4.6-2-8.8-5.1-11.9zm5.6 48.8c-1.4.5-2.8.9-4.1 1.3v.3c1.3-.4 2.7-.8 4.1-1.3l.2-.1-.2-8.5h-.3l.3 8.3zm-32.7-.3l.2.1 2.7 1.2.1-.3c-.8-.4-1.7-.8-2.6-1.2l.1-14h-.4l-.1 14.2z" class="D"/><path d="M770.8 239.1l.3 10.1c2.2 1.4 4.4 1.3 6.6-.2l-.3-10.1-6.6.2z" class="F"/><path fill="#ea8096" d="M770.8 239.1l.1 4.6c.5.2 1 .3 1.5.3h.5c1.8-.1 3.5-.9 4.6-2.4l-.1-2.7-6.6.2z"/><path d="M767.6 233l.4 5.9c.2 2.4 2.1 4.3 4.4 4.4h0c2.2.1 4.2-1.1 5.1-3.1.6-1.3 1.1-2.8 1.6-4.4.8-2.5.2-5.4-1.7-7.2-1.6-1.6-3.6-2-6-1.3-2.4.9-4 3.2-3.8 5.7z" class="F"/><g class="L"><path d="M768.8 229.8s-1.2 2-1 5.6c0 0-.7-3.7 0-6.5l1 .9z"/><path d="M781.2 235.9s3.3-4.7 0-8.5c-3.5-4-5.9-3.7-8.5-3-3.3.8-5 1.9-6.3 1.6-.7-.2-1.2-.7-1.3-.4-.1.4-.3 2.6 1.5 4.3s4.3 1.5 6.7.3 3.5-1 4.5.5c1 1.6-.5 4.4-.5 4.4l.7.3c.1 0 2.9-1.6 3.2.5z"/></g><ellipse transform="matrix(.9996 -.029727 .029727 .9996 -6.6516 23.2621)" cx="779" cy="235.3" rx="2.5" ry="2.2" class="F"/><path fill="#ff654f" d="M745.5 185l-28.6 37.7h9.5v129.1h38.1V222.7h9.5z"/><path fill="#f2bac5" d="M736.5 283c-.1.8.5 1.5 1.3 1.5 2.3.1 4.6-.1 6.8-.4 2.2-.4 4.4-.9 6.6-1.6.5-.2 1.1-.3 1.6-.5l6.4-2.4c.5-.2 1-.5 1.5-.7l3-1.5c8-4.2 15.3-9.4 22.1-15.2.3-.2.5-.5.7-.8s.4-.6.5-.9c.3-.6.4-1.3.4-1.9 0-1.3-.5-2.6-1.5-3.6h0c-1-1-2.3-1.5-3.6-1.5-.6 0-1.3.1-1.9.4-.3.1-.6.3-.8.5-.3.2-.5.4-.7.6-5.6 6.2-11.7 12-18.4 16.9-.8.6-1.7 1.2-2.6 1.8a9.13 9.13 0 0 1-1.3.8l-1.4.8c-.4.3-.9.5-1.3.8l-1.4.8-1.4.7c-.5.2-.9.4-1.4.7-1.9.9-3.8 1.6-5.8 2.2s-4 1.1-6 1.2c-.8 0-1.3.5-1.4 1.3h0z"/><path fill="#d44398" d="M774.7 273.5l10.1-8.5c3.1-2.6 3.7-7 1.2-10h0c-2.6-3.1-7.4-3.6-10.4-1.1l-10.1 8.5 9.2 11.1z"/><path d="M771.9 256.5l-5.4 4.5.2.3 5.4-4.5-.2-.3zm15.5.1l-.3.2c1.1 2.7.4 5.8-1.8 7.9l.3.2c1.3-1.3 2.1-2.9 2.4-4.7.1-1.2-.1-2.5-.6-3.6zm-11.1-3.6l.3.3c2.5-1.4 5.8-1.2 8.1.5l.3-.3c-1.4-1-3-1.5-4.8-1.5-1.4-.1-2.7.3-3.9 1zm-1.6 20.5l-3-3.6-.3.2 3.3 3.9 7.3-6.1-.2-.3-7.1 5.9zm-9-10.2l3.5 4.2.4-.1-3.6-4.4-.3.3z" class="D"/><path d="M537.9 355.6H576v25.9h-38.1zm47.1 0v25.9h38.1v-51.7H585zm47.2-25.8v51.7h38V304h-38zm47.1-25.8v77.5h38V278.3h-38z" fill="#ff654f"/><linearGradient id="F" gradientUnits="userSpaceOnUse" x1="539.332" y1="264.939" x2="705.576" y2="264.939"><stop offset="0" stop-color="#902968"/><stop offset="1" stop-color="#c92b5e"/></linearGradient><path fill="url(#F)" d="M541.2 335.8l-1.9-9.5C641.7 306.1 683.4 227 696.6 194l9 3.6c-7.8 19.5-22.5 48.4-48.2 75.4-14.3 14.9-30.4 27.6-48.1 37.7-20.6 11.8-43.5 20.3-68.1 25.1z"/><path fill="#c62c5f" d="M685.9 195.1l21.8-18.9 5.5 28.3z"/><linearGradient id="G" gradientUnits="userSpaceOnUse" x1="721.432" y1="335.921" x2="745.072" y2="308.481"><stop offset="0" stop-color="#fbf33f"/><stop offset="1" stop-color="#d73c65"/></linearGradient><circle fill="url(#G)" cx="745.5" cy="307.9" r="17.6"/><linearGradient id="H" gradientUnits="userSpaceOnUse" x1="758.43" y1="288.468" x2="688.525" y2="394.074"><stop offset="0" stop-color="#fbf33f"/><stop offset="1" stop-color="#d73c65"/></linearGradient><circle fill="url(#H)" cx="745.5" cy="307.9" r="17"/><g class="D"><path d="M731.5 301.2h-.2c-.2-.1-.3-.3-.2-.5 2.8-5.5 8.3-8.9 14.4-8.9 1 0 2 .1 2.9.3.2 0 .4.2.3.5 0 .2-.2.4-.5.3-.9-.2-1.8-.2-2.8-.2-5.8 0-11.1 3.2-13.7 8.4.1.1-.1.1-.2.1z"/><circle transform="matrix(.9697 -.2445 .2445 .9697 -52.7358 191.7083)" opacity=".78" cx="745.9" cy="308.3" r="14.4"/></g><linearGradient id="I" gradientUnits="userSpaceOnUse" x1="756.345" y1="291.494" x2="719.122" y2="353.985"><stop offset="0" stop-color="#fbf33f"/><stop offset="1" stop-color="#d73c65"/></linearGradient><path fill="url(#I)" d="M744.5 319v-1.6c-1.6-.1-3.3-.5-4.4-1-.4-.2-.6-.6-.5-1.1l.4-1.5c.1-.5.7-.8 1.2-.6 1.1.5 2.5.9 4.1.9s2.8-.5 2.8-1.6c0-1-.9-1.6-3.1-2.2-3.1-.9-5.4-2.2-5.4-5 0-2.5 1.8-4.4 5-4.9V299c0-.5.4-.9.9-.9h.9c.5 0 .9.4.9.9v1.4c1.5.1 2.6.3 3.5.6.4.2.7.6.6 1.1l-.4 1.4c-.1.5-.7.8-1.2.6-.8-.3-1.9-.6-3.4-.6-1.9 0-2.4.8-2.4 1.5 0 .9 1.1 1.4 3.6 2.2 3.5 1 4.9 2.5 4.9 5.1 0 2.4-1.8 4.5-5.2 5v1.8c0 .5-.4.9-.9.9h-.9c-.6-.1-1-.5-1-1z"/><linearGradient id="J" gradientUnits="userSpaceOnUse" x1="746.773" y1="342.382" x2="743.534" y2="357.824"><stop offset="0" stop-color="#fbf33f"/><stop offset="1" stop-color="#d73c65"/></linearGradient><use xlink:href="#c" fill="url(#J)"/><linearGradient id="K" gradientUnits="userSpaceOnUse" x1="746.744" y1="342.38" x2="743.504" y2="357.822"><stop offset="0" stop-color="#fbf33f"/><stop offset="1" stop-color="#d73c65"/></linearGradient><use xlink:href="#c" y="-7.5" fill="url(#K)"/><linearGradient id="L" gradientUnits="userSpaceOnUse" x1="746.761" y1="342.379" x2="743.521" y2="357.821"><stop offset="0" stop-color="#fbf33f"/><stop offset="1" stop-color="#d73c65"/></linearGradient><use xlink:href="#c" x="-0.2" y="-15" fill="url(#L)"/><linearGradient id="M" gradientUnits="userSpaceOnUse" x1="746.801" y1="349.883" x2="743.561" y2="365.325"><stop offset="0" stop-color="#fbf33f"/><stop offset="1" stop-color="#d73c65"/></linearGradient><use xlink:href="#d" fill="url(#M)"/><linearGradient id="N" gradientUnits="userSpaceOnUse" x1="746.728" y1="342.385" x2="743.488" y2="357.827"><stop offset="0" stop-color="#fbf33f"/><stop offset="1" stop-color="#d73c65"/></linearGradient><use xlink:href="#c" x="0.1" y="15" fill="url(#N)"/><linearGradient id="O" gradientUnits="userSpaceOnUse" x1="746.755" y1="342.386" x2="743.515" y2="357.828"><stop offset="0" stop-color="#fbf33f"/><stop offset="1" stop-color="#d73c65"/></linearGradient><use xlink:href="#c" x="0.1" y="22.5" fill="url(#O)"/><linearGradient id="P" gradientUnits="userSpaceOnUse" x1="746.782" y1="349.888" x2="743.542" y2="365.33"><stop offset="0" stop-color="#fbf33f"/><stop offset="1" stop-color="#d73c65"/></linearGradient><use xlink:href="#d" x="0.1" y="22.5" fill="url(#P)"/><linearGradient id="Q" gradientUnits="userSpaceOnUse" x1="672.662" y1="357.326" x2="697.828" y2="328.115"><stop offset="0" stop-color="#fbf33f"/><stop offset="1" stop-color="#d73c65"/></linearGradient><circle fill="url(#Q)" cx="698.3" cy="327.5" r="18.8"/><linearGradient id="R" gradientUnits="userSpaceOnUse" x1="712.049" y1="306.81" x2="637.632" y2="419.232"><stop offset="0" stop-color="#fbf33f"/><stop offset="1" stop-color="#d73c65"/></linearGradient><circle fill="url(#R)" cx="698.3" cy="327.5" r="18.1"/><g class="D"><path d="M683.4 320.4h-.2c-.2-.1-.3-.4-.2-.6 2.9-5.8 8.8-9.4 15.3-9.4a16.28 16.28 0 0 1 3.1.3c.2 0 .4.3.3.5 0 .2-.3.4-.5.3a15.04 15.04 0 0 0-2.9-.3c-6.2 0-11.8 3.4-14.6 9 0 .1-.2.2-.3.2z"/><circle transform="matrix(.9951 -.098537 .098537 .9951 -28.9119 70.447)" opacity=".78" cx="698.7" cy="327.9" r="15.4"/></g><linearGradient id="S" gradientUnits="userSpaceOnUse" x1="709.829" y1="310.031" x2="670.203" y2="376.555"><stop offset="0" stop-color="#fbf33f"/><stop offset="1" stop-color="#d73c65"/></linearGradient><path fill="url(#S)" d="M697.2 339.3v-1.7c-1.7-.1-3.5-.5-4.7-1-.4-.2-.7-.7-.5-1.1l.4-1.6c.2-.6.8-.9 1.3-.6 1.2.5 2.7.9 4.3.9 1.7 0 2.9-.6 2.9-1.7s-1-1.7-3.3-2.3c-3.3-.9-5.7-2.4-5.7-5.3 0-2.6 1.9-4.7 5.3-5.2V318c0-.5.4-1 1-1h1c.5 0 1 .4 1 1v1.5c1.6.1 2.8.3 3.7.7.5.2.7.7.6 1.2l-.4 1.4c-.2.6-.7.9-1.3.7-.9-.3-2.1-.7-3.6-.7-2 0-2.6.8-2.6 1.6 0 .9 1.2 1.5 3.8 2.3 3.7 1.1 5.2 2.6 5.2 5.4 0 2.5-1.9 4.8-5.5 5.4v1.9c0 .5-.4 1-1 1h-1c-.4-.1-.9-.5-.9-1.1z"/><linearGradient id="T" gradientUnits="userSpaceOnUse" x1="699.639" y1="348.034" x2="696.19" y2="364.473"><stop offset="0" stop-color="#fbf33f"/><stop offset="1" stop-color="#d73c65"/></linearGradient><path fill="url(#T)" d="M714.2 357.7h-31.7c-1.4 0-2.5-1.1-2.5-2.5v-1.9c0-1.4 1.1-2.5 2.5-2.5h31.7c1.4 0 2.5 1.1 2.5 2.5v1.9c0 1.4-1.1 2.5-2.5 2.5z"/><linearGradient id="U" gradientUnits="userSpaceOnUse" x1="699.668" y1="355.941" x2="696.219" y2="372.379"><stop offset="0" stop-color="#fbf33f"/><stop offset="1" stop-color="#d73c65"/></linearGradient><path fill="url(#U)" d="M714.2 365.7h-31.7c-1.4 0-2.5-1.1-2.5-2.5v-1.9c0-1.4 1.1-2.5 2.5-2.5h31.7c1.4 0 2.5 1.1 2.5 2.5v1.9c0 1.3-1.1 2.5-2.5 2.5z"/><linearGradient id="V" gradientUnits="userSpaceOnUse" x1="699.697" y1="363.847" x2="696.248" y2="380.286"><stop offset="0" stop-color="#fbf33f"/><stop offset="1" stop-color="#d73c65"/></linearGradient><path fill="url(#V)" d="M714.2 373.6h-31.7c-1.4 0-2.5-1.1-2.5-2.5v-1.9c0-1.4 1.1-2.5 2.5-2.5h31.7c1.4 0 2.5 1.1 2.5 2.5v1.9c.1 1.3-1.1 2.5-2.5 2.5z"/><linearGradient id="W" gradientUnits="userSpaceOnUse" x1="699.726" y1="371.753" x2="696.277" y2="388.192"><stop offset="0" stop-color="#fbf33f"/><stop offset="1" stop-color="#d73c65"/></linearGradient><path fill="url(#W)" d="M714.3 381.5h-31.7c-1.4 0-2.5-1.1-2.5-2.5v-2c0-1.4 1.1-2.5 2.5-2.5h31.7c1.4 0 2.5 1.1 2.5 2.5v1.9c0 1.4-1.1 2.6-2.5 2.6z"/><g fill="#010b15"><path d="M275.9 401.5c.2.3.6.4.9.2s.4-.6.2-.9l-3.2-4.4c-.2-.3-.6-.4-.9-.2s-.4.6-.2.9l3.2 4.4zm-9.3.2c.3.2.7.2.9-.2l3.2-4.4c.2-.3.2-.7-.2-.9-.3-.2-.7-.2-.9.2l-3.2 4.3c-.2.3-.1.7.2 1z"/><path d="M278.4 402.5H265a1.11 1.11 0 0 1-1.1-1.1v-.1a1.11 1.11 0 0 1 1.1-1.1h13.4a1.11 1.11 0 0 1 1.1 1.1v.1a1.11 1.11 0 0 1-1.1 1.1z"/><path d="M265.1 402.4l1.7 6.3c.1.4.5.7.9.7h8c.4 0 .8-.3.9-.7l1.6-6.3h-13.1zm7.6 3.7c0 .1-.1.2-.2.2h-3c-.1 0-.2-.1-.2-.2v-2.6c0-.1.1-.2.2-.2h3c.1 0 .2.1.2.2v2.6zm1.4 0c0 .1-.1.2-.2.2h-.8v-3.1h.8c.1 0 .2.1.2.2v2.7z"/></g><g fill="#922968"><path d="M219.4 127.6v-20.2h4.3c.9 0 1.8.1 2.5.3s1.4.5 1.9.9c.6.4 1 .9 1.3 1.6s.4 1.4.4 2.3c0 1.3-.3 2.2-.8 2.9s-1.4 1.1-2.5 1.4c1.2.4 2.1 1 2.7 1.7.6.8.9 1.9.9 3.3 0 1.8-.5 3.2-1.5 4.2s-2.4 1.5-4.2 1.5h-5zm2.8-11.5h1.4c2.4 0 3.6-1.2 3.6-3.6 0-.4 0-.7-.1-1.1l-.3-.8c-.1-.2-.3-.4-.6-.5s-.5-.2-.7-.3-.5-.1-1-.2c-.4 0-.8-.1-1-.1h-1.2v6.6zm0 9.3h1.4c1.2 0 2.2-.3 2.7-.9.6-.6.9-1.5.9-2.7 0-1.3-.3-2.2-.9-2.7-.6-.6-1.5-.9-2.7-.9h-1.4v7.2zm17.3 1c-.7.9-1.8 1.3-3.3 1.3s-2.7-.4-3.3-1.3c-.7-.9-1-2.2-1-3.9v-4.3c0-1.7.3-3 1-3.9s1.8-1.3 3.3-1.3 2.7.4 3.3 1.3c.7.9 1 2.2 1 3.9v4.3c0 1.8-.3 3-1 3.9zm-3.9-1.1a.9.9 0 0 0 .5.1c.2 0 .4 0 .5-.1.2-.1.3-.1.4-.2s.2-.2.3-.4.1-.3.2-.4c0-.1.1-.3.1-.6V117c0-.3 0-.4-.1-.6a.76.76 0 0 0-.2-.4c-.1-.2-.2-.3-.3-.4s-.2-.2-.4-.2c-.2-.1-.3-.1-.5-.1s-.4 0-.5.1c-.2.1-.3.1-.4.2s-.2.2-.3.4-.1.3-.2.4c0 .1-.1.3-.1.6v6.7c0 .2 0 .4.1.6a.76.76 0 0 0 .2.4 1.38 1.38 0 0 0 .3.4.76.76 0 0 0 .4.2zm14.6 1.1c-.7.9-1.8 1.3-3.3 1.3s-2.7-.4-3.3-1.3c-.7-.9-1-2.2-1-3.9v-4.3c0-1.7.3-3 1-3.9s1.8-1.3 3.3-1.3 2.7.4 3.3 1.3c.7.9 1 2.2 1 3.9v4.3c0 1.8-.3 3-1 3.9zm-3.8-1.1a.9.9 0 0 0 .5.1c.2 0 .4 0 .5-.1.2-.1.3-.1.4-.2a1.38 1.38 0 0 0 .3-.4c.1-.2.1-.3.2-.4 0-.1.1-.3.1-.6V117c0-.2 0-.4-.1-.6a.76.76 0 0 0-.2-.4c-.1-.2-.2-.3-.3-.4s-.2-.2-.4-.2c-.2-.1-.3-.1-.5-.1s-.4 0-.5.1c-.2.1-.3.1-.4.2s-.2.2-.3.4-.1.3-.2.4c0 .1-.1.3-.1.6v6.7c0 .3 0 .4.1.6a.76.76 0 0 0 .2.4 1.38 1.38 0 0 0 .3.4c.1.1.2.2.4.2zm11 2.5a4.17 4.17 0 0 1-2.9-1.1c-.7-.7-1.2-1.6-1.5-2.7l2.2-.7c.5 1.4 1.2 2.2 2.2 2.2.5 0 .8-.1 1.1-.4s.4-.6.4-1.1a2.19 2.19 0 0 0-.7-1.7l-2.9-2.2c-.3-.2-.6-.4-.8-.6l-.7-.7c-.2-.3-.4-.6-.5-.9s-.2-.7-.2-1.1c0-1.2.4-2.2 1.2-2.8.8-.7 1.8-1 3.1-1 .6 0 1.2.1 1.7.3s.9.5 1.3.8.6.8.8 1.2a5.27 5.27 0 0 1 .5 1.5l-2.2.7c-.1-.3-.2-.5-.3-.7s-.2-.4-.4-.7l-.6-.6c-.2-.1-.5-.2-.8-.2-.5 0-.8.1-1.1.4s-.4.6-.4 1.1c0 .4.2.9.7 1.2l2.9 2.2c.3.3.6.5.8.7s.5.5.7.8a4.67 4.67 0 0 1 .5 1c.1.4.2.8.2 1.2 0 1.2-.4 2.2-1.2 2.8-.8.8-1.8 1.1-3.1 1.1zm10 0c-1.1 0-2-.3-2.5-.9s-.8-1.5-.8-2.6v-9h-1.4v-2.2h1.4v-5h2.9v5h2.2v2.2H267v8.4c0 .6.1 1 .2 1.3.2.3.5.4 1 .4.2 0 .5 0 1-.1v2.3c-.7.2-1.3.2-1.8.2zm8.2 3.4V129c.6 0 1 0 1.4-.1.3-.1.6-.2.8-.4s.3-.4.3-.6.1-.5.1-1l-3.3-13.7h2.9l1.8 10.1.5-3.2.7-3.7.6-3.2h2.9l-3.6 15.1c-.2 1-.7 1.8-1.5 2.2s-1.8.7-3.2.7h-.4zm17.4-4.8c-.7.9-1.8 1.3-3.3 1.3s-2.7-.4-3.3-1.3c-.7-.9-1-2.2-1-3.9v-4.3c0-1.7.3-3 1-3.9s1.8-1.3 3.3-1.3 2.7.4 3.3 1.3 1 2.2 1 3.9v4.3c0 1.8-.4 3-1 3.9zm-3.9-1.1a.9.9 0 0 0 .5.1c.2 0 .4 0 .5-.1.2-.1.3-.1.4-.2s.2-.2.3-.4.1-.3.2-.4c0-.1.1-.3.1-.6V117c0-.2 0-.4-.1-.6a.76.76 0 0 0-.2-.4c-.1-.2-.2-.3-.3-.4s-.2-.2-.4-.2c-.2-.1-.3-.1-.5-.1s-.4 0-.5.1c-.2.1-.3.1-.4.2a1.38 1.38 0 0 0-.3.4c-.1.2-.1.3-.2.4 0 .1-.1.3-.1.6v6.7c0 .2 0 .4.1.6a.76.76 0 0 0 .2.4 1.38 1.38 0 0 0 .3.4.76.76 0 0 0 .4.2zm9.3 2.5c-.6 0-1.1-.2-1.5-.7-.4-.4-.6-1-.6-1.7v-12.3h2.9v11.4c0 .3.1.5.3.7s.4.3.7.3c.2 0 .3 0 .5-.1a.76.76 0 0 0 .4-.2c.1-.1.3-.2.3-.2.1-.1.2-.2.4-.3s.2-.2.3-.2v-11.4h2.9v14.4h-2.9V126c-.3.2-.5.4-.6.5s-.3.3-.6.5-.5.3-.7.4-.5.2-.8.2-.7.2-1 .2z"/><use xlink:href="#e"/><path d="M322.3 127.6l-3.6-20.2h2.9l1.4 9.4.7 5.8.7-5.8 1.4-9.4h2.9l1.4 9.4.7 5.8.7-5.8 1.4-9.4h2.9l-3.6 20.2h-2.9l-1.4-9.4-.7-5.8-.7 5.8-1.4 9.4h-2.8zm21.9-1.2c-.7.9-1.8 1.3-3.3 1.3s-2.7-.4-3.3-1.3-1-2.2-1-3.9v-4.3c0-1.7.3-3 1-3.9s1.8-1.3 3.3-1.3 2.7.4 3.3 1.3c.7.9 1 2.2 1 3.9v4.3c0 1.8-.3 3-1 3.9zm-3.8-1.1a.9.9 0 0 0 .5.1c.2 0 .4 0 .5-.1.2-.1.3-.1.4-.2a1.38 1.38 0 0 0 .3-.4c.1-.2.1-.3.2-.4 0-.1.1-.3.1-.6V117c0-.2 0-.4-.1-.6a.76.76 0 0 0-.2-.4 1.38 1.38 0 0 0-.3-.4c-.1-.1-.2-.2-.4-.2-.2-.1-.3-.1-.5-.1s-.4 0-.5.1c-.2.1-.3.1-.4.2s-.2.2-.3.4-.1.3-.2.4c0 .1-.1.3-.1.6v6.7c0 .2 0 .4.1.6a.76.76 0 0 0 .2.4 1.38 1.38 0 0 0 .3.4c.1.1.2.2.4.2z"/><use xlink:href="#f"/><path d="M363.6 127.8c-.8 0-1.6-.1-2.2-.4s-1.2-.6-1.6-1-.7-1-1-1.6-.4-1.3-.5-2-.2-1.5-.2-2.4v-5.7c0-.9.1-1.7.2-2.4s.3-1.4.5-2c.3-.6.6-1.2 1-1.6s.9-.7 1.6-1c.6-.2 1.4-.4 2.2-.4.9 0 1.7.1 2.4.4s1.2.7 1.6 1.2.7 1.2.9 1.9.3 1.5.4 2.5v.7H366v-1.6c0-.3-.1-.6-.1-.9-.1-.3-.1-.5-.3-.7-.1-.2-.3-.4-.4-.6-.2-.2-.4-.3-.7-.4s-.6-.1-.9-.1a3.73 3.73 0 0 0-1.2.2c-.3.1-.6.3-.8.6-.2.2-.3.6-.4 1s-.2.8-.2 1.2v8.6c0 .5 0 .9.1 1.3 0 .4.1.8.2 1.2s.3.7.5 1 .4.5.8.6c.3.2.7.2 1.1.2s.8-.1 1.1-.2.5-.4.7-.6c.2-.3.3-.6.4-1s.2-.8.2-1.2v-2h2.9v.7c0 1-.1 2-.3 2.7-.2.8-.5 1.5-.9 2.1s-1 1.1-1.7 1.4c-.7.1-1.5.3-2.5.3z"/><use xlink:href="#f" x="23.2"/><path d="M381.5 127.6v-14.4h2.9v1.6c1-1.2 2.2-1.8 3.6-1.8.7 0 1.2.2 1.5.5s.5.8.7 1.4c.5-.6 1-1.1 1.5-1.4s1.2-.5 2.1-.5c.2 0 .5 0 .6.1.2 0 .4.1.5.2s.3.2.4.3.2.3.3.4.1.3.2.5c0 .2.1.4.1.5s0 .4.1.6v12.1h-3v-11.3c0-.2 0-.3-.1-.5 0-.2-.1-.3-.2-.4s-.2-.1-.4-.1c-.3 0-.6.1-.9.2s-.5.2-.7.3-.4.3-.6.5v11.3h-2.9v-11.5c0-.2-.1-.3-.1-.4s-.1-.2-.2-.2c-.1-.1-.2-.1-.4-.1-.7 0-1.4.3-2.2.9v11.3h-2.8zm16.9 0v-14.4h2.9v1.6c1-1.2 2.2-1.8 3.6-1.8.7 0 1.2.2 1.5.5s.5.8.7 1.4c.5-.6 1-1.1 1.5-1.4s1.2-.5 2.1-.5c.2 0 .5 0 .6.1.2 0 .4.1.5.2s.3.2.4.3.2.3.3.4.1.3.2.5c0 .2.1.4.1.5s0 .4.1.6v12.1H410v-11.3c0-.2 0-.3-.1-.5 0-.2-.1-.3-.2-.4s-.2-.1-.4-.1c-.3 0-.6.1-.9.2s-.5.2-.7.3-.4.3-.6.5v11.3h-2.9v-11.5c0-.2-.1-.3-.1-.4s-.1-.2-.2-.2c-.1-.1-.2-.1-.4-.1-.7 0-1.4.3-2.2.9v11.3h-2.9zm21 .2c-.7 0-1.3-.1-1.8-.4-.5-.2-.9-.6-1.2-.9-.3-.4-.5-.9-.7-1.5s-.3-1.2-.4-1.8-.1-1.3-.1-2.1v-1.9c0-.7.1-1.4.2-2s.2-1.1.4-1.7c.2-.5.4-1 .8-1.3.3-.4.7-.6 1.2-.8s1.1-.3 1.8-.3a6.96 6.96 0 0 1 1.6.2c.5.2.9.4 1.2.7a4.44 4.44 0 0 1 .8 1.1c.2.4.4.9.5 1.4.1.6.2 1.1.2 1.7 0 .5.1 1.2.1 1.9v.3h-6v3c0 .3.1.6.1.8.1.3.1.5.2.7s.2.3.4.5c.2.1.4.2.6.2.3 0 .5-.1.7-.2s.3-.3.4-.5.2-.5.2-.7.1-.5.1-.9v-.6h2.9v.6c-.1 1.5-.4 2.7-1.1 3.5-.6.6-1.7 1-3.1 1zM418 119h2.9v-.9c0-.4 0-.7-.1-1 0-.3-.1-.6-.2-.9s-.2-.5-.4-.7c-.2-.1-.4-.2-.7-.2s-.5.1-.7.2c-.2.2-.3.4-.4.7s-.2.6-.2.9-.1.6-.1 1v.9z"/><use xlink:href="#e" x="118.4"/><path d="M437.1 127.8c-.7 0-1.3-.1-1.8-.3a2.73 2.73 0 0 1-1.2-.9c-.3-.4-.6-.9-.7-1.4-.2-.6-.3-1.2-.4-1.7-.1-.6-.1-1.3-.1-2v-1.9c0-.8.1-1.4.1-2 .1-.6.2-1.2.4-1.7.2-.6.4-1.1.7-1.4a2.73 2.73 0 0 1 1.2-.9c.5-.2 1.1-.3 1.8-.3 1.5 0 2.6.4 3.3 1.2s1 2 1.1 3.6v.4h-2.9v-.4c0-.4 0-.7-.1-.9 0-.3-.1-.5-.2-.8s-.2-.5-.4-.6-.4-.2-.7-.2-.5.1-.7.3-.3.4-.4.7-.2.6-.2 1c0 .3-.1.7-.1 1.2v4.2c0 .4 0 .8.1 1.1 0 .3.1.6.2.9s.2.5.4.7.4.2.7.2.5 0 .7-.1a.78.78 0 0 0 .4-.4c.1-.2.2-.3.2-.6.1-.2.1-.5.1-.7V123h2.9v.4c0 .8-.1 1.4-.3 2s-.4 1.1-.7 1.5a3.25 3.25 0 0 1-1.3 1c-.7-.2-1.3-.1-2.1-.1zm10.2 0c-.7 0-1.3-.1-1.8-.4-.5-.2-.9-.6-1.2-.9-.3-.4-.5-.9-.7-1.5s-.3-1.2-.4-1.8-.1-1.3-.1-2.1v-1.9c0-.7.1-1.4.2-2s.2-1.1.4-1.7c.2-.5.4-1 .8-1.3.3-.4.7-.6 1.2-.8s1.1-.3 1.8-.3a6.96 6.96 0 0 1 1.6.2c.5.2.9.4 1.2.7a4.44 4.44 0 0 1 .8 1.1c.2.4.4.9.5 1.4.1.6.2 1.1.2 1.7 0 .5.1 1.2.1 1.9v.3h-5.8v3c0 .3.1.6.1.8.1.3.1.5.2.7s.2.3.4.5c.2.1.4.2.6.2.3 0 .5-.1.7-.2s.3-.3.4-.5.2-.5.2-.7.1-.5.1-.9v-.6h2.9v.6c-.1 1.5-.4 2.7-1.1 3.5s-1.9 1-3.3 1zm-1.4-8.8h2.9v-.9c0-.4 0-.7-.1-1 0-.3-.1-.6-.2-.9s-.2-.5-.4-.7c-.2-.1-.4-.2-.7-.2s-.5.1-.7.2c-.2.2-.3.4-.4.7s-.2.6-.2.9-.1.6-.1 1v.9zm17.9 8.8c-1.8 0-3.2-.5-4.2-1.6s-1.5-2.5-1.6-4.4l2.9-.7c.1 2.9 1.1 4.3 2.9 4.3 1.4 0 2.2-.7 2.2-2.2 0-.4-.1-.8-.2-1.2s-.3-.7-.5-1-.5-.5-.7-.7-.5-.4-.8-.7l-3.6-2.9c-.7-.5-1.2-1.2-1.6-2s-.6-1.7-.6-2.7c0-1.5.5-2.7 1.4-3.5.9-.9 2.1-1.3 3.7-1.3s2.9.4 3.9 1.2 1.6 1.9 1.8 3.4c0 .2 0 .4.1.7l-2.9.7c0-.1 0-.3-.1-.6-.1-.9-.4-1.6-.9-2.2-.4-.6-1.1-.8-2-.8-.7 0-1.2.2-1.6.6s-.6.9-.6 1.6c0 1.1.5 2.1 1.4 2.8l3.6 2.9c1.9 1.6 2.9 3.4 2.9 5.6 0 1.5-.5 2.6-1.4 3.5-.8.8-2 1.2-3.5 1.2zm11 0c-1.1 0-2-.3-2.5-.9s-.8-1.5-.8-2.6v-9h-1.4v-2.2h1.4v-5h2.9v5h2.2v2.2h-2.2v8.4c0 .6.1 1 .2 1.3.2.3.5.4 1 .4.2 0 .5 0 1-.1v2.3c-.8.2-1.4.2-1.8.2zm11.1-1.4c-.7.9-1.8 1.3-3.3 1.3s-2.7-.4-3.3-1.3-1-2.2-1-3.9v-4.3c0-1.7.3-3 1-3.9s1.8-1.3 3.3-1.3 2.7.4 3.3 1.3c.7.9 1 2.2 1 3.9v4.3c0 1.8-.3 3-1 3.9zm-3.8-1.1a.9.9 0 0 0 .5.1c.2 0 .4 0 .5-.1.2-.1.3-.1.4-.2s.2-.2.3-.4.1-.3.2-.4c0-.1.1-.3.1-.6V117c0-.2 0-.4-.1-.6a.76.76 0 0 0-.2-.4 1.38 1.38 0 0 0-.3-.4c-.1-.1-.2-.2-.4-.2-.2-.1-.3-.1-.5-.1s-.4 0-.5.1c-.2.1-.3.1-.4.2a1.38 1.38 0 0 0-.3.4c-.1.2-.1.3-.2.4 0 .1-.1.3-.1.6v6.7c0 .2 0 .4.1.6a.76.76 0 0 0 .2.4 1.38 1.38 0 0 0 .3.4c.1.1.2.2.4.2z"/><use xlink:href="#e" x="181.9"/><path d="M501.1 127.8c-.7 0-1.3-.1-1.8-.4-.5-.2-.9-.6-1.2-.9-.3-.4-.5-.9-.7-1.5s-.3-1.2-.4-1.8-.1-1.3-.1-2.1v-1.9c0-.7.1-1.4.2-2s.2-1.1.4-1.7c.2-.5.4-1 .8-1.3.3-.4.7-.6 1.2-.8s1.1-.3 1.8-.3a6.96 6.96 0 0 1 1.6.2c.5.2.9.4 1.2.7a4.44 4.44 0 0 1 .8 1.1c.2.4.4.9.5 1.4.1.6.2 1.1.2 1.7 0 .5.1 1.2.1 1.9v.3h-5.8v3c0 .3.1.6.1.8.1.3.1.5.2.7s.2.3.4.5c.2.1.4.2.6.2.3 0 .5-.1.7-.2s.3-.3.4-.5.2-.5.2-.7.1-.5.1-.9v-.6h2.9v.6c-.1 1.5-.4 2.7-1.1 3.5-.8.6-1.9 1-3.3 1zm-1.5-8.8h2.9v-.9c0-.4 0-.7-.1-1 0-.3-.1-.6-.2-.9s-.2-.5-.4-.7c-.2-.1-.4-.2-.7-.2s-.5.1-.7.2c-.2.2-.3.4-.4.7s-.2.6-.2.9-.1.6-.1 1v.9zm17.9 8.8c-.8 0-1.6-.1-2.2-.4-.6-.2-1.2-.6-1.6-1s-.7-1-1-1.6-.4-1.3-.5-2-.2-1.5-.2-2.4v-5.7c0-.9.1-1.7.2-2.4s.3-1.4.5-2c.3-.6.6-1.2 1-1.6s.9-.7 1.6-1c.6-.2 1.4-.4 2.2-.4.9 0 1.7.1 2.4.4s1.2.7 1.6 1.2.7 1.2.9 1.9.3 1.5.4 2.5v.7h-2.9v-1.6c0-.3-.1-.6-.1-.9-.1-.3-.1-.5-.3-.7-.1-.2-.3-.4-.4-.6-.2-.2-.4-.3-.7-.4s-.6-.1-.9-.1a3.73 3.73 0 0 0-1.2.2c-.3.1-.6.3-.8.6-.2.2-.3.6-.4 1s-.2.8-.2 1.2v8.6c0 .5 0 .9.1 1.3 0 .4.1.8.2 1.2s.3.7.5 1 .4.5.8.6c.3.2.7.2 1.1.2s.8-.1 1.1-.2.5-.4.7-.6c.2-.3.3-.6.4-1s.2-.8.2-1.2v-2h2.9v.7c0 1-.1 2-.3 2.7-.2.8-.5 1.5-.9 2.1s-1 1.1-1.7 1.4c-.7.1-1.6.3-2.5.3zm14.5-1.4c-.7.9-1.8 1.3-3.3 1.3s-2.7-.4-3.3-1.3-1-2.2-1-3.9v-4.3c0-1.7.3-3 1-3.9s1.8-1.3 3.3-1.3 2.7.4 3.3 1.3c.7.9 1 2.2 1 3.9v4.3c0 1.8-.4 3-1 3.9zm-3.9-1.1a.9.9 0 0 0 .5.1c.2 0 .4 0 .5-.1.2-.1.3-.1.4-.2s.2-.2.3-.4.1-.3.2-.4c0-.1.1-.3.1-.6V117c0-.2 0-.4-.1-.6a.76.76 0 0 0-.2-.4c-.1-.2-.2-.3-.3-.4s-.2-.2-.4-.2c-.2-.1-.3-.1-.5-.1s-.4 0-.5.1c-.2.1-.3.1-.4.2s-.2.2-.3.4-.1.3-.2.4c0 .1-.1.3-.1.6v6.7c0 .3 0 .4.1.6a.76.76 0 0 0 .2.4c.1.2.2.3.3.4a.76.76 0 0 0 .4.2zm7.2 2.3v-14.4h2.9v1.6c.4-.4.8-.7 1-.9.3-.2.6-.4 1.1-.6s1-.3 1.5-.3c.6 0 1.1.2 1.5.7.4.4.6 1 .6 1.7v12.3H541v-10.8c0-.5-.1-.9-.2-1.1s-.4-.3-.9-.3c-.2 0-.5.1-.7.2s-.4.2-.5.3-.3.2-.5.4v11.4h-2.9zm13.3 0l-3.2-14.4h2.8l2 10.8 1.8-10.8h2.8l-3.2 14.4h-3zm11.6.2c-.7 0-1.3-.1-1.8-.4-.5-.2-.9-.6-1.2-.9-.3-.4-.5-.9-.7-1.5s-.3-1.2-.4-1.8-.1-1.3-.1-2.1v-1.9c0-.7.1-1.4.2-2s.2-1.1.4-1.7c.2-.5.4-1 .8-1.3.3-.4.7-.6 1.2-.8s1.1-.3 1.8-.3a6.96 6.96 0 0 1 1.6.2c.5.2.9.4 1.2.7a4.44 4.44 0 0 1 .8 1.1c.2.4.4.9.5 1.4.1.6.2 1.1.2 1.7 0 .5.1 1.2.1 1.9v.3H559v3c0 .3.1.6.1.8.1.3.1.5.2.7s.2.3.4.5c.2.1.4.2.6.2.3 0 .5-.1.7-.2s.3-.3.4-.5.2-.5.2-.7.1-.5.1-.9v-.6h2.9v.6c-.1 1.5-.4 2.7-1.1 3.5-.8.6-1.9 1-3.3 1zm-1.4-8.8h2.9v-.9c0-.4 0-.7-.1-1s-.1-.6-.2-.9-.2-.5-.4-.7c-.2-.1-.4-.2-.7-.2s-.5.1-.7.2c-.2.2-.3.4-.4.7s-.2.6-.2.9-.1.6-.1 1v.9z"/><use xlink:href="#e" x="259.2"/><path d="M578.2 127.8a4.17 4.17 0 0 1-2.9-1.1c-.7-.7-1.2-1.6-1.5-2.7l2.2-.7c.5 1.4 1.2 2.2 2.2 2.2.5 0 .8-.1 1.1-.4s.4-.6.4-1.1a2.19 2.19 0 0 0-.7-1.7l-2.9-2.2c-.3-.2-.6-.4-.8-.6l-.7-.7c-.2-.3-.4-.6-.5-.9s-.2-.7-.2-1.1c0-1.2.4-2.2 1.2-2.8.8-.7 1.8-1 3.1-1 .6 0 1.2.1 1.7.3s.9.5 1.3.8c.3.4.6.8.8 1.2a5.27 5.27 0 0 1 .5 1.5l-2.2.7c-.1-.3-.2-.5-.3-.7s-.2-.4-.4-.7l-.6-.6c-.2-.1-.5-.2-.8-.2-.5 0-.8.1-1.1.4s-.4.6-.4 1.1c0 .4.2.9.7 1.2l2.9 2.2c.3.3.6.5.8.7s.5.5.7.8a4.67 4.67 0 0 1 .5 1 4.3 4.3 0 0 1 .2 1.2c0 1.2-.4 2.2-1.2 2.8-.7.8-1.8 1.1-3.1 1.1zm6.2-16.8v-2.9h2.9v2.9h-2.9zm0 16.6v-14.4h2.9v14.4h-2.9zm13-1.2c-.7.9-1.8 1.3-3.3 1.3s-2.7-.4-3.3-1.3-1-2.2-1-3.9v-4.3c0-1.7.3-3 1-3.9s1.8-1.3 3.3-1.3 2.7.4 3.3 1.3 1 2.2 1 3.9v4.3c0 1.8-.3 3-1 3.9zm-3.9-1.1a.9.9 0 0 0 .5.1c.2 0 .4 0 .5-.1.2-.1.3-.1.4-.2s.2-.2.3-.4.1-.3.2-.4c0-.1.1-.3.1-.6V117c0-.3 0-.4-.1-.6a.76.76 0 0 0-.2-.4c-.1-.2-.2-.3-.3-.4s-.2-.2-.4-.2c-.2-.1-.3-.1-.5-.1s-.4 0-.5.1c-.2.1-.3.1-.4.2s-.2.2-.3.4-.1.3-.2.4c0 .1-.1.3-.1.6v6.7c0 .2 0 .4.1.6a.76.76 0 0 0 .2.4c.1.2.2.3.3.4.2.1.3.2.4.2z"/><use xlink:href="#g"/><path d="M616.7 127.6v-20.2h3.6c2.1 0 3.8.4 4.8 1.2 1.1.8 1.6 2.2 1.6 4.2 0 1.2-.2 2.2-.6 3a3.51 3.51 0 0 1-1.9 1.7l3.2 10.1h-2.9l-2.9-9.4h-2.2v9.4h-2.7zm2.9-11.5h.7c1.2 0 2.1-.3 2.7-.8s.9-1.3.9-2.5-.3-2-.9-2.5-1.5-.8-2.7-.8h-.7v6.6zm12 11.7c-.8 0-1.5-.3-2-1-.6-.7-.8-1.5-.8-2.3 0-.7.1-1.3.4-1.9.2-.6.5-1 .7-1.4.3-.3.7-.7 1.3-1.1s1.1-.6 1.4-.7.9-.4 1.6-.7c.1-.1.2-.1.3-.1v-1c0-.7-.1-1.3-.3-1.7s-.6-.6-1.1-.6-.8.2-1.1.5c-.2.3-.3.8-.4 1.4v.4h-2.9c0-1.4.4-2.5 1.2-3.3s1.8-1.2 3.2-1.2c1.3 0 2.4.4 3.2 1.2s1.2 1.9 1.2 3.3v6.5c0 1.5.1 2.7.4 3.6H635l-.4-2.2c-.1.3-.3.5-.4.7s-.2.4-.4.6-.4.4-.5.6c-.2.1-.4.2-.7.3-.4 0-.7.1-1 .1zm1.4-2.4c.2 0 .4-.1.6-.2s.3-.2.4-.3.2-.3.4-.4c0 0 0-.1.1-.1v-4c-.1.1-.3.2-.6.4s-.5.3-.7.4-.4.3-.6.4c-.2.2-.4.4-.5.6l-.3.6c-.1.3-.1.5-.1.8-.1 1.2.3 1.8 1.3 1.8zm10.4 2.4c-1.1 0-2-.3-2.5-.9s-.8-1.5-.8-2.6v-9h-1.4v-2.2h1.4v-5h2.9v5h2.2v2.2H643v8.4c0 .6.1 1 .2 1.3.2.3.5.4 1 .4.2 0 .5 0 1-.1v2.3c-.7.2-1.3.2-1.8.2z"/><use xlink:href="#h"/><path d="M225 156.3c-.6 0-1.1-.1-1.6-.4-.4-.3-.9-.6-1.3-1.1v1.3h-2.9V136h2.9v7.2l.6-.6c.1-.1.3-.3.6-.5s.5-.3.8-.4.6-.1.9-.1c.5 0 .9.1 1.3.3s.7.4.9.6a2.27 2.27 0 0 1 .6 1.1c.2.5.3.9.4 1.3s.2.9.2 1.5.1 1.2.1 1.5v1.8c0 .6 0 1.2-.1 1.8l-.3 1.8-.6 1.6c-.3.4-.6.8-1 1.1-.5.2-1 .3-1.5.3zm-.7-2.3c.3 0 .6-.1.8-.3s.4-.5.4-1c.1-.4.2-.8.2-1.2s.1-.9.1-1.4v-4c0-.3-.1-.5-.1-.8-.1-.3-.1-.5-.2-.7a.78.78 0 0 0-.4-.4c-.2-.1-.4-.2-.7-.2-.8 0-1.5.2-2.2.6v9.1c.6.1 1.4.3 2.1.3zm5.8 5.7v-2.2c.6 0 1 0 1.4-.1.3-.1.6-.2.8-.4s.3-.4.3-.6.1-.5.1-1l-3.3-13.7h2.9l1.8 10.1.5-3.2.7-3.7.6-3.2h2.9l-3.6 15.1c-.2 1-.7 1.8-1.5 2.2s-1.8.7-3.2.7h-.4zm16.9-3.4c-.6 0-1.1-.2-1.5-.7-.4-.4-.6-1-.6-1.7v-12.3h2.9V153c0 .3.1.5.3.7s.4.3.7.3c.2 0 .3 0 .5-.1a.76.76 0 0 0 .4-.2c.1-.1.3-.2.3-.2a1.38 1.38 0 0 1 .4-.3c.2-.1.2-.2.3-.2v-11.4h2.9V156h-2.9v-1.6c-.3.2-.5.4-.6.5s-.3.3-.6.5-.5.3-.7.4-.5.2-.8.2c-.3.3-.6.3-1 .3zm12.9 0a4.17 4.17 0 0 1-2.9-1.1c-.7-.7-1.2-1.6-1.5-2.7l2.2-.7c.5 1.4 1.2 2.2 2.2 2.2.5 0 .8-.1 1.1-.4s.4-.6.4-1.1a2.19 2.19 0 0 0-.7-1.7l-2.9-2.2c-.3-.2-.6-.4-.8-.6l-.7-.7c-.2-.3-.4-.6-.5-.9s-.2-.7-.2-1.1c0-1.2.4-2.2 1.2-2.8.8-.7 1.8-1 3.1-1 .6 0 1.2.1 1.7.3s.9.5 1.3.8c.3.4.6.8.8 1.2a5.27 5.27 0 0 1 .5 1.5l-2.2.7c-.1-.3-.2-.5-.3-.7s-.2-.4-.4-.7l-.6-.6c-.2-.1-.5-.2-.8-.2-.5 0-.8.1-1.1.4s-.4.6-.4 1.1c0 .4.2.9.7 1.2l2.9 2.2c.3.3.6.5.8.7s.5.5.7.8a4.67 4.67 0 0 1 .5 1c.1.4.2.8.2 1.2 0 1.2-.4 2.2-1.2 2.8-.8.8-1.8 1.1-3.1 1.1z"/><use xlink:href="#i"/><use xlink:href="#g" x="-329.1" y="28.5"/><path d="M287.4 160.4h-1.8c-.4 0-.7 0-1-.1-.3 0-.6-.1-.9-.2s-.6-.1-.8-.3c-.2-.1-.4-.2-.6-.4s-.4-.3-.5-.5-.2-.4-.2-.7c0-.7.2-1.4.6-1.9s.9-1 1.6-1.3c-.4-.1-.7-.3-1-.5s-.4-.5-.4-.8v-.4c0-.1.1-.3.1-.4s.1-.2.2-.4c.1-.1.1-.3.2-.4 0-.1.1-.2.2-.4s.2-.3.2-.3c0-.1.1-.2.2-.3s.2-.2.2-.3c-1-1.1-1.4-2.6-1.4-4.3 0-1 .2-1.9.5-2.7s.8-1.4 1.5-1.9 1.5-.7 2.4-.7c.5 0 1 .1 1.4.2s.7.3 1 .6c.3.2.5.5.7.9.6-1.1 1.4-1.6 2.4-1.7h.3v2.4h-.9c-.2 0-.3 0-.6.1-.2.1-.4.1-.5.3.1.3.3.7.4 1.2s.2.9.2 1.3c0 1-.2 1.9-.5 2.7s-.8 1.4-1.5 1.9-1.5.7-2.4.7l-1.5-.2s-.1.1-.1.2c-.1.1-.1.2-.1.2 0 .1-.1.1-.1.2v.3a.55.55 0 0 0 .3.5c.2.1.4.2.8.3s.6.1 1 .1c.3 0 .6.1 1 .1s.6 0 .8.1c.4.1.8.1 1.1.2l1 .3c.3.1.6.3.9.5.2.2.4.5.6.8.1.3.2.7.2 1.1 0 .5-.1 1-.3 1.4s-.4.8-.7 1c-.3.3-.7.5-1.1.7s-.9.3-1.4.4c-.6.4-1.1.4-1.7.4zm0-2.1h1.1c.2 0 .4-.1.5-.1.2 0 .3-.1.4-.2l.3-.3c.1-.1.1-.3.1-.4 0-.8-.8-1.3-2.3-1.5l-2.4-.3c-.3.2-.5.5-.7.9s-.3.8-.3 1.2c0 .1 0 .2.1.3s.2.2.4.2.3.1.5.1.4 0 .6.1h1.7zm-.7-8.5c1.2 0 1.8-1 1.8-3.1 0-.4 0-.8-.1-1.1s-.1-.7-.3-1c-.1-.3-.3-.6-.6-.8-.2-.2-.5-.3-.9-.3s-.7.1-.9.3-.4.5-.6.8l-.3 1c-.1.3-.1.7-.1 1.1.2 2.1.8 3.1 2 3.1zm15.2 6.5c-1.1 0-2-.3-2.5-.9s-.8-1.5-.8-2.6v-9h-1.4v-2.2h1.4v-5h2.9v5h2.2v2.2h-2.2v8.4c0 .6.1 1 .2 1.3.2.3.5.4 1 .4.2 0 .5 0 1-.1v2.3c-.7.2-1.3.2-1.8.2zm3.9-.2V136h2.9v7.3c.4-.4.8-.7 1-.9.3-.2.6-.4 1.1-.6s1-.3 1.5-.3c.6 0 1.1.2 1.5.7.4.4.6 1 .6 1.7v12.3h-2.9v-10.8c0-.5-.1-.9-.2-1.1s-.4-.3-.8-.3c-.6 0-1.2.3-1.9.8v11.4h-2.8z"/><use xlink:href="#i" x="51"/><path d="M326.5 156.3a4.17 4.17 0 0 1-2.9-1.1c-.7-.7-1.2-1.6-1.5-2.7l2.2-.7c.5 1.4 1.2 2.2 2.2 2.2.5 0 .8-.1 1.1-.4s.4-.6.4-1.1a2.19 2.19 0 0 0-.7-1.7l-2.9-2.2c-.3-.2-.6-.4-.8-.6l-.7-.7c-.2-.3-.4-.6-.5-.9s-.2-.7-.2-1.1c0-1.2.4-2.2 1.2-2.8.8-.7 1.8-1 3.1-1 .6 0 1.2.1 1.7.3s.9.5 1.3.8c.3.4.6.8.8 1.2a5.27 5.27 0 0 1 .5 1.5l-2.2.7c-.1-.3-.2-.5-.3-.7s-.2-.4-.4-.7l-.6-.6c-.2-.1-.5-.2-.8-.2-.5 0-.8.1-1.1.4s-.4.6-.4 1.1c0 .4.2.9.7 1.2l2.9 2.2c.3.3.6.5.8.7s.5.5.7.8a4.67 4.67 0 0 1 .5 1c.1.4.2.8.2 1.2 0 1.2-.4 2.2-1.2 2.8-.7.8-1.8 1.1-3.1 1.1zm16.1 0c-1.8 0-3.2-.5-4.2-1.6s-1.5-2.5-1.6-4.4l2.9-.7c.1 2.9 1.1 4.3 2.9 4.3 1.4 0 2.2-.7 2.2-2.2 0-.4-.1-.8-.2-1.2s-.3-.7-.5-1-.5-.5-.7-.7-.5-.4-.8-.7l-3.6-2.9c-.7-.5-1.2-1.2-1.6-2s-.6-1.7-.6-2.7c0-1.5.5-2.7 1.4-3.5.9-.9 2.1-1.3 3.7-1.3s2.9.4 3.9 1.2 1.6 1.9 1.8 3.4c0 .2 0 .4.1.7l-2.9.7c0-.1 0-.3-.1-.6-.1-.9-.4-1.6-.9-2.2-.4-.6-1.1-.8-2-.8-.7 0-1.2.2-1.6.6s-.6.9-.6 1.6c0 1.1.5 2.1 1.4 2.8l3.6 2.9c1.9 1.6 2.9 3.4 2.9 5.6 0 1.5-.5 2.6-1.4 3.5-.7.8-1.9 1.2-3.5 1.2z"/><use xlink:href="#i" x="83.7"/><path d="M355.4 156.1v-14.4h2.9v1.6c1-1.2 2.2-1.8 3.6-1.8.7 0 1.2.2 1.5.5s.5.8.7 1.4c.5-.6 1-1.1 1.5-1.4s1.2-.5 2.1-.5c.2 0 .5 0 .6.1.2 0 .4.1.5.2s.3.2.4.3.2.3.3.4.1.3.2.5c0 .2.1.4.1.5s0 .4.1.6v12.1H367v-11.3c0-.1 0-.3-.1-.5 0-.2-.1-.3-.2-.4s-.2-.1-.4-.1c-.3 0-.6.1-.9.2s-.5.2-.7.3-.4.3-.6.5v11.3h-2.9v-11.5c0-.2-.1-.3-.1-.4s-.1-.2-.2-.2c-.1-.1-.2-.1-.4-.1-.7 0-1.4.3-2.2.9v11.3h-2.9zm16.9 4.3v-18.7h2.9v1.4l.5-.5c.1-.1.2-.2.5-.4.2-.2.4-.3.6-.4s.4-.1.6-.2c.3-.1.5-.1.8-.1.5 0 .9.1 1.3.3s.7.4.9.6a2.27 2.27 0 0 1 .6 1.1c.2.5.3.9.4 1.3s.2.9.2 1.5.1 1.2.1 1.5v1.8c0 .6 0 1.2-.1 1.8l-.3 1.8-.6 1.6c-.3.4-.6.8-1 1.1s-.9.4-1.5.4c-1 0-1.9-.5-2.9-1.5v5.6h-3zm5.1-6.4c.3 0 .6-.1.8-.3s.4-.5.4-1c.1-.4.2-.8.2-1.2s.1-.9.1-1.4v-3.5c0-.3-.1-.6-.1-.8s-.1-.5-.2-.7-.2-.5-.3-.6l-.4-.4c-.2-.1-.4-.2-.6-.2h-.3c-.1 0-.2 0-.3.1-.1 0-.2.1-.3.1s-.2.1-.3.1c-.1.1-.2.1-.2.1s-.1.1-.3.2c-.1.1-.2.1-.2.1v8.9c.5.3 1.2.5 2 .5zm6.7 2.1V136h2.9v20.2h-2.9z"/><use xlink:href="#h" x="-257.7" y="28.5"/><path d="M407 156.1v-17.6h-3.6V136h10.1v2.6h-3.6v17.6H407zm14-1.1c-.7.9-1.8 1.3-3.3 1.3s-2.7-.4-3.3-1.3c-.7-.9-1-2.2-1-3.9v-4.3c0-1.7.3-3 1-3.9s1.8-1.3 3.3-1.3 2.7.4 3.3 1.3c.7.9 1 2.2 1 3.9v4.3c0 1.7-.3 3-1 3.9zm-3.8-1.1a.9.9 0 0 0 .5.1c.2 0 .4 0 .5-.1.2-.1.3-.1.4-.2s.2-.2.3-.4.1-.3.2-.4c0-.1.1-.3.1-.6v-6.7c0-.2 0-.4-.1-.6a.76.76 0 0 0-.2-.4 1.38 1.38 0 0 0-.3-.4c-.1-.1-.2-.2-.4-.2-.2-.1-.3-.1-.5-.1s-.4 0-.5.1c-.2.1-.3.1-.4.2a1.38 1.38 0 0 0-.3.4c-.1.2-.1.3-.2.4 0 .1-.1.3-.1.6v6.7c0 .2 0 .4.1.6a.76.76 0 0 0 .2.4 1.38 1.38 0 0 0 .3.4c.1 0 .2.1.4.2zm14.6 1.1c-.7.9-1.8 1.3-3.3 1.3s-2.7-.4-3.3-1.3c-.7-.9-1-2.2-1-3.9v-4.3c0-1.7.3-3 1-3.9s1.8-1.3 3.3-1.3 2.7.4 3.3 1.3c.7.9 1 2.2 1 3.9v4.3c0 1.7-.4 3-1 3.9zm-3.9-1.1a.9.9 0 0 0 .5.1c.2 0 .4 0 .5-.1.2-.1.3-.1.4-.2a1.38 1.38 0 0 0 .3-.4c.1-.2.1-.3.2-.4 0-.1.1-.3.1-.6v-6.7c0-.2 0-.4-.1-.6a.76.76 0 0 0-.2-.4 1.38 1.38 0 0 0-.3-.4c-.1-.1-.2-.2-.4-.2-.2-.1-.3-.1-.5-.1s-.4 0-.5.1c-.2.1-.3.1-.4.2s-.2.2-.3.4-.1.3-.2.4c0 .1-.1.3-.1.6v6.7c0 .2 0 .4.1.6a.76.76 0 0 0 .2.4 1.38 1.38 0 0 0 .3.4.76.76 0 0 1 .4.2zm7.2 2.2V136h2.9v20.2h-2.9zm5.6-4.3L440 136h2.9l-.5 15.8h-1.7zm-.7 4.3v-2.9h2.9v2.9H440z"/></g><defs ><path id="Y" d="M98.7 298c4.5-.8 8.1-4.4 8.9-8.9 0-.2.3-.2.4 0 .8 4.5 4.4 8.1 8.9 8.9.2 0 .2.3 0 .4-4.5.8-8.1 4.4-8.9 8.9 0 .2-.3.2-.4 0-.8-4.5-4.4-8.1-8.9-8.9-.2-.1-.2-.4 0-.4z"/><path id="Z" d="M214.7 342.3h-59.5c-3.7 0-6.6-2.9-6.6-6.6v-73.4c0-3.7 2.9-6.6 6.6-6.6h59.5c3.7 0 6.6 2.9 6.6 6.6v73.4c0 3.5-2.9 6.6-6.6 6.6z"/><path id="a" d="M195.1 325.8l-.8-5.6h1l.4 3.7.5-3.7h.9l.5 3.7.4-3.7h1l-.8 5.6h-1l-.5-3.7-.5 3.7h-1.1z"/><path id="b" d="M266.3 325v-5.6h1.4c.5 0 .9.1 1 .4.3.3.4.6.4 1.1 0 .3 0 .5-.1.6 0 .1-.1.4-.3.5-.1.1-.3.3-.4.3s-.3.1-.4.1h-.5v2.4h-1.1v.2zm1.2-3.3h.3l.1-.1v-1s0-.1-.1-.1h-.4v1.2h.1z"/><path id="c" d="M760.4 351.5h-29.7c-1.3 0-2.4-1.1-2.4-2.4v-1.8c0-1.3 1.1-2.4 2.4-2.4h29.7c1.3 0 2.4 1.1 2.4 2.4v1.8c0 1.3-1.1 2.4-2.4 2.4z"/><path id="d" d="M760.4 359h-29.7c-1.3 0-2.4-1.1-2.4-2.4v-1.8c0-1.3 1.1-2.4 2.4-2.4h29.7c1.3 0 2.4 1.1 2.4 2.4v1.8c0 1.3-1 2.4-2.4 2.4z"/><path id="e" d="M307.4 127.6v-14.4h2.9v1.9c.3-.6.7-1.1 1.3-1.5s1.2-.6 1.9-.6h.5v3.2a4.53 4.53 0 0 0-1.6-.3c-.6 0-1.1.2-1.5.5-.4.4-.6.8-.6 1.4v9.7h-2.9z"/><path id="f" d="M354.9 126.4c-.7.9-1.8 1.3-3.3 1.3s-2.7-.4-3.3-1.3c-.7-.9-1-2.2-1-3.9v-4.3c0-1.7.3-3 1-3.9s1.8-1.3 3.3-1.3 2.7.4 3.3 1.3 1 2.2 1 3.9v4.3c0 1.8-.3 3-1 3.9zm-3.8-1.1c.2.1.3.1.5.1s.4 0 .5-.1c.2-.1.3-.1.4-.2s.2-.2.3-.4.1-.3.2-.4c0-.1.1-.3.1-.6V117c0-.2 0-.4-.1-.6a.76.76 0 0 0-.2-.4c-.1-.2-.2-.3-.3-.4s-.2-.2-.4-.2c-.2-.1-.3-.1-.5-.1s-.4 0-.5.1c-.2.1-.3.1-.4.2a1.38 1.38 0 0 0-.3.4c-.1.2-.1.3-.2.4 0 .1-.1.3-.1.6v6.7c0 .2 0 .4.1.6a.76.76 0 0 0 .2.4 1.38 1.38 0 0 0 .3.4c.1.1.2.2.4.2z"/><path id="g" d="M600.8 127.6v-14.4h2.9v1.6c.4-.4.8-.7 1-.9.3-.2.6-.4 1.1-.6s1-.3 1.5-.3c.6 0 1.1.2 1.5.7.4.4.6 1 .6 1.7v12.3h-2.9v-10.8c0-.5-.1-.9-.2-1.1s-.4-.3-.9-.3c-.2 0-.5.1-.7.2s-.4.2-.5.3-.3.2-.5.4v11.4h-2.9z"/><path id="h" d="M651.3 127.8c-.7 0-1.3-.1-1.8-.4-.5-.2-.9-.6-1.2-.9-.3-.4-.5-.9-.7-1.5s-.3-1.2-.4-1.8-.1-1.3-.1-2.1v-1.9c0-.7.1-1.4.2-2s.2-1.1.4-1.7c.2-.5.4-1 .8-1.3.3-.4.7-.6 1.2-.8s1.1-.3 1.8-.3a6.96 6.96 0 0 1 1.6.2c.5.2.9.4 1.2.7a4.44 4.44 0 0 1 .8 1.1c.2.4.4.9.5 1.4.1.6.2 1.1.2 1.7 0 .5.1 1.2.1 1.9v.3h-5.8v3c0 .3.1.6.1.8.1.3.1.5.2.7s.2.3.4.5c.2.1.4.2.6.2.3 0 .5-.1.7-.2s.3-.3.4-.5.2-.5.2-.7.1-.5.1-.9v-.6h2.9v.6c-.1 1.5-.4 2.7-1.1 3.5-.8.6-1.9 1-3.3 1zm-1.4-8.8h2.9v-.9c0-.4 0-.7-.1-1 0-.3-.1-.6-.2-.9s-.2-.5-.4-.7c-.2-.1-.4-.2-.7-.2s-.5.1-.7.2c-.2.2-.3.4-.4.7s-.2.6-.2.9-.1.6-.1 1v.9z"/><path id="i" d="M266.1 139.6v-2.9h2.9v2.9h-2.9zm0 16.5v-14.4h2.9v14.4h-2.9z"/></defs></svg>