<svg xmlns="http://www.w3.org/2000/svg" height="300" width="300" fill="#cc2b5e" viewBox="0 0 120 120"  xmlns:v="https://vecta.io/nano"><path d="M87.1 60h-25c-1.2 0-2.1.8-2.1 2.1v25c0 1.2.8 2.1 2.1 2.1h25c1.2 0 2.1-.8 2.1-2.1v-25c0-1.3-.9-2.1-2.1-2.1zM32.9 47.5h54.2c1.2 0 2.1-.8 2.1-2.1V32.9c0-1.3-.8-2.1-2.1-2.1H32.9c-1.2 0-2.1.8-2.1 2.1v12.5c0 1.3.9 2.1 2.1 2.1zm0 41.7h12.5c1.2 0 2.1-.8 2.1-2.1v-25c0-1.3-.8-2.1-2.1-2.1H32.9c-1.2 0-2.1.8-2.1 2.1v25c0 1.2.9 2.1 2.1 2.1zM105.8 10H14.2a4.23 4.23 0 0 0-4.2 4.2v91.7a4.23 4.23 0 0 0 4.2 4.2h91.7a4.23 4.23 0 0 0 4.2-4.2V14.2c-.1-2.3-2-4.2-4.3-4.2zm-4.1 91.7H18.3V18.3h83.3v83.4z"/></svg>