<svg xmlns="http://www.w3.org/2000/svg" height="300" width="300" fill="#cc2b5e" viewBox="0 0 1024 1024"  xmlns:v="https://vecta.io/nano"><path d="M708.5 586.6c-1.3 3.6-2.7 7.2-4.2 10.7l3-7.2c-5.9 13.8-12.9 27-21.2 39.5-2.2 3.3-4.4 6.5-6.8 9.7-1.3 1.7-5.2 5.6.6-.7-1.3 1.5-2.5 3.1-3.7 4.7-4.9 6-10.2 11.8-15.7 17.3-5.3 5.3-10.8 10.3-16.6 15.1-1.7 1.4-3.5 3-5.3 4.3 1.1-.9 2.3-1.7 3.4-2.6-.9.7-1.8 1.4-2.7 2l-9.7 6.8c-12.5 8.3-25.7 15.3-39.5 21.2l7.2-3c-19.8 8.3-40.5 13.8-61.7 16.7l8-1.1c-21 2.7-42.1 2.7-63 0l8 1.1c-21.2-2.9-41.9-8.5-61.7-16.7l7.2 3c-13.8-5.9-27-12.9-39.5-21.2-3.3-2.2-6.5-4.4-9.7-6.8-1.7-1.3-5.6-5.2.7.6-1.5-1.3-3.1-2.5-4.7-3.7-6-4.9-11.8-10.2-17.3-15.7-5.3-5.3-10.3-10.8-15.1-16.6-1.4-1.7-3-3.5-4.3-5.3.9 1.1 1.7 2.3 2.6 3.4-.7-.9-1.4-1.8-2-2.7l-6.8-9.7c-8.3-12.5-15.3-25.7-21.2-39.5l3 7.2c-8.3-19.8-13.8-40.5-16.7-61.7l1.1 8c-2.7-21-2.7-42.1 0-63l-1.1 8c2.9-21.2 8.5-41.9 16.7-61.7l-3 7.2c5.9-13.8 12.9-27 21.2-39.5 2.2-3.3 4.4-6.5 6.8-9.7 1.3-1.7 5.2-5.6-.6.7 1.3-1.5 2.5-3.1 3.7-4.7 4.9-6 10.2-11.8 15.7-17.3 5.3-5.3 10.8-10.3 16.6-15.1 1.7-1.4 3.5-3 5.3-4.3-1.1.9-2.3 1.7-3.4 2.6.9-.7 1.8-1.4 2.7-2l9.7-6.8c12.5-8.3 25.7-15.3 39.5-21.2l-7.2 3c19.8-8.3 40.5-13.8 61.7-16.7l-8 1.1c21-2.7 42.1-2.7 63 0l-8-1.1c21.2 2.9 41.9 8.5 61.7 16.7l-7.2-3c13.8 5.9 27 12.9 39.5 21.2 3.3 2.2 6.5 4.4 9.7 6.8 1.7 1.3 5.6 5.2-.7-.6 1.5 1.3 3.1 2.5 4.7 3.7 6 4.9 11.8 10.2 17.3 15.7 5.3 5.3 10.3 10.8 15.1 16.6 1.4 1.7 3 3.5 4.3 5.3-.9-1.1-1.7-2.3-2.6-3.4.7.9 1.4 1.8 2 2.7l6.8 9.7c8.3 12.5 15.3 25.7 21.2 39.5l-3-7.2c8.3 19.8 13.8 40.5 16.7 61.7l-1.1-8c2.7 21 2.7 42.1 0 63l1.1-8c-2.4 17.4-6.5 34.4-12.5 51-5.3 14.8 6 33.5 21 36.9 16.9 3.8 31.2-5.1 36.9-21 19.2-53.1 20.7-113.1 4.6-167.2-15.2-51-45.7-98-87.2-131.5-22.6-18.2-46.6-32.3-73.5-43.2-26.1-10.6-53.9-16.2-82-18.1-54.7-3.7-111.2 10.6-157.7 39.4-44.9 27.9-82.6 69.3-104 117.8-12.2 27.7-19.8 55.9-23.1 86-3.1 28.1-.9 56.7 4.9 84.4C271.1 677 362.5 763.2 470.7 778.6c30.2 4.3 59.6 4 89.7-1.1 27.1-4.6 53.5-14.1 77.9-26.8 46.8-24.5 86.8-64.2 111.6-110.9 6.4-12 11.7-24.5 16.4-37.2 2.6-6.9.6-16.9-3-23.1s-10.8-12.2-17.9-13.8c-17-3.9-31.1 5.1-36.9 20.9z"/><path d="M763 107.4c-80-49.7-175.2-74.9-269.4-71.1-95.4 3.9-189.8 36.2-266 94.1-43 32.6-80.2 71.1-110.6 115.8-26.9 39.6-47.5 83.8-61.2 129.6C29.1 465.1 29.5 563 57 652.1c30.4 98.3 92.3 183.6 174.9 244.6 76.7 56.8 171.3 88.2 266.5 91.1 93.6 2.8 188.4-22.9 267.5-73.1 87.5-55.6 154.6-138.4 191.5-235.1 33.5-87.6 39-185.4 17.9-276.6-22.2-95.9-75.7-184.7-150-249.3-19.5-16.9-40.4-32.5-62.3-46.3-13.3-8.3-33.6-3.3-41 10.8-7.8 14.7-3.5 32.1 10.8 41 7.5 4.7 14.8 9.5 22 14.6l10.7 7.9c.7.5 1.4 1.1 2.1 1.6-6.4-4.6-3.2-2.5-1.8-1.4l5.6 4.5c14.3 11.6 27.9 24.1 40.7 37.3 6.3 6.5 12.4 13.2 18.2 20.1l8.6 10.3 3.9 4.9c2 2.6-2.1-2.7-2-2.5.9 1.1 1.8 2.4 2.7 3.5 10.6 14.1 20.3 28.8 29.1 44 9.3 16.1 17.5 32.7 24.8 49.8l-3-7.2c15.2 36.3 25.6 74.4 30.9 113.3l-1.1-8a453.31 453.31 0 0 1 0 119.8l1.1-8c-5.3 39-15.7 77.1-30.9 113.3l3-7.2c-8.3 19.6-18 38.7-29 56.9-5.7 9.4-11.7 18.6-18.1 27.6-3.1 4.3-6.6 8.4-9.5 12.9 5-7.9-.5.6-1.9 2.3l-5.7 6.9c-15.1 18.1-31.7 34.9-49.4 50.4l-12.4 10.4c-2.3 1.9-4.6 3.8-7 5.6.4-.3 5.8-4.4 1.8-1.4-1.4 1.1-2.8 2.1-4.3 3.2-9 6.6-18.2 13-27.7 18.9a453.4 453.4 0 0 1-64.1 33.4l7.2-3c-36.3 15.2-74.4 25.6-113.3 30.9l8-1.1a453.31 453.31 0 0 1-119.8 0l8 1.1c-39-5.3-77.1-15.7-113.3-30.9l7.2 3c-19.6-8.3-38.7-18-56.9-29-9.4-5.7-18.6-11.7-27.6-18.1-4.3-3.1-8.4-6.6-12.9-9.5 7.9 5-.6-.5-2.3-1.9l-6.9-5.7c-18.1-15.1-34.9-31.7-50.4-49.4l-10.4-12.4c-1.9-2.3-3.8-4.6-5.6-7 .3.4 4.4 5.8 1.4 1.8-1.1-1.4-2.1-2.8-3.2-4.3-6.6-9-13-18.2-18.9-27.7a453.4 453.4 0 0 1-33.4-64.1l3 7.2c-15.2-36.3-25.6-74.4-30.9-113.3l1.1 8a453.31 453.31 0 0 1 0-119.8l-1.1 8c5.3-39 15.7-77.1 30.9-113.3l-3 7.2c8.3-19.6 18-38.7 29-56.9 5.7-9.4 11.7-18.6 18.1-27.6 3.1-4.3 6.6-8.4 9.5-12.9-5 7.9.5-.6 1.9-2.3l5.7-6.9c15.1-18.1 31.7-34.9 49.4-50.4l12.4-10.4 7-5.6c-.4.3-5.8 4.4-1.8 1.4 1.4-1.1 2.8-2.1 4.3-3.2 9-6.6 18.2-13 27.7-18.9a453.4 453.4 0 0 1 64.1-33.4l-7.2 3c36.3-15.2 74.4-25.6 113.3-30.9l-8 1.1a453.31 453.31 0 0 1 119.8 0l-8-1.1c39 5.3 77.1 15.7 113.3 30.9l-7.2-3c21.7 9.2 42.6 20 62.6 32.4 13.3 8.3 33.6 3.3 41-10.8 7.6-14.3 3.3-31.8-10.9-40.7zM660.5 363.5c5.7 5.7 11.1 11.7 16.2 17.9 1.1 1.3 2.1 2.7 3.2 4-5.8-6.3-1.9-2.4-.6-.7l6.8 9.7c8.3 12.5 15.3 25.7 21.2 39.5l-3-7.2c8.3 19.8 13.8 40.5 16.7 61.7l-1.1-8c2.7 21 2.7 42.1 0 63l1.1-8c-2.9 21.2-8.5 41.9-16.7 61.7l3-7.2c-5.9 13.8-12.9 27-21.2 39.5-2.2 3.3-4.4 6.5-6.8 9.7-1.3 1.7-5.2 5.6.6-.7-1.3 1.5-2.5 3.1-3.7 4.7-4.9 6-10.2 11.8-15.7 17.3-5.3 5.3-10.8 10.3-16.6 15.1-1.7 1.4-3.5 3-5.3 4.3 1.1-.9 2.3-1.7 3.4-2.6-.9.7-1.8 1.4-2.7 2l-9.7 6.8c-12.5 8.3-25.7 15.3-39.5 21.2l7.2-3c-19.8 8.3-40.5 13.8-61.7 16.7l8-1.1c-21 2.7-42.1 2.7-63 0l8 1.1c-21.2-2.9-41.9-8.5-61.7-16.7l7.2 3c-13.8-5.9-27-12.9-39.5-21.2-3.3-2.2-6.5-4.4-9.7-6.8-1.7-1.3-5.6-5.2.7.6-1.5-1.3-3.1-2.5-4.7-3.7-6-4.9-11.8-10.2-17.3-15.7-5.3-5.3-10.3-10.8-15.1-16.6-1.4-1.7-3-3.5-4.3-5.3.9 1.1 1.7 2.3 2.6 3.4-.7-.9-1.4-1.8-2-2.7l-6.8-9.7c-8.3-12.5-15.3-25.7-21.2-39.5l3 7.2c-8.3-19.8-13.8-40.5-16.7-61.7l1.1 8c-2.7-21-2.7-42.1 0-63l-1.1 8c2.9-21.2 8.5-41.9 16.7-61.7l-3 7.2c5.9-13.8 12.9-27 21.2-39.5 2.2-3.3 4.4-6.5 6.8-9.7 1.3-1.7 5.2-5.6-.6.7 1.3-1.5 2.5-3.1 3.7-4.7 4.9-6 10.2-11.8 15.7-17.3 5.3-5.3 10.8-10.3 16.6-15.1 1.7-1.4 3.5-3 5.3-4.3-1.1.9-2.3 1.7-3.4 2.6.9-.7 1.8-1.4 2.7-2l9.7-6.8c12.5-8.3 25.7-15.3 39.5-21.2l-7.2 3c19.8-8.3 40.5-13.8 61.7-16.7l-8 1.1c21-2.7 42.1-2.7 63 0l-8-1.1c21.2 2.9 41.9 8.5 61.7 16.7l-7.2-3c13.8 5.9 27 12.9 39.5 21.2a245.55 245.55 0 0 1 9 6.3c1.7 1.2 7 5.8 0-.1 1.3 1.1 2.7 2.1 4 3.2 6.3 5.1 12.3 10.5 18 16.2 11.2 11.1 31.4 12 42.4 0 11-11.9 11.9-30.6 0-42.4-38.1-37.8-87.7-64.8-140.7-74.3-57.8-10.3-116.2-2.6-169.1 22.8-99.1 47.5-161.3 158.2-149.8 267.6 3.2 30.2 10.7 58.4 22.9 86.2 10.6 24.2 25.3 46.2 42.5 66.2 34.8 40.5 82.9 70.1 134.5 83.5 54.3 14.2 114 11.5 166.3-9.4 26.7-10.7 50.4-24.5 72.9-42.4 21.3-16.9 39.5-37.5 54.6-60 61.7-91.4 59.5-219.7-6.9-308.1-8.4-11.3-17.3-22-27.2-32-11.1-11.2-31.5-11.9-42.4 0-11 11.9-11.8 30.4 0 42.3z"/><path d="M255 154.6l153.3 153.3 13.2-50.1c-37.6 13.9-71.9 35-100.4 63.4s-49.5 62.7-63.4 100.4l50.1-13.2-153.3-153.3 4.7 36.4a485.21 485.21 0 0 1 13.6-20.5c2.4-3.4 4.8-6.7 7.3-10 1.3-1.7 6.8-7.8.7-1 1.2-1.3 2.2-2.8 3.3-4.2 10.5-13.2 21.8-25.8 33.7-37.7s24.5-23.2 37.7-33.7l4.2-3.3c-7.3 5.9-.6.5 1-.7 3.3-2.5 6.7-4.9 10-7.3 6.7-4.7 13.6-9.3 20.5-13.6 13.3-8.3 19.7-27.1 10.8-41-8.6-13.3-26.8-19.7-41-10.8C199 146.3 146.3 199 107.4 261c-7 11.2-4.5 27.2 4.7 36.4l153.3 153.3c7.6 7.6 18.9 10.6 29.2 7.7 10.8-3 17.2-10.9 21-21 1.3-3.6 2.7-7.2 4.2-10.7l-3 7.2c5.9-13.8 12.9-27 21.2-39.5 2.2-3.3 4.4-6.5 6.8-9.7 1.3-1.7 5.2-5.6-.6.7 1.3-1.5 2.5-3.1 3.7-4.7 4.9-6 10.2-11.8 15.7-17.3 5.3-5.3 10.8-10.3 16.6-15.1 1.7-1.4 3.5-3 5.3-4.3-1.1.9-2.3 1.7-3.4 2.6.9-.7 1.8-1.4 2.7-2l9.7-6.8c12.5-8.3 25.7-15.3 39.5-21.2l-7.2 3c3.5-1.5 7.1-2.9 10.7-4.2 10.1-3.7 18-10.2 21-21 2.8-10.3-.2-21.6-7.7-29.2L297.5 111.9c-11.1-11.1-31.5-11.9-42.4 0-11.1 12.2-12 30.8-.1 42.7zm461.2 461.2l153.3 153.3-4.7-36.4a485.21 485.21 0 0 1-13.6 20.5c-2.4 3.4-4.8 6.7-7.3 10-1.3 1.7-6.8 7.8-.7 1-1.2 1.3-2.2 2.8-3.3 4.2-10.5 13.2-21.8 25.8-33.7 37.7s-24.5 23.2-37.7 33.7l-4.2 3.3c7.3-5.9.6-.5-1 .7-3.3 2.5-6.7 4.9-10 7.3-6.7 4.7-13.6 9.3-20.5 13.6l36.4 4.7-153.3-153.3-13.2 50.1c37.6-13.9 71.9-35 100.4-63.4s49.5-62.7 63.4-100.4c2.6-6.9.6-16.9-3-23.1s-10.8-12.2-17.9-13.8c-17-3.9-31.1 5.2-36.9 21-1.3 3.6-2.7 7.2-4.2 10.7l3-7.2c-5.9 13.8-12.9 27-21.2 39.5-2.2 3.3-4.4 6.5-6.8 9.7-1.3 1.7-5.2 5.6.6-.7-1.3 1.5-2.5 3.1-3.7 4.7-4.9 6-10.2 11.8-15.7 17.3-5.3 5.3-10.8 10.3-16.6 15.1-1.7 1.4-3.5 3-5.3 4.3 1.1-.9 2.3-1.7 3.4-2.6-.9.7-1.8 1.4-2.7 2l-9.7 6.8c-12.5 8.3-25.7 15.3-39.5 21.2l7.2-3c-3.5 1.5-7.1 2.9-10.7 4.2-10.1 3.7-18 10.2-21 21-2.8 10.3.2 21.6 7.7 29.2L726.8 912c9.2 9.2 25.1 11.7 36.4 4.7C825 877.7 877.7 825 916.6 763c7-11.2 4.5-27.2-4.7-36.4L758.6 573.3c-11.1-11.1-31.5-11.9-42.4 0-11 12-11.9 30.6 0 42.5z"/><path d="M321.1 702.9c28.6 28.4 62.7 49.5 100.4 63.4l-13.2-50.1L255 869.5l36.4-4.7a485.21 485.21 0 0 1-20.5-13.6c-3.4-2.4-6.7-4.8-10-7.3-1.7-1.3-7.8-6.8-1-.7-1.3-1.2-2.8-2.2-4.2-3.3-13.2-10.5-25.8-21.8-37.7-33.7s-23.2-24.5-33.7-37.7l-3.3-4.2c5.9 7.3.5.6-.7-1-2.5-3.3-4.9-6.7-7.3-10-4.7-6.7-9.3-13.6-13.6-20.5l-4.7 36.4L308 615.9l-50.1-13.2c13.7 37.6 34.8 71.6 63.2 100.2 11.1 11.2 31.5 11.9 42.4 0 11-12 11.8-30.5 0-42.4-5.7-5.7-11.1-11.7-16.2-17.9-1.1-1.3-2.1-2.7-3.2-4 5.8 6.3 1.9 2.4.6.7l-6.8-9.7c-8.3-12.5-15.3-25.7-21.2-39.5l3 7.2c-1.5-3.5-2.9-7.1-4.2-10.7-3.7-10.1-10.2-18-21-21-10.3-2.8-21.6.2-29.2 7.7L112 726.6c-9.2 9.2-11.7 25.1-4.7 36.4 39 62 91.7 114.7 153.7 153.6 11.2 7 27.2 4.5 36.4-4.7l153.3-153.3c7.6-7.6 10.6-18.9 7.7-29.2-3-10.8-10.9-17.2-21-21-3.6-1.3-7.2-2.7-10.7-4.2l7.2 3c-13.8-5.9-27-12.9-39.5-21.2a245.55 245.55 0 0 1-9-6.3c-1.7-1.2-7-5.8 0 .1-1.3-1.1-2.7-2.1-4-3.2-6.2-5.1-12.2-10.5-17.9-16.2-11.2-11.1-31.4-12-42.4 0s-11.9 30.7 0 42.5zm485.1-485.1c11.9 11.9 23.2 24.5 33.7 37.7 1.1 1.4 2.1 2.9 3.3 4.2-6.1-6.8-.6-.7.7 1 2.5 3.3 4.9 6.7 7.3 10 4.7 6.7 9.3 13.6 13.6 20.5l4.7-36.4-153.3 153.3 50.1 13.2c-13.9-37.6-35-71.9-63.4-100.4s-62.7-49.5-100.4-63.4l13.2 50.1L769 154.3l-36.4 4.7a485.21 485.21 0 0 1 20.5 13.6c3.4 2.4 6.7 4.8 10 7.3l2.6 2c-4.3-3.3 1.8 1.5 2.6 2.1 13.4 10.7 25.9 21.9 37.9 33.8 11.1 11.1 31.5 12 42.4 0 11-12 11.9-30.6 0-42.4-25.8-25.7-54.7-48.6-85.6-68-11.2-7-27.2-4.5-36.4 4.7L573.3 265.4c-7.6 7.6-10.6 18.9-7.7 29.2 3 10.8 10.9 17.2 21 21 3.6 1.3 7.2 2.7 10.7 4.2l-7.2-3c13.8 5.9 27 12.9 39.5 21.2 3.3 2.2 6.5 4.4 9.7 6.8 1.7 1.3 5.6 5.2-.7-.6 1.5 1.3 3.1 2.5 4.7 3.7 6 4.9 11.8 10.2 17.3 15.7 5.3 5.3 10.3 10.8 15.1 16.6 1.4 1.7 3 3.5 4.3 5.3-.9-1.1-1.7-2.3-2.6-3.4.7.9 1.4 1.8 2 2.7l6.8 9.7c8.3 12.5 15.3 25.7 21.2 39.5l-3-7.2c1.5 3.5 2.9 7.1 4.2 10.7 3.7 10.1 10.2 18 21 21 10.3 2.8 21.6-.2 29.2-7.7l153.3-153.3c9.2-9.2 11.7-25.1 4.7-36.4-19.4-30.9-42.3-59.8-68-85.6-11.1-11.1-31.5-11.9-42.4 0-11.3 11.9-12.1 30.5-.2 42.3z"/></svg>