<svg xmlns="http://www.w3.org/2000/svg" height="300" width="300" fill="#cc2b5e" viewBox="0 0 100 93.455"  xmlns:v="https://vecta.io/nano"><path d="M76.992 16.859v36.412H23.043V16.859h53.949m5.392-6.07H17.648v48.554h64.736V10.789zm16.024 64.659l-5.236-6.568c-.545-.684-1.22-1.299-1.97-1.847 1.212-1.532 1.973-3.495 1.973-5.667V8.767c0-4.834-3.63-8.767-8.093-8.767H14.951C10.489 0 6.86 3.933 6.86 8.767v52.599a9.11 9.11 0 0 0 1.97 5.667c-.747.548-1.428 1.163-1.97 1.847l-5.237 6.568C.518 76.838.021 78.414.032 79.968H0v12.08c0 1.181.243 1.407 1.296 1.407H98.61c1.181 0 1.351-.394 1.351-1.616L100 79.968c.008-1.554-.484-3.131-1.592-4.52zM12.254 8.767c0-1.608 1.211-2.924 2.696-2.924h70.131c1.482 0 2.697 1.316 2.697 2.924v52.599c0 1.604-1.215 2.921-2.697 2.921h-70.13c-1.485 0-2.696-1.316-2.696-2.921V8.767zM5.842 78.811l5.237-6.568c.922-1.16 2.892-2.11 4.378-2.11h69.12c1.481 0 3.451.95 4.379 2.11l5.236 6.568c.923 1.161.464 2.11-1.018 2.11H6.859c-1.485 0-1.944-.949-1.017-2.11zm89.081 10.147H5.273v-2.84c.511.101 1.03.197 1.586.197h86.315c.61 0 1.191-.092 1.749-.22v2.863zm-12.09-10.622H17.197a2.7 2.7 0 0 1-2.696-2.699c0-1.488 1.208-2.695 2.696-2.695h65.636c1.492 0 2.697 1.207 2.697 2.695a2.7 2.7 0 0 1-2.697 2.699zM36.278 25.849h5.22l6.313 17.337h-5.536l-.729-2.476h-5.512l-.777 2.476H29.89l6.388-17.337zm4.201 11.145l-1.554-5.342h-.048l-1.675 5.342h3.277zm20.733 3.376c0 .947.049 2.016.583 2.816h-4.904a3.33 3.33 0 0 1-.172-1.188h-.048c-1.021 1.165-2.502 1.504-4.057 1.504-2.429 0-4.442-1.166-4.442-3.812 0-3.982 4.66-3.837 7.113-4.298.655-.122 1.312-.316 1.312-1.119 0-.85-.802-1.165-1.578-1.165-1.481 0-1.771.753-1.796 1.289h-4.469c.145-3.546 3.497-4.128 6.482-4.128 6.023 0 5.975 2.499 5.975 4.93v5.171zm-4.614-2.843c-.582.292-1.237.461-1.893.609-1.07.242-1.629.508-1.629 1.36 0 .583.631 1.166 1.506 1.166 1.091 0 1.943-.655 2.016-1.968v-1.167z"/></svg>